EBGaramondVF-Expanded_Ultralight.ufo
<glyph name="numbersign" format="1">
  <advance width="527"/>
  <unicode hex="0023"/>
  <outline>
    <contour>
      <point x="78" y="-79" type="curve" smooth="yes"/>
      <point x="87" y="-79"/>
      <point x="100" y="-77"/>
      <point x="102" y="-67" type="curve" smooth="yes"/>
      <point x="148" y="120" type="line"/>
      <point x="292" y="126" type="line"/>
      <point x="247" y="-55" type="line"/>
      <point x="247" y="-60" type="line" smooth="yes"/>
      <point x="247" y="-65"/>
      <point x="249" y="-68"/>
      <point x="253" y="-68" type="curve" smooth="yes"/>
      <point x="262" y="-68"/>
      <point x="275" y="-66"/>
      <point x="277" y="-57" type="curve" smooth="yes"/>
      <point x="322" y="128" type="line"/>
      <point x="402" y="131" type="line" smooth="yes"/>
      <point x="422" y="131"/>
      <point x="430" y="162"/>
      <point x="430" y="171" type="curve" smooth="yes"/>
      <point x="430" y="178"/>
      <point x="424" y="182"/>
      <point x="417" y="182" type="curve"/>
      <point x="336" y="179" type="line"/>
      <point x="372" y="325" type="line"/>
      <point x="449" y="328" type="line" smooth="yes"/>
      <point x="469" y="329"/>
      <point x="477" y="361"/>
      <point x="477" y="370" type="curve" smooth="yes"/>
      <point x="477" y="376"/>
      <point x="471" y="380"/>
      <point x="464" y="380" type="curve"/>
      <point x="385" y="377" type="line"/>
      <point x="428" y="556" type="line"/>
      <point x="428" y="558"/>
      <point x="429" y="560"/>
      <point x="429" y="562" type="curve" smooth="yes"/>
      <point x="429" y="566"/>
      <point x="427" y="570"/>
      <point x="423" y="570" type="curve" smooth="yes"/>
      <point x="414" y="570"/>
      <point x="400" y="568"/>
      <point x="397" y="556" type="curve" smooth="yes"/>
      <point x="353" y="374" type="line"/>
      <point x="210" y="369" type="line"/>
      <point x="252" y="542" type="line" smooth="yes"/>
      <point x="252" y="546"/>
      <point x="253" y="548"/>
      <point x="253" y="551" type="curve" smooth="yes"/>
      <point x="253" y="555"/>
      <point x="251" y="559"/>
      <point x="246" y="559" type="curve" smooth="yes"/>
      <point x="238" y="559"/>
      <point x="224" y="556"/>
      <point x="222" y="544" type="curve" smooth="yes"/>
      <point x="179" y="367" type="line"/>
      <point x="88" y="364" type="line" smooth="yes"/>
      <point x="70" y="363"/>
      <point x="66" y="332"/>
      <point x="66" y="323" type="curve" smooth="yes"/>
      <point x="66" y="316"/>
      <point x="73" y="312"/>
      <point x="80" y="312" type="curve"/>
      <point x="166" y="315" type="line"/>
      <point x="130" y="169" type="line"/>
      <point x="42" y="166" type="line" smooth="yes"/>
      <point x="23" y="166"/>
      <point x="20" y="135"/>
      <point x="20" y="126" type="curve" smooth="yes"/>
      <point x="20" y="119"/>
      <point x="27" y="115"/>
      <point x="34" y="115" type="curve"/>
      <point x="117" y="118" type="line"/>
      <point x="72" y="-64" type="line"/>
      <point x="71" y="-71" type="line" smooth="yes"/>
      <point x="71" y="-76"/>
      <point x="74" y="-79"/>
    </contour>
    <contour>
      <point x="161" y="171" type="line"/>
      <point x="197" y="317" type="line"/>
      <point x="340" y="323" type="line"/>
      <point x="305" y="177" type="line"/>
    </contour>
  </outline>
</glyph>
<glyph name="dollar" format="1">
  <advance width="485"/>
  <unicode hex="0024"/>
  <outline>
    <contour>
      <point x="194" y="-82" type="curve" smooth="yes"/>
      <point x="203" y="-82"/>
      <point x="213" y="-78"/>
      <point x="215" y="-69" type="curve" smooth="yes"/>
      <point x="224" y="9" type="line" smooth="yes"/>
      <point x="224" y="14"/>
      <point x="228" y="17"/>
      <point x="233" y="17" type="curve" smooth="yes"/>
      <point x="354" y="19"/>
      <point x="442" y="91"/>
      <point x="442" y="190" type="curve" smooth="yes"/>
      <point x="442" y="275"/>
      <point x="378" y="319"/>
      <point x="283" y="362" type="curve" smooth="yes"/>
      <point x="269" y="370"/>
      <point x="269" y="373"/>
      <point x="270" y="380" type="curve" smooth="yes"/>
      <point x="296" y="591" type="line"/>
      <point x="296" y="594"/>
      <point x="298" y="596"/>
      <point x="301" y="596" type="curve" smooth="yes"/>
      <point x="341" y="593"/>
      <point x="376" y="547"/>
      <point x="395" y="498" type="curve" smooth="yes"/>
      <point x="399" y="489"/>
      <point x="410" y="483"/>
      <point x="421" y="483" type="curve" smooth="yes"/>
      <point x="427" y="483"/>
      <point x="434" y="486"/>
      <point x="434" y="494" type="curve" smooth="yes"/>
      <point x="434" y="522"/>
      <point x="421" y="563"/>
      <point x="413" y="588" type="curve" smooth="yes"/>
      <point x="409" y="598"/>
      <point x="401" y="608"/>
      <point x="390" y="611" type="curve" smooth="yes"/>
      <point x="372" y="618"/>
      <point x="342" y="628"/>
      <point x="307" y="630" type="curve" smooth="yes"/>
      <point x="304" y="630"/>
      <point x="303" y="634"/>
      <point x="303" y="637" type="curve" smooth="yes"/>
      <point x="303" y="648"/>
      <point x="309" y="689"/>
      <point x="309" y="698" type="curve"/>
      <point x="309" y="705"/>
      <point x="306" y="711"/>
      <point x="301" y="711" type="curve" smooth="yes"/>
      <point x="293" y="711"/>
      <point x="275" y="709"/>
      <point x="274" y="696" type="curve" smooth="yes"/>
      <point x="268" y="638" type="line" smooth="yes"/>
      <point x="268" y="635"/>
      <point x="266" y="632"/>
      <point x="262" y="632" type="curve" smooth="yes"/>
      <point x="129" y="630"/>
      <point x="64" y="553"/>
      <point x="64" y="470" type="curve" smooth="yes"/>
      <point x="64" y="400"/>
      <point x="135" y="351"/>
      <point x="214" y="314" type="curve" smooth="yes"/>
      <point x="224" y="308"/>
      <point x="226" y="303"/>
      <point x="225" y="297" type="curve" smooth="yes"/>
      <point x="196" y="56" type="line" smooth="yes"/>
      <point x="195" y="51"/>
      <point x="191" y="51"/>
      <point x="187" y="52" type="curve" smooth="yes"/>
      <point x="139" y="67"/>
      <point x="100" y="94"/>
      <point x="78" y="177" type="curve" smooth="yes"/>
      <point x="75" y="184"/>
      <point x="70" y="188"/>
      <point x="63" y="188" type="curve" smooth="yes"/>
      <point x="53" y="188"/>
      <point x="45" y="182"/>
      <point x="45" y="174" type="curve"/>
      <point x="47" y="149"/>
      <point x="48" y="103"/>
      <point x="55" y="78" type="curve" smooth="yes"/>
      <point x="57" y="71"/>
      <point x="64" y="65"/>
      <point x="69" y="60" type="curve" smooth="yes"/>
      <point x="100" y="38"/>
      <point x="145" y="20"/>
      <point x="183" y="18" type="curve" smooth="yes"/>
      <point x="186" y="18"/>
      <point x="191" y="15"/>
      <point x="190" y="9" type="curve"/>
      <point x="182" y="-66" type="line" smooth="yes"/>
      <point x="180" y="-75"/>
      <point x="187" y="-82"/>
    </contour>
    <contour>
      <point x="239" y="45" type="curve"/>
      <point x="232" y="45"/>
      <point x="230" y="47"/>
      <point x="230" y="55" type="curve"/>
      <point x="258" y="284" type="line" smooth="yes"/>
      <point x="258" y="289"/>
      <point x="262" y="291"/>
      <point x="266" y="289" type="curve" smooth="yes"/>
      <point x="335" y="258"/>
      <point x="372" y="224"/>
      <point x="372" y="165" type="curve" smooth="yes"/>
      <point x="372" y="98"/>
      <point x="311" y="45"/>
    </contour>
    <contour>
      <point x="229" y="392" type="curve"/>
      <point x="168" y="420"/>
      <point x="134" y="455"/>
      <point x="134" y="494" type="curve" smooth="yes"/>
      <point x="134" y="561"/>
      <point x="190" y="600"/>
      <point x="255" y="600" type="curve" smooth="yes"/>
      <point x="260" y="600"/>
      <point x="263" y="597"/>
      <point x="263" y="592" type="curve"/>
      <point x="238" y="394" type="line"/>
      <point x="238" y="392"/>
      <point x="236" y="389"/>
    </contour>
  </outline>
</glyph>
<glyph name="ampersand" format="1">
  <advance width="849"/>
  <unicode hex="0026"/>
  <outline>
    <contour>
      <point x="239" y="-15" type="curve" smooth="yes"/>
      <point x="344" y="-15"/>
      <point x="396" y="47"/>
      <point x="467" y="115" type="curve"/>
      <point x="474" y="121" type="line"/>
      <point x="490" y="99" type="line" smooth="yes"/>
      <point x="548" y="21"/>
      <point x="576" y="-14"/>
      <point x="656" y="-14" type="curve" smooth="yes"/>
      <point x="719" y="-14"/>
      <point x="796" y="38"/>
      <point x="796" y="55" type="curve" smooth="yes"/>
      <point x="796" y="61"/>
      <point x="794" y="64"/>
      <point x="786" y="64" type="curve" smooth="yes"/>
      <point x="781" y="64"/>
      <point x="775" y="61"/>
      <point x="767" y="56" type="curve" smooth="yes"/>
      <point x="745" y="45"/>
      <point x="723" y="36"/>
      <point x="685" y="36" type="curve" smooth="yes"/>
      <point x="629" y="36"/>
      <point x="577" y="80"/>
      <point x="533" y="134" type="curve" smooth="yes"/>
      <point x="512" y="159" type="line"/>
      <point x="512" y="159"/>
      <point x="700" y="339"/>
      <point x="714" y="350" type="curve"/>
      <point x="734" y="365"/>
      <point x="762" y="381"/>
      <point x="796" y="383" type="curve" smooth="yes"/>
      <point x="809" y="384"/>
      <point x="827" y="391"/>
      <point x="827" y="399" type="curve" smooth="yes"/>
      <point x="827" y="404"/>
      <point x="817" y="410"/>
      <point x="812" y="410" type="curve" smooth="yes"/>
      <point x="785" y="410"/>
      <point x="741" y="401"/>
      <point x="708" y="401" type="curve" smooth="yes"/>
      <point x="691" y="401"/>
      <point x="635" y="406"/>
      <point x="629" y="406" type="curve" smooth="yes"/>
      <point x="622" y="406"/>
      <point x="604" y="404"/>
      <point x="604" y="394" type="curve" smooth="yes"/>
      <point x="604" y="388"/>
      <point x="614" y="385"/>
      <point x="622" y="383" type="curve"/>
      <point x="651" y="379"/>
      <point x="656" y="369"/>
      <point x="656" y="361" type="curve" smooth="yes"/>
      <point x="656" y="342"/>
      <point x="571" y="247"/>
      <point x="519" y="196" type="curve" smooth="yes"/>
      <point x="496" y="176" type="line"/>
      <point x="480" y="195" type="line" smooth="yes"/>
      <point x="431" y="250"/>
      <point x="397" y="284"/>
      <point x="340" y="339" type="curve" smooth="yes"/>
      <point x="325" y="353" type="line"/>
      <point x="341" y="358" type="line" smooth="yes"/>
      <point x="412" y="383"/>
      <point x="450" y="426"/>
      <point x="449" y="477" type="curve" smooth="yes"/>
      <point x="449" y="532"/>
      <point x="405" y="599"/>
      <point x="313" y="599" type="curve" smooth="yes"/>
      <point x="239" y="599"/>
      <point x="164" y="554"/>
      <point x="164" y="484" type="curve" smooth="yes"/>
      <point x="164" y="425"/>
      <point x="216" y="392"/>
      <point x="238" y="370" type="curve"/>
      <point x="258" y="351" type="line"/>
      <point x="235" y="342" type="line" smooth="yes"/>
      <point x="117" y="297"/>
      <point x="43" y="235"/>
      <point x="43" y="127" type="curve" smooth="yes"/>
      <point x="43" y="45"/>
      <point x="123" y="-15"/>
    </contour>
    <contour>
      <point x="259" y="41" type="curve" smooth="yes"/>
      <point x="170" y="41"/>
      <point x="108" y="91"/>
      <point x="108" y="154" type="curve" smooth="yes"/>
      <point x="108" y="215"/>
      <point x="129" y="285"/>
      <point x="249" y="324" type="curve" smooth="yes"/>
      <point x="276" y="333" type="line"/>
      <point x="292" y="317" type="line" smooth="yes"/>
      <point x="357" y="255"/>
      <point x="400" y="208"/>
      <point x="442" y="161" type="curve" smooth="yes"/>
      <point x="459" y="141" type="line"/>
      <point x="447" y="131" type="line" smooth="yes"/>
      <point x="387" y="75"/>
      <point x="337" y="41"/>
    </contour>
    <contour>
      <point x="311" y="371" type="line"/>
      <point x="291" y="388" type="line" smooth="yes"/>
      <point x="228" y="445"/>
      <point x="214" y="465"/>
      <point x="214" y="503" type="curve" smooth="yes"/>
      <point x="214" y="546"/>
      <point x="259" y="575"/>
      <point x="309" y="575" type="curve" smooth="yes"/>
      <point x="367" y="575"/>
      <point x="394" y="528"/>
      <point x="394" y="480" type="curve" smooth="yes"/>
      <point x="394" y="440"/>
      <point x="375" y="398"/>
      <point x="330" y="379" type="curve" smooth="yes"/>
    </contour>
  </outline>
</glyph>
<glyph name="quotesingle" format="1">
  <advance width="191"/>
  <unicode hex="0027"/>
  <outline>
    <contour>
      <point x="71" y="450" type="curve" smooth="yes"/>
      <point x="73" y="447"/>
      <point x="77" y="454"/>
      <point x="84" y="463" type="curve" smooth="yes"/>
      <point x="98" y="491"/>
      <point x="124" y="557"/>
      <point x="124" y="600" type="curve" smooth="yes"/>
      <point x="126" y="622"/>
      <point x="126" y="654"/>
      <point x="120" y="668" type="curve" smooth="yes"/>
      <point x="110" y="672"/>
      <point x="102" y="670"/>
      <point x="90" y="660" type="curve" smooth="yes"/>
      <point x="81" y="655"/>
      <point x="71" y="643"/>
      <point x="67" y="629" type="curve"/>
      <point x="65" y="610"/>
      <point x="67" y="571"/>
      <point x="67" y="549" type="curve" smooth="yes"/>
      <point x="67" y="535"/>
      <point x="70" y="503"/>
      <point x="69" y="482" type="curve" smooth="yes"/>
      <point x="69" y="470"/>
      <point x="70" y="455"/>
    </contour>
  </outline>
</glyph>
<glyph name="asterisk" format="1">
  <advance width="384"/>
  <unicode hex="002A"/>
  <outline>
    <contour>
      <point x="205" y="372" type="curve" smooth="yes"/>
      <point x="213" y="372"/>
      <point x="216" y="381"/>
      <point x="216" y="392" type="curve" smooth="yes"/>
      <point x="217" y="429"/>
      <point x="215" y="461"/>
      <point x="214" y="492" type="curve"/>
      <point x="249" y="481"/>
      <point x="283" y="469"/>
      <point x="321" y="457" type="curve" smooth="yes"/>
      <point x="329" y="455"/>
      <point x="346" y="456"/>
      <point x="346" y="463" type="curve" smooth="yes"/>
      <point x="346" y="467"/>
      <point x="341" y="474"/>
      <point x="335" y="476" type="curve" smooth="yes"/>
      <point x="295" y="496"/>
      <point x="263" y="509"/>
      <point x="231" y="525" type="curve"/>
      <point x="320" y="587" type="line" smooth="yes"/>
      <point x="326" y="591"/>
      <point x="329" y="598"/>
      <point x="329" y="603" type="curve" smooth="yes"/>
      <point x="329" y="608"/>
      <point x="325" y="612"/>
      <point x="318" y="612" type="curve" smooth="yes"/>
      <point x="314" y="612"/>
      <point x="307" y="609"/>
      <point x="301" y="606" type="curve" smooth="yes"/>
      <point x="266" y="588"/>
      <point x="237" y="573"/>
      <point x="207" y="555" type="curve"/>
      <point x="189" y="653" type="line" smooth="yes"/>
      <point x="188" y="661"/>
      <point x="184" y="670"/>
      <point x="178" y="670" type="curve" smooth="yes"/>
      <point x="171" y="670"/>
      <point x="167" y="661"/>
      <point x="167" y="648" type="curve" smooth="yes"/>
      <point x="167" y="613"/>
      <point x="169" y="582"/>
      <point x="170" y="550" type="curve"/>
      <point x="135" y="563"/>
      <point x="99" y="575"/>
      <point x="63" y="586" type="curve" smooth="yes"/>
      <point x="55" y="589"/>
      <point x="39" y="589"/>
      <point x="39" y="580" type="curve" smooth="yes"/>
      <point x="39" y="574"/>
      <point x="45" y="568"/>
      <point x="54" y="564" type="curve" smooth="yes"/>
      <point x="90" y="547"/>
      <point x="122" y="532"/>
      <point x="153" y="517" type="curve"/>
      <point x="66" y="456" type="line" smooth="yes"/>
      <point x="60" y="452"/>
      <point x="58" y="446"/>
      <point x="58" y="440" type="curve" smooth="yes"/>
      <point x="58" y="435"/>
      <point x="61" y="432"/>
      <point x="69" y="432" type="curve" smooth="yes"/>
      <point x="73" y="432"/>
      <point x="80" y="434"/>
      <point x="85" y="437" type="curve" smooth="yes"/>
      <point x="118" y="456"/>
      <point x="146" y="471"/>
      <point x="177" y="487" type="curve"/>
      <point x="194" y="388" type="line" smooth="yes"/>
      <point x="195" y="380"/>
      <point x="200" y="372"/>
    </contour>
  </outline>
</glyph>
<glyph name="plus" format="1">
  <advance width="590"/>
  <unicode hex="002B"/>
  <outline>
    <contour>
      <point x="283" y="-8" type="curve" smooth="yes"/>
      <point x="289" y="-8"/>
      <point x="314" y="-6"/>
      <point x="314" y="8" type="curve" smooth="yes"/>
      <point x="314" y="224" type="line" smooth="yes"/>
      <point x="314" y="227"/>
      <point x="315" y="227"/>
      <point x="316" y="227" type="curve" smooth="yes"/>
      <point x="514" y="227" type="line" smooth="yes"/>
      <point x="533" y="227"/>
      <point x="545" y="244"/>
      <point x="545" y="255" type="curve" smooth="yes"/>
      <point x="545" y="259"/>
      <point x="539" y="262"/>
      <point x="532" y="262" type="curve" smooth="yes"/>
      <point x="315" y="262" type="line" smooth="yes"/>
      <point x="314" y="262"/>
      <point x="314" y="263"/>
      <point x="314" y="267" type="curve" smooth="yes"/>
      <point x="314" y="474" type="line" smooth="yes"/>
      <point x="314" y="478"/>
      <point x="309" y="482"/>
      <point x="304" y="482" type="curve" smooth="yes"/>
      <point x="300" y="482"/>
      <point x="275" y="476"/>
      <point x="275" y="461" type="curve" smooth="yes"/>
      <point x="275" y="268" type="line" smooth="yes"/>
      <point x="275" y="264"/>
      <point x="275" y="262"/>
      <point x="271" y="262" type="curve" smooth="yes"/>
      <point x="69" y="262" type="line" smooth="yes"/>
      <point x="51" y="262"/>
      <point x="45" y="243"/>
      <point x="45" y="236" type="curve" smooth="yes"/>
      <point x="45" y="232"/>
      <point x="52" y="227"/>
      <point x="59" y="227" type="curve" smooth="yes"/>
      <point x="272" y="227" type="line" smooth="yes"/>
      <point x="274" y="227"/>
      <point x="275" y="226"/>
      <point x="275" y="224" type="curve" smooth="yes"/>
      <point x="275" y="1" type="line" smooth="yes"/>
      <point x="275" y="-4"/>
      <point x="279" y="-8"/>
    </contour>
  </outline>
</glyph>
<glyph name="hyphen" format="1">
  <advance width="309"/>
  <unicode hex="002D"/>
  <outline>
    <contour>
      <point x="40" y="185" type="curve"/>
      <point x="114" y="190"/>
      <point x="184" y="198"/>
      <point x="253" y="204" type="curve" smooth="yes"/>
      <point x="271" y="206"/>
      <point x="277" y="225"/>
      <point x="277" y="239" type="curve" smooth="yes"/>
      <point x="277" y="242"/>
      <point x="272" y="243"/>
      <point x="268" y="243" type="curve"/>
      <point x="195" y="237"/>
      <point x="123" y="230"/>
      <point x="51" y="223" type="curve"/>
      <point x="40" y="223"/>
      <point x="33" y="202"/>
      <point x="33" y="188" type="curve" smooth="yes"/>
      <point x="33" y="186"/>
      <point x="34" y="185"/>
    </contour>
  </outline>
</glyph>
<glyph name="period" format="1">
  <advance width="221"/>
  <unicode hex="002E"/>
  <outline>
    <contour>
      <point x="110" y="-14" type="curve" smooth="yes"/>
      <point x="138" y="-14"/>
      <point x="161" y="9"/>
      <point x="161" y="36" type="curve" smooth="yes"/>
      <point x="161" y="64"/>
      <point x="138" y="87"/>
      <point x="110" y="87" type="curve" smooth="yes"/>
      <point x="83" y="87"/>
      <point x="60" y="64"/>
      <point x="60" y="36" type="curve" smooth="yes"/>
      <point x="60" y="9"/>
      <point x="83" y="-14"/>
    </contour>
  </outline>
</glyph>
<glyph name="zero" format="1">
  <advance width="518"/>
  <unicode hex="0030"/>
  <outline>
    <contour>
      <point x="253" y="-14" type="curve" smooth="yes"/>
      <point x="411" y="-14"/>
      <point x="478" y="166"/>
      <point x="478" y="316" type="curve" smooth="yes"/>
      <point x="478" y="461"/>
      <point x="409" y="630"/>
      <point x="264" y="630" type="curve" smooth="yes"/>
      <point x="106" y="630"/>
      <point x="40" y="454"/>
      <point x="40" y="302" type="curve" smooth="yes"/>
      <point x="40" y="154"/>
      <point x="108" y="-14"/>
    </contour>
    <contour>
      <point x="273" y="17" type="curve" smooth="yes"/>
      <point x="164" y="17"/>
      <point x="110" y="173"/>
      <point x="110" y="320" type="curve" smooth="yes"/>
      <point x="110" y="467"/>
      <point x="144" y="597"/>
      <point x="242" y="597" type="curve" smooth="yes"/>
      <point x="351" y="597"/>
      <point x="408" y="445"/>
      <point x="408" y="298" type="curve" smooth="yes"/>
      <point x="408" y="151"/>
      <point x="370" y="17"/>
    </contour>
  </outline>
</glyph>
<glyph name="one" format="1">
  <advance width="518"/>
  <unicode hex="0031"/>
  <outline>
    <contour>
      <point x="121" y="-3" type="curve" smooth="yes"/>
      <point x="169" y="-3"/>
      <point x="222" y="2"/>
      <point x="274" y="2" type="curve" smooth="yes"/>
      <point x="325" y="2"/>
      <point x="374" y="-3"/>
      <point x="424" y="-3" type="curve" smooth="yes"/>
      <point x="436" y="-3"/>
      <point x="442" y="2"/>
      <point x="442" y="8" type="curve" smooth="yes"/>
      <point x="442" y="13"/>
      <point x="435" y="18"/>
      <point x="421" y="21" type="curve" smooth="yes"/>
      <point x="330" y="33"/>
      <point x="306" y="37"/>
      <point x="306" y="105" type="curve" smooth="yes"/>
      <point x="306" y="557" type="line" smooth="yes"/>
      <point x="306" y="585"/>
      <point x="308" y="606"/>
      <point x="310" y="625" type="curve" smooth="yes"/>
      <point x="311" y="632"/>
      <point x="305" y="637"/>
      <point x="296" y="637" type="curve" smooth="yes"/>
      <point x="291" y="637"/>
      <point x="285" y="635"/>
      <point x="272" y="617" type="curve" smooth="yes"/>
      <point x="247" y="585"/>
      <point x="215" y="571"/>
      <point x="141" y="568" type="curve" smooth="yes"/>
      <point x="127" y="567"/>
      <point x="117" y="562"/>
      <point x="117" y="554" type="curve" smooth="yes"/>
      <point x="117" y="545"/>
      <point x="130" y="541"/>
      <point x="143" y="541" type="curve" smooth="yes"/>
      <point x="216" y="538"/>
      <point x="240" y="530"/>
      <point x="240" y="477" type="curve" smooth="yes"/>
      <point x="240" y="109" type="line" smooth="yes"/>
      <point x="240" y="38"/>
      <point x="206" y="31"/>
      <point x="122" y="21" type="curve" smooth="yes"/>
      <point x="109" y="19"/>
      <point x="102" y="14"/>
      <point x="102" y="9" type="curve" smooth="yes"/>
      <point x="102" y="3"/>
      <point x="107" y="-3"/>
    </contour>
  </outline>
</glyph>
<glyph name="two" format="1">
  <advance width="518"/>
  <unicode hex="0032"/>
  <outline>
    <contour>
      <point x="456" y="-3" type="curve" smooth="yes"/>
      <point x="464" y="-3"/>
      <point x="476" y="0"/>
      <point x="481" y="21" type="curve" smooth="yes"/>
      <point x="492" y="71"/>
      <point x="513" y="131"/>
      <point x="513" y="142" type="curve" smooth="yes"/>
      <point x="513" y="147"/>
      <point x="512" y="157"/>
      <point x="504" y="157" type="curve" smooth="yes"/>
      <point x="494" y="157"/>
      <point x="489" y="146"/>
      <point x="485" y="135" type="curve" smooth="yes"/>
      <point x="466" y="83"/>
      <point x="449" y="65"/>
      <point x="389" y="63" type="curve" smooth="yes"/>
      <point x="329" y="62"/>
      <point x="291" y="61"/>
      <point x="251" y="61" type="curve" smooth="yes"/>
      <point x="210" y="61"/>
      <point x="169" y="61"/>
      <point x="144" y="64" type="curve" smooth="yes"/>
      <point x="135" y="65"/>
      <point x="129" y="66"/>
      <point x="129" y="71" type="curve" smooth="yes"/>
      <point x="152" y="95"/>
      <point x="263" y="191"/>
      <point x="313" y="240" type="curve" smooth="yes"/>
      <point x="389" y="312"/>
      <point x="443" y="393"/>
      <point x="443" y="477" type="curve" smooth="yes"/>
      <point x="443" y="561"/>
      <point x="379" y="630"/>
      <point x="271" y="630" type="curve" smooth="yes"/>
      <point x="146" y="630"/>
      <point x="75" y="537"/>
      <point x="64" y="492" type="curve" smooth="yes"/>
      <point x="63" y="482"/>
      <point x="66" y="467"/>
      <point x="73" y="467" type="curve" smooth="yes"/>
      <point x="81" y="467"/>
      <point x="86" y="476"/>
      <point x="91" y="482" type="curve" smooth="yes"/>
      <point x="127" y="534"/>
      <point x="180" y="566"/>
      <point x="245" y="566" type="curve" smooth="yes"/>
      <point x="321" y="566"/>
      <point x="370" y="519"/>
      <point x="370" y="449" type="curve" smooth="yes"/>
      <point x="370" y="362"/>
      <point x="309" y="267"/>
      <point x="223" y="191" type="curve" smooth="yes"/>
      <point x="37" y="28" type="line" smooth="yes"/>
      <point x="31" y="22"/>
      <point x="28" y="21"/>
      <point x="28" y="15" type="curve" smooth="yes"/>
      <point x="28" y="9"/>
      <point x="45" y="-2"/>
      <point x="51" y="-2" type="curve" smooth="yes"/>
      <point x="73" y="-2"/>
      <point x="248" y="3"/>
      <point x="303" y="3" type="curve" smooth="yes"/>
      <point x="359" y="3"/>
      <point x="434" y="-3"/>
    </contour>
  </outline>
</glyph>
<glyph name="three" format="1">
  <advance width="518"/>
  <unicode hex="0033"/>
  <outline>
    <contour>
      <point x="169" y="-38" type="curve" smooth="yes"/>
      <point x="318" y="-38"/>
      <point x="473" y="50"/>
      <point x="473" y="198" type="curve" smooth="yes"/>
      <point x="473" y="285"/>
      <point x="396" y="354"/>
      <point x="307" y="355" type="curve" smooth="yes"/>
      <point x="302" y="355"/>
      <point x="302" y="359"/>
      <point x="306" y="361" type="curve"/>
      <point x="389" y="405"/>
      <point x="421" y="463"/>
      <point x="421" y="512" type="curve" smooth="yes"/>
      <point x="421" y="582"/>
      <point x="352" y="630"/>
      <point x="276" y="630" type="curve" smooth="yes"/>
      <point x="132" y="630"/>
      <point x="67" y="535"/>
      <point x="67" y="500" type="curve" smooth="yes"/>
      <point x="67" y="490"/>
      <point x="73" y="477"/>
      <point x="87" y="477" type="curve" smooth="yes"/>
      <point x="99" y="477"/>
      <point x="121" y="570"/>
      <point x="240" y="570" type="curve" smooth="yes"/>
      <point x="308" y="570"/>
      <point x="351" y="531"/>
      <point x="351" y="473" type="curve" smooth="yes"/>
      <point x="351" y="394"/>
      <point x="249" y="345"/>
      <point x="205" y="330" type="curve" smooth="yes"/>
      <point x="185" y="325"/>
      <point x="170" y="316"/>
      <point x="166" y="297" type="curve" smooth="yes"/>
      <point x="164" y="288"/>
      <point x="176" y="282"/>
      <point x="188" y="288" type="curve" smooth="yes"/>
      <point x="213" y="301"/>
      <point x="247" y="304"/>
      <point x="264" y="304" type="curve" smooth="yes"/>
      <point x="357" y="304"/>
      <point x="401" y="226"/>
      <point x="401" y="150" type="curve" smooth="yes"/>
      <point x="401" y="67"/>
      <point x="326" y="-2"/>
      <point x="229" y="-2" type="curve" smooth="yes"/>
      <point x="185" y="-2"/>
      <point x="159" y="19"/>
      <point x="139" y="35" type="curve" smooth="yes"/>
      <point x="124" y="46"/>
      <point x="112" y="57"/>
      <point x="95" y="57" type="curve" smooth="yes"/>
      <point x="77" y="58"/>
      <point x="47" y="26"/>
      <point x="47" y="11" type="curve" smooth="yes"/>
      <point x="47" y="-14"/>
      <point x="117" y="-38"/>
    </contour>
  </outline>
</glyph>
<glyph name="four" format="1">
  <advance width="518"/>
  <unicode hex="0034"/>
  <outline>
    <contour>
      <point x="254" y="-4" type="curve" smooth="yes"/>
      <point x="308" y="-4"/>
      <point x="320" y="3"/>
      <point x="369" y="3" type="curve" smooth="yes"/>
      <point x="416" y="3"/>
      <point x="427" y="-4"/>
      <point x="481" y="-4" type="curve" smooth="yes"/>
      <point x="492" y="-4"/>
      <point x="500" y="2"/>
      <point x="500" y="8" type="curve" smooth="yes"/>
      <point x="500" y="15"/>
      <point x="489" y="20"/>
      <point x="477" y="22" type="curve" smooth="yes"/>
      <point x="420" y="28"/>
      <point x="401" y="41"/>
      <point x="401" y="74" type="curve" smooth="yes"/>
      <point x="401" y="179" type="line" smooth="yes"/>
      <point x="401" y="180"/>
      <point x="410" y="184"/>
      <point x="416" y="185" type="curve"/>
      <point x="425" y="186"/>
      <point x="437" y="187"/>
      <point x="451" y="187" type="curve" smooth="yes"/>
      <point x="469" y="187"/>
      <point x="489" y="186"/>
      <point x="506" y="186" type="curve" smooth="yes"/>
      <point x="511" y="186"/>
      <point x="530" y="204"/>
      <point x="530" y="220" type="curve" smooth="yes"/>
      <point x="530" y="227"/>
      <point x="524" y="231"/>
      <point x="518" y="231" type="curve"/>
      <point x="493" y="230"/>
      <point x="472" y="229"/>
      <point x="451" y="229" type="curve" smooth="yes"/>
      <point x="437" y="229"/>
      <point x="423" y="229"/>
      <point x="406" y="230" type="curve"/>
      <point x="403" y="230"/>
      <point x="401" y="233"/>
      <point x="401" y="236" type="curve" smooth="yes"/>
      <point x="401" y="360" type="line" smooth="yes"/>
      <point x="401" y="402"/>
      <point x="401" y="424"/>
      <point x="387" y="424" type="curve" smooth="yes"/>
      <point x="380" y="424"/>
      <point x="357" y="422"/>
      <point x="340" y="411" type="curve"/>
      <point x="334" y="407"/>
      <point x="333" y="403"/>
      <point x="333" y="389" type="curve" smooth="yes"/>
      <point x="333" y="238" type="line" smooth="yes"/>
      <point x="333" y="234"/>
      <point x="326" y="230"/>
      <point x="321" y="230" type="curve" smooth="yes"/>
      <point x="103" y="230" type="line" smooth="yes"/>
      <point x="98" y="230"/>
      <point x="100" y="236"/>
      <point x="103" y="239" type="curve" smooth="yes"/>
      <point x="405" y="630" type="line"/>
      <point x="407" y="633"/>
      <point x="412" y="642"/>
      <point x="405" y="642" type="curve" smooth="yes"/>
      <point x="383" y="642" type="line" smooth="yes"/>
      <point x="375" y="642"/>
      <point x="365" y="630"/>
      <point x="356" y="618" type="curve" smooth="yes"/>
      <point x="60" y="235" type="line" smooth="yes"/>
      <point x="46" y="217"/>
      <point x="40" y="210"/>
      <point x="21" y="189" type="curve" smooth="yes"/>
      <point x="20" y="188"/>
      <point x="20" y="187"/>
      <point x="20" y="186" type="curve" smooth="yes"/>
      <point x="20" y="182"/>
      <point x="25" y="176"/>
      <point x="31" y="176" type="curve" smooth="yes"/>
      <point x="135" y="176"/>
      <point x="213" y="183"/>
      <point x="317" y="183" type="curve" smooth="yes"/>
      <point x="320" y="183"/>
      <point x="333" y="180"/>
      <point x="333" y="173" type="curve" smooth="yes"/>
      <point x="333" y="70" type="line" smooth="yes"/>
      <point x="333" y="38"/>
      <point x="320" y="26"/>
      <point x="256" y="22" type="curve" smooth="yes"/>
      <point x="243" y="21"/>
      <point x="233" y="17"/>
      <point x="233" y="9" type="curve" smooth="yes"/>
      <point x="233" y="1"/>
      <point x="244" y="-4"/>
    </contour>
  </outline>
</glyph>
<glyph name="five" format="1">
  <advance width="518"/>
  <unicode hex="0035"/>
  <outline>
    <contour>
      <point x="113" y="-38" type="curve" smooth="yes"/>
      <point x="196" y="-38"/>
      <point x="270" y="-19"/>
      <point x="329" y="13" type="curve" smooth="yes"/>
      <point x="408" y="55"/>
      <point x="458" y="121"/>
      <point x="458" y="194" type="curve" smooth="yes"/>
      <point x="458" y="272"/>
      <point x="417" y="320"/>
      <point x="335" y="358" type="curve" smooth="yes"/>
      <point x="283" y="382"/>
      <point x="203" y="405"/>
      <point x="131" y="422" type="curve" smooth="yes"/>
      <point x="119" y="425"/>
      <point x="116" y="431"/>
      <point x="118" y="440" type="curve" smooth="yes"/>
      <point x="119" y="456"/>
      <point x="148" y="525"/>
      <point x="163" y="527" type="curve" smooth="yes"/>
      <point x="196" y="532"/>
      <point x="308" y="539"/>
      <point x="364" y="545" type="curve" smooth="yes"/>
      <point x="382" y="547"/>
      <point x="394" y="557"/>
      <point x="404" y="577" type="curve" smooth="yes"/>
      <point x="410" y="587"/>
      <point x="417" y="599"/>
      <point x="423" y="610" type="curve" smooth="yes"/>
      <point x="429" y="619"/>
      <point x="422" y="628"/>
      <point x="411" y="627" type="curve" smooth="yes"/>
      <point x="323" y="620"/>
      <point x="246" y="608"/>
      <point x="177" y="592" type="curve" smooth="yes"/>
      <point x="154" y="587"/>
      <point x="139" y="576"/>
      <point x="131" y="556" type="curve" smooth="yes"/>
      <point x="115" y="512"/>
      <point x="78" y="439"/>
      <point x="78" y="403" type="curve" smooth="yes"/>
      <point x="78" y="385"/>
      <point x="84" y="373"/>
      <point x="104" y="359" type="curve"/>
      <point x="310" y="320"/>
      <point x="391" y="265"/>
      <point x="391" y="186" type="curve" smooth="yes"/>
      <point x="391" y="85"/>
      <point x="320" y="1"/>
      <point x="112" y="-8" type="curve" smooth="yes"/>
      <point x="94" y="-9"/>
      <point x="71" y="-17"/>
      <point x="71" y="-25" type="curve" smooth="yes"/>
      <point x="71" y="-33"/>
      <point x="94" y="-38"/>
    </contour>
  </outline>
</glyph>
<glyph name="six" format="1">
  <advance width="518"/>
  <unicode hex="0036"/>
  <outline>
    <contour>
      <point x="268" y="-16" type="curve" smooth="yes"/>
      <point x="375" y="-16"/>
      <point x="487" y="63"/>
      <point x="487" y="187" type="curve" smooth="yes"/>
      <point x="487" y="262"/>
      <point x="420" y="313"/>
      <point x="345" y="313" type="curve" smooth="yes"/>
      <point x="313" y="313"/>
      <point x="273" y="299"/>
      <point x="247" y="284" type="curve" smooth="yes"/>
      <point x="233" y="276"/>
      <point x="221" y="268"/>
      <point x="210" y="258" type="curve" smooth="yes"/>
      <point x="198" y="246"/>
      <point x="200" y="232"/>
      <point x="218" y="242" type="curve" smooth="yes"/>
      <point x="245" y="258"/>
      <point x="278" y="267"/>
      <point x="313" y="267" type="curve" smooth="yes"/>
      <point x="376" y="267"/>
      <point x="422" y="210"/>
      <point x="422" y="143" type="curve" smooth="yes"/>
      <point x="422" y="57"/>
      <point x="361" y="18"/>
      <point x="290" y="19" type="curve" smooth="yes"/>
      <point x="215" y="20"/>
      <point x="124" y="80"/>
      <point x="122" y="192" type="curve" smooth="yes"/>
      <point x="120" y="305"/>
      <point x="172" y="419"/>
      <point x="252" y="501" type="curve" smooth="yes"/>
      <point x="305" y="550"/>
      <point x="374" y="586"/>
      <point x="454" y="613" type="curve" smooth="yes"/>
      <point x="463" y="616"/>
      <point x="477" y="621"/>
      <point x="483" y="632" type="curve" smooth="yes"/>
      <point x="484" y="635"/>
      <point x="476" y="646"/>
      <point x="456" y="640" type="curve" smooth="yes"/>
      <point x="364" y="616"/>
      <point x="286" y="575"/>
      <point x="227" y="527" type="curve" smooth="yes"/>
      <point x="123" y="442"/>
      <point x="49" y="324"/>
      <point x="49" y="193" type="curve" smooth="yes"/>
      <point x="49" y="53"/>
      <point x="158" y="-16"/>
    </contour>
  </outline>
</glyph>
<glyph name="seven" format="1">
  <advance width="542"/>
  <unicode hex="0037"/>
  <outline>
    <contour>
      <point x="122" y="-32" type="curve" smooth="yes"/>
      <point x="127" y="-32"/>
      <point x="137" y="-16"/>
      <point x="144" y="-5" type="curve" smooth="yes"/>
      <point x="482" y="538" type="line" smooth="yes"/>
      <point x="493" y="555"/>
      <point x="525" y="592"/>
      <point x="525" y="608" type="curve" smooth="yes"/>
      <point x="525" y="613"/>
      <point x="521" y="621"/>
      <point x="518" y="621" type="curve" smooth="yes"/>
      <point x="497" y="618"/>
      <point x="374" y="616"/>
      <point x="263" y="616" type="curve" smooth="yes"/>
      <point x="210" y="616"/>
      <point x="185" y="617"/>
      <point x="151" y="617" type="curve" smooth="yes"/>
      <point x="104" y="617"/>
      <point x="60" y="626"/>
      <point x="56" y="626" type="curve" smooth="yes"/>
      <point x="53" y="626"/>
      <point x="46" y="624"/>
      <point x="45" y="615" type="curve" smooth="yes"/>
      <point x="42" y="592"/>
      <point x="34" y="550"/>
      <point x="27" y="523" type="curve"/>
      <point x="25" y="518"/>
      <point x="23" y="509"/>
      <point x="23" y="502" type="curve" smooth="yes"/>
      <point x="23" y="497"/>
      <point x="24" y="489"/>
      <point x="28" y="489" type="curve" smooth="yes"/>
      <point x="36" y="489"/>
      <point x="42" y="503"/>
      <point x="46" y="514" type="curve" smooth="yes"/>
      <point x="62" y="552"/>
      <point x="84" y="560"/>
      <point x="113" y="560" type="curve" smooth="yes"/>
      <point x="479" y="560" type="line"/>
      <point x="477" y="583" type="line"/>
      <point x="138" y="46" type="line" smooth="yes"/>
      <point x="126" y="26"/>
      <point x="103" y="-5"/>
      <point x="103" y="-11" type="curve" smooth="yes"/>
      <point x="103" y="-23"/>
      <point x="109" y="-32"/>
    </contour>
  </outline>
</glyph>
<glyph name="eight" format="1">
  <advance width="518"/>
  <unicode hex="0038"/>
  <outline>
    <contour>
      <point x="248" y="-14" type="curve"/>
      <point x="353" y="-14"/>
      <point x="458" y="59"/>
      <point x="458" y="164" type="curve"/>
      <point x="458" y="241"/>
      <point x="404" y="290"/>
      <point x="328" y="335" type="curve" smooth="yes"/>
      <point x="316" y="342"/>
      <point x="315" y="344"/>
      <point x="333" y="356" type="curve"/>
      <point x="357" y="371"/>
      <point x="371" y="380"/>
      <point x="386" y="391" type="curve" smooth="yes"/>
      <point x="412" y="413"/>
      <point x="438" y="444"/>
      <point x="438" y="496" type="curve" smooth="yes"/>
      <point x="438" y="577"/>
      <point x="355" y="630"/>
      <point x="269" y="630" type="curve"/>
      <point x="174" y="630"/>
      <point x="76" y="569"/>
      <point x="76" y="486" type="curve"/>
      <point x="76" y="404"/>
      <point x="130" y="367"/>
      <point x="196" y="317" type="curve"/>
      <point x="205" y="310"/>
      <point x="209" y="309"/>
      <point x="199" y="304" type="curve" smooth="yes"/>
      <point x="147" y="275"/>
      <point x="59" y="231"/>
      <point x="59" y="141" type="curve" smooth="yes"/>
      <point x="59" y="49"/>
      <point x="150" y="-14"/>
    </contour>
    <contour>
      <point x="264" y="18" type="curve"/>
      <point x="178" y="18"/>
      <point x="127" y="89"/>
      <point x="127" y="156" type="curve" smooth="yes"/>
      <point x="127" y="216"/>
      <point x="156" y="249"/>
      <point x="213" y="284" type="curve" smooth="yes"/>
      <point x="219" y="288"/>
      <point x="224" y="290"/>
      <point x="227" y="290" type="curve"/>
      <point x="235" y="290"/>
      <point x="242" y="286"/>
      <point x="252" y="280" type="curve"/>
      <point x="317" y="244"/>
      <point x="390" y="187"/>
      <point x="390" y="126" type="curve" smooth="yes"/>
      <point x="390" y="68"/>
      <point x="336" y="18"/>
    </contour>
    <contour>
      <point x="297" y="361" type="curve"/>
      <point x="292" y="358"/>
      <point x="284" y="361"/>
      <point x="279" y="364" type="curve" smooth="yes"/>
      <point x="197" y="417"/>
      <point x="142" y="438"/>
      <point x="142" y="506" type="curve" smooth="yes"/>
      <point x="142" y="557"/>
      <point x="202" y="598"/>
      <point x="265" y="598" type="curve" smooth="yes"/>
      <point x="336" y="598"/>
      <point x="372" y="554"/>
      <point x="372" y="501" type="curve" smooth="yes"/>
      <point x="372" y="445"/>
      <point x="355" y="397"/>
    </contour>
  </outline>
</glyph>
<glyph name="less" format="1">
  <advance width="560"/>
  <unicode hex="003C"/>
  <outline>
    <contour>
      <point x="490" y="0" type="line" smooth="yes"/>
      <point x="495" y="-2"/>
      <point x="505" y="-3"/>
      <point x="505" y="6" type="curve" smooth="yes"/>
      <point x="505" y="13"/>
      <point x="501" y="35"/>
      <point x="488" y="41" type="curve" smooth="yes"/>
      <point x="113" y="235" type="line"/>
      <point x="110" y="236"/>
      <point x="110" y="238"/>
      <point x="112" y="239" type="curve"/>
      <point x="482" y="430" type="line" smooth="yes"/>
      <point x="496" y="437"/>
      <point x="504" y="458"/>
      <point x="504" y="467" type="curve" smooth="yes"/>
      <point x="504" y="471"/>
      <point x="502" y="474"/>
      <point x="497" y="474" type="curve" smooth="yes"/>
      <point x="497" y="474"/>
      <point x="494" y="473"/>
      <point x="492" y="472" type="curve" smooth="yes"/>
      <point x="78" y="264" type="line" smooth="yes"/>
      <point x="63" y="257"/>
      <point x="54" y="236"/>
      <point x="54" y="229" type="curve" smooth="yes"/>
      <point x="54" y="225"/>
      <point x="71" y="216"/>
      <point x="85" y="210" type="curve" smooth="yes"/>
    </contour>
  </outline>
</glyph>
<glyph name="question" format="1">
  <advance width="424"/>
  <unicode hex="003F"/>
  <outline>
    <contour>
      <point x="148" y="181" type="curve" smooth="yes"/>
      <point x="157" y="181"/>
      <point x="163" y="195"/>
      <point x="164" y="205" type="curve" smooth="yes"/>
      <point x="168" y="240"/>
      <point x="174" y="272"/>
      <point x="211" y="292" type="curve" smooth="yes"/>
      <point x="244" y="312"/>
      <point x="257" y="318"/>
      <point x="302" y="340" type="curve" smooth="yes"/>
      <point x="326" y="353"/>
      <point x="346" y="375"/>
      <point x="346" y="422" type="curve" smooth="yes"/>
      <point x="346" y="472"/>
      <point x="306" y="557"/>
      <point x="243" y="612" type="curve" smooth="yes"/>
      <point x="206" y="644"/>
      <point x="161" y="661"/>
      <point x="124" y="661" type="curve" smooth="yes"/>
      <point x="103" y="661"/>
      <point x="79" y="644"/>
      <point x="79" y="624" type="curve" smooth="yes"/>
      <point x="79" y="596"/>
      <point x="99" y="566"/>
      <point x="124" y="566" type="curve" smooth="yes"/>
      <point x="134" y="566"/>
      <point x="142" y="568"/>
      <point x="149" y="570" type="curve" smooth="yes"/>
      <point x="157" y="571"/>
      <point x="165" y="573"/>
      <point x="174" y="573" type="curve" smooth="yes"/>
      <point x="260" y="572"/>
      <point x="306" y="519"/>
      <point x="306" y="454" type="curve" smooth="yes"/>
      <point x="306" y="425"/>
      <point x="269" y="396"/>
      <point x="231" y="381" type="curve" smooth="yes"/>
      <point x="150" y="345"/>
      <point x="110" y="323"/>
      <point x="110" y="288" type="curve" smooth="yes"/>
      <point x="110" y="249"/>
      <point x="120" y="229"/>
      <point x="126" y="208" type="curve" smooth="yes"/>
      <point x="132" y="192"/>
      <point x="140" y="181"/>
    </contour>
    <contour>
      <point x="160" y="-14" type="curve" smooth="yes"/>
      <point x="193" y="-15"/>
      <point x="221" y="12"/>
      <point x="222" y="44" type="curve" smooth="yes"/>
      <point x="223" y="77"/>
      <point x="197" y="105"/>
      <point x="164" y="106" type="curve" smooth="yes"/>
      <point x="131" y="107"/>
      <point x="103" y="81"/>
      <point x="102" y="48" type="curve" smooth="yes"/>
      <point x="102" y="15"/>
      <point x="128" y="-13"/>
    </contour>
  </outline>
</glyph>
<glyph name="at" format="1">
  <advance width="845"/>
  <unicode hex="0040"/>
  <outline>
    <contour>
      <point x="431" y="-129" type="curve" smooth="yes"/>
      <point x="562" y="-129"/>
      <point x="716" y="-47"/>
      <point x="716" y="-19" type="curve" smooth="yes"/>
      <point x="716" y="-11"/>
      <point x="712" y="-5"/>
      <point x="703" y="-5" type="curve" smooth="yes"/>
      <point x="697" y="-5"/>
      <point x="690" y="-11"/>
      <point x="683" y="-14" type="curve" smooth="yes"/>
      <point x="613" y="-64"/>
      <point x="514" y="-96"/>
      <point x="443" y="-96" type="curve" smooth="yes"/>
      <point x="271" y="-96"/>
      <point x="95" y="6"/>
      <point x="95" y="180" type="curve" smooth="yes"/>
      <point x="95" y="355"/>
      <point x="261" y="458"/>
      <point x="445" y="458" type="curve" smooth="yes"/>
      <point x="622" y="458"/>
      <point x="746" y="349"/>
      <point x="746" y="220" type="curve" smooth="yes"/>
      <point x="746" y="133"/>
      <point x="674" y="83"/>
      <point x="584" y="83" type="curve" smooth="yes"/>
      <point x="562" y="83"/>
      <point x="558" y="96"/>
      <point x="558" y="111" type="curve" smooth="yes"/>
      <point x="558" y="119"/>
      <point x="560" y="128"/>
      <point x="561" y="137" type="curve"/>
      <point x="582" y="262" type="line" smooth="yes"/>
      <point x="585" y="277"/>
      <point x="595" y="315"/>
      <point x="604" y="339" type="curve"/>
      <point x="607" y="343"/>
      <point x="595" y="344"/>
      <point x="591" y="344" type="curve" smooth="yes"/>
      <point x="584" y="344"/>
      <point x="579" y="326"/>
      <point x="561" y="326" type="curve" smooth="yes"/>
      <point x="557" y="326"/>
      <point x="551" y="329"/>
      <point x="535" y="333" type="curve" smooth="yes"/>
      <point x="522" y="337"/>
      <point x="489" y="342"/>
      <point x="466" y="342" type="curve" smooth="yes"/>
      <point x="349" y="342"/>
      <point x="241" y="267"/>
      <point x="241" y="150" type="curve" smooth="yes"/>
      <point x="241" y="83"/>
      <point x="300" y="46"/>
      <point x="375" y="46" type="curve" smooth="yes"/>
      <point x="451" y="46"/>
      <point x="493" y="81"/>
      <point x="504" y="81" type="curve" smooth="yes"/>
      <point x="515" y="81"/>
      <point x="517" y="46"/>
      <point x="563" y="44" type="curve" smooth="yes"/>
      <point x="679" y="44"/>
      <point x="783" y="113"/>
      <point x="783" y="230" type="curve" smooth="yes"/>
      <point x="783" y="371"/>
      <point x="637" y="491"/>
      <point x="468" y="491" type="curve" smooth="yes"/>
      <point x="250" y="491"/>
      <point x="58" y="382"/>
      <point x="58" y="174" type="curve" smooth="yes"/>
      <point x="58" y="-5"/>
      <point x="228" y="-129"/>
    </contour>
    <contour>
      <point x="404" y="75" type="curve" smooth="yes"/>
      <point x="357" y="75"/>
      <point x="302" y="97"/>
      <point x="302" y="167" type="curve" smooth="yes"/>
      <point x="302" y="263"/>
      <point x="375" y="314"/>
      <point x="443" y="314" type="curve" smooth="yes"/>
      <point x="498" y="314"/>
      <point x="529" y="295"/>
      <point x="529" y="257" type="curve" smooth="yes"/>
      <point x="529" y="252"/>
      <point x="529" y="248"/>
      <point x="528" y="243" type="curve"/>
      <point x="511" y="146" type="line" smooth="yes"/>
      <point x="505" y="114"/>
      <point x="492" y="105"/>
      <point x="478" y="97" type="curve" smooth="yes"/>
      <point x="453" y="83"/>
      <point x="433" y="75"/>
    </contour>
  </outline>
</glyph>
<glyph name="A" format="1">
  <advance width="769"/>
  <unicode hex="0041"/>
  <outline>
    <contour>
      <point x="24" y="-5" type="curve" smooth="yes"/>
      <point x="55" y="-5"/>
      <point x="113" y="0"/>
      <point x="161" y="0" type="curve" smooth="yes"/>
      <point x="169" y="0"/>
      <point x="210" y="-1"/>
      <point x="227" y="-1" type="curve" smooth="yes"/>
      <point x="242" y="-1"/>
      <point x="253" y="1"/>
      <point x="253" y="8" type="curve" smooth="yes"/>
      <point x="253" y="16"/>
      <point x="243" y="21"/>
      <point x="223" y="26" type="curve" smooth="yes"/>
      <point x="188" y="32"/>
      <point x="164" y="46"/>
      <point x="164" y="72" type="curve" smooth="yes"/>
      <point x="164" y="95"/>
      <point x="215" y="207"/>
      <point x="225" y="233" type="curve" smooth="yes"/>
      <point x="231" y="247"/>
      <point x="238" y="251"/>
      <point x="245" y="251" type="curve" smooth="yes"/>
      <point x="487" y="251" type="line" smooth="yes"/>
      <point x="507" y="251"/>
      <point x="514" y="250"/>
      <point x="517" y="240" type="curve" smooth="yes"/>
      <point x="534" y="190"/>
      <point x="566" y="101"/>
      <point x="566" y="72" type="curve" smooth="yes"/>
      <point x="566" y="50"/>
      <point x="548" y="34"/>
      <point x="502" y="28" type="curve" smooth="yes"/>
      <point x="481" y="25"/>
      <point x="464" y="19"/>
      <point x="464" y="10" type="curve" smooth="yes"/>
      <point x="464" y="3"/>
      <point x="476" y="0"/>
      <point x="494" y="0" type="curve" smooth="yes"/>
      <point x="519" y="0"/>
      <point x="562" y="1"/>
      <point x="601" y="1" type="curve" smooth="yes"/>
      <point x="647" y="1"/>
      <point x="716" y="-5"/>
      <point x="745" y="-5" type="curve" smooth="yes"/>
      <point x="762" y="-5"/>
      <point x="775" y="-3"/>
      <point x="775" y="4" type="curve" smooth="yes"/>
      <point x="775" y="12"/>
      <point x="764" y="21"/>
      <point x="741" y="25" type="curve" smooth="yes"/>
      <point x="694" y="31"/>
      <point x="661" y="44"/>
      <point x="628" y="125" type="curve" smooth="yes"/>
      <point x="590" y="220"/>
      <point x="496" y="460"/>
      <point x="425" y="660" type="curve" smooth="yes"/>
      <point x="421" y="670"/>
      <point x="420" y="678"/>
      <point x="417" y="684" type="curve"/>
      <point x="416" y="686"/>
      <point x="413" y="686"/>
      <point x="412" y="685" type="curve"/>
      <point x="408" y="679"/>
      <point x="404" y="659"/>
      <point x="392" y="651" type="curve" smooth="yes"/>
      <point x="380" y="643"/>
      <point x="367" y="640"/>
      <point x="355" y="636" type="curve"/>
      <point x="353" y="615"/>
      <point x="347" y="597"/>
      <point x="339" y="578" type="curve" smooth="yes"/>
      <point x="263" y="393"/>
      <point x="215" y="278"/>
      <point x="130" y="107" type="curve" smooth="yes"/>
      <point x="99" y="44"/>
      <point x="67" y="32"/>
      <point x="35" y="26" type="curve" smooth="yes"/>
      <point x="9" y="21"/>
      <point x="-2" y="14"/>
      <point x="-2" y="6" type="curve" smooth="yes"/>
      <point x="-2" y="-1"/>
      <point x="9" y="-5"/>
    </contour>
    <contour>
      <point x="276" y="282" type="line" smooth="yes"/>
      <point x="262" y="282"/>
      <point x="253" y="282"/>
      <point x="253" y="289" type="curve" smooth="yes"/>
      <point x="253" y="291"/>
      <point x="254" y="294"/>
      <point x="255" y="297" type="curve" smooth="yes"/>
      <point x="366" y="560" type="line" smooth="yes"/>
      <point x="372" y="573"/>
      <point x="377" y="581"/>
      <point x="381" y="581" type="curve" smooth="yes"/>
      <point x="388" y="581"/>
      <point x="393" y="572"/>
      <point x="398" y="559" type="curve" smooth="yes"/>
      <point x="493" y="297" type="line"/>
      <point x="494" y="293"/>
      <point x="495" y="289"/>
      <point x="495" y="287" type="curve" smooth="yes"/>
      <point x="495" y="282"/>
      <point x="491" y="282"/>
      <point x="479" y="282" type="curve" smooth="yes"/>
    </contour>
  </outline>
</glyph>
<glyph name="B" format="1">
  <advance width="632"/>
  <unicode hex="0042"/>
  <outline>
    <contour>
      <point x="53" y="-5" type="curve" smooth="yes"/>
      <point x="113" y="-5"/>
      <point x="134" y="0"/>
      <point x="190" y="0" type="curve" smooth="yes"/>
      <point x="233" y="0"/>
      <point x="273" y="-4"/>
      <point x="293" y="-4" type="curve" smooth="yes"/>
      <point x="371" y="-4"/>
      <point x="430" y="9"/>
      <point x="478" y="31" type="curve" smooth="yes"/>
      <point x="526" y="53"/>
      <point x="587" y="89"/>
      <point x="587" y="194" type="curve" smooth="yes"/>
      <point x="587" y="309"/>
      <point x="483" y="348"/>
      <point x="391" y="358" type="curve" smooth="yes"/>
      <point x="385" y="358"/>
      <point x="386" y="364"/>
      <point x="392" y="365" type="curve" smooth="yes"/>
      <point x="434" y="372"/>
      <point x="475" y="385"/>
      <point x="502" y="407" type="curve" smooth="yes"/>
      <point x="527" y="427"/>
      <point x="547" y="461"/>
      <point x="547" y="507" type="curve" smooth="yes"/>
      <point x="547" y="616"/>
      <point x="464" y="658"/>
      <point x="293" y="658" type="curve" smooth="yes"/>
      <point x="231" y="658"/>
      <point x="215" y="653"/>
      <point x="174" y="653" type="curve" smooth="yes"/>
      <point x="130" y="653"/>
      <point x="121" y="654"/>
      <point x="64" y="654" type="curve" smooth="yes"/>
      <point x="45" y="654"/>
      <point x="32" y="650"/>
      <point x="31" y="643" type="curve" smooth="yes"/>
      <point x="31" y="636"/>
      <point x="41" y="630"/>
      <point x="64" y="628" type="curve" smooth="yes"/>
      <point x="116" y="624"/>
      <point x="132" y="611"/>
      <point x="132" y="562" type="curve" smooth="yes"/>
      <point x="132" y="86" type="line" smooth="yes"/>
      <point x="132" y="38"/>
      <point x="111" y="27"/>
      <point x="54" y="20" type="curve" smooth="yes"/>
      <point x="31" y="17"/>
      <point x="21" y="13"/>
      <point x="21" y="5" type="curve" smooth="yes"/>
      <point x="21" y="-1"/>
      <point x="35" y="-5"/>
    </contour>
    <contour>
      <point x="298" y="27" type="curve" smooth="yes"/>
      <point x="233" y="27"/>
      <point x="198" y="44"/>
      <point x="198" y="101" type="curve" smooth="yes"/>
      <point x="198" y="306" type="line" smooth="yes"/>
      <point x="198" y="320"/>
      <point x="216" y="344"/>
      <point x="270" y="344" type="curve" smooth="yes"/>
      <point x="349" y="344"/>
      <point x="403" y="333"/>
      <point x="437" y="315" type="curve" smooth="yes"/>
      <point x="477" y="294"/>
      <point x="507" y="253"/>
      <point x="507" y="185" type="curve" smooth="yes"/>
      <point x="507" y="94"/>
      <point x="422" y="27"/>
    </contour>
    <contour>
      <point x="258" y="372" type="curve" smooth="yes"/>
      <point x="237" y="372"/>
      <point x="198" y="374"/>
      <point x="198" y="409" type="curve" smooth="yes"/>
      <point x="198" y="583" type="line" smooth="yes"/>
      <point x="198" y="614"/>
      <point x="213" y="629"/>
      <point x="284" y="629" type="curve" smooth="yes"/>
      <point x="444" y="629"/>
      <point x="474" y="556"/>
      <point x="474" y="496" type="curve" smooth="yes"/>
      <point x="474" y="440"/>
      <point x="443" y="410"/>
      <point x="419" y="397" type="curve" smooth="yes"/>
      <point x="374" y="377"/>
      <point x="318" y="372"/>
    </contour>
  </outline>
</glyph>
<glyph name="C" format="1">
  <advance width="779"/>
  <unicode hex="0043"/>
  <outline>
    <contour>
      <point x="440" y="-15" type="curve" smooth="yes"/>
      <point x="513" y="-15"/>
      <point x="599" y="-6"/>
      <point x="654" y="14" type="curve" smooth="yes"/>
      <point x="677" y="21"/>
      <point x="679" y="22"/>
      <point x="690" y="42" type="curve" smooth="yes"/>
      <point x="703" y="73"/>
      <point x="716" y="129"/>
      <point x="717" y="146" type="curve" smooth="yes"/>
      <point x="717" y="171"/>
      <point x="689" y="174"/>
      <point x="677" y="151" type="curve" smooth="yes"/>
      <point x="631" y="58"/>
      <point x="577" y="18"/>
      <point x="452" y="18" type="curve" smooth="yes"/>
      <point x="257" y="18"/>
      <point x="137" y="184"/>
      <point x="137" y="346" type="curve" smooth="yes"/>
      <point x="137" y="492"/>
      <point x="265" y="629"/>
      <point x="444" y="629" type="curve" smooth="yes"/>
      <point x="530" y="629"/>
      <point x="580" y="613"/>
      <point x="613" y="589" type="curve" smooth="yes"/>
      <point x="646" y="564"/>
      <point x="660" y="531"/>
      <point x="675" y="482" type="curve" smooth="yes"/>
      <point x="683" y="455"/>
      <point x="713" y="466"/>
      <point x="712" y="483" type="curve" smooth="yes"/>
      <point x="709" y="535"/>
      <point x="704" y="572"/>
      <point x="701" y="603" type="curve" smooth="yes"/>
      <point x="699" y="621"/>
      <point x="690" y="632"/>
      <point x="668" y="637" type="curve" smooth="yes"/>
      <point x="593" y="655"/>
      <point x="554" y="663"/>
      <point x="468" y="663" type="curve" smooth="yes"/>
      <point x="247" y="663"/>
      <point x="52" y="517"/>
      <point x="52" y="323" type="curve" smooth="yes"/>
      <point x="52" y="119"/>
      <point x="240" y="-15"/>
    </contour>
  </outline>
</glyph>
<glyph name="D" format="1">
  <advance width="822"/>
  <unicode hex="0044"/>
  <outline>
    <contour>
      <point x="404" y="-7" type="curve" smooth="yes"/>
      <point x="612" y="-7"/>
      <point x="783" y="150"/>
      <point x="783" y="342" type="curve" smooth="yes"/>
      <point x="783" y="514"/>
      <point x="664" y="659"/>
      <point x="371" y="659" type="curve" smooth="yes"/>
      <point x="342" y="659"/>
      <point x="232" y="651"/>
      <point x="185" y="651" type="curve" smooth="yes"/>
      <point x="133" y="651"/>
      <point x="120" y="653"/>
      <point x="64" y="653" type="curve" smooth="yes"/>
      <point x="46" y="653"/>
      <point x="33" y="650"/>
      <point x="33" y="642" type="curve" smooth="yes"/>
      <point x="33" y="633"/>
      <point x="43" y="630"/>
      <point x="67" y="627" type="curve" smooth="yes"/>
      <point x="126" y="621"/>
      <point x="137" y="608"/>
      <point x="137" y="564" type="curve" smooth="yes"/>
      <point x="137" y="108" type="line" smooth="yes"/>
      <point x="137" y="43"/>
      <point x="123" y="29"/>
      <point x="67" y="22" type="curve" smooth="yes"/>
      <point x="43" y="18"/>
      <point x="33" y="18"/>
      <point x="33" y="7" type="curve" smooth="yes"/>
      <point x="33" y="-3"/>
      <point x="46" y="-5"/>
      <point x="64" y="-5" type="curve" smooth="yes"/>
      <point x="122" y="-5"/>
      <point x="135" y="0"/>
      <point x="178" y="0" type="curve" smooth="yes"/>
      <point x="264" y="0"/>
      <point x="383" y="-7"/>
    </contour>
    <contour>
      <point x="385" y="28" type="curve" smooth="yes"/>
      <point x="282" y="28"/>
      <point x="206" y="42"/>
      <point x="206" y="121" type="curve" smooth="yes"/>
      <point x="206" y="555" type="line" smooth="yes"/>
      <point x="206" y="625"/>
      <point x="254" y="628"/>
      <point x="368" y="628" type="curve" smooth="yes"/>
      <point x="537" y="628"/>
      <point x="702" y="519"/>
      <point x="702" y="325" type="curve" smooth="yes"/>
      <point x="702" y="151"/>
      <point x="572" y="28"/>
    </contour>
  </outline>
</glyph>
<glyph name="E" format="1">
  <advance width="622"/>
  <unicode hex="0045"/>
  <outline>
    <contour>
      <point x="74" y="-5" type="curve" smooth="yes"/>
      <point x="133" y="-5"/>
      <point x="144" y="1"/>
      <point x="200" y="1" type="curve" smooth="yes"/>
      <point x="311" y="1"/>
      <point x="407" y="-5"/>
      <point x="548" y="-5" type="curve" smooth="yes"/>
      <point x="557" y="-5"/>
      <point x="559" y="3"/>
      <point x="563" y="12" type="curve" smooth="yes"/>
      <point x="575" y="39"/>
      <point x="594" y="123"/>
      <point x="594" y="141" type="curve" smooth="yes"/>
      <point x="594" y="149"/>
      <point x="591" y="154"/>
      <point x="581" y="156" type="curve" smooth="yes"/>
      <point x="572" y="157"/>
      <point x="565" y="148"/>
      <point x="561" y="139" type="curve" smooth="yes"/>
      <point x="541" y="94"/>
      <point x="527" y="66"/>
      <point x="506" y="50" type="curve" smooth="yes"/>
      <point x="486" y="35"/>
      <point x="460" y="31"/>
      <point x="418" y="31" type="curve" smooth="yes"/>
      <point x="290" y="31" type="line" smooth="yes"/>
      <point x="244" y="31"/>
      <point x="223" y="47"/>
      <point x="223" y="98" type="curve" smooth="yes"/>
      <point x="223" y="294" type="line" smooth="yes"/>
      <point x="223" y="317"/>
      <point x="234" y="320"/>
      <point x="258" y="320" type="curve" smooth="yes"/>
      <point x="391" y="320" type="line" smooth="yes"/>
      <point x="418" y="320"/>
      <point x="428" y="302"/>
      <point x="436" y="271" type="curve" smooth="yes"/>
      <point x="441" y="249"/>
      <point x="450" y="238"/>
      <point x="462" y="238" type="curve" smooth="yes"/>
      <point x="472" y="238"/>
      <point x="472" y="247"/>
      <point x="472" y="256" type="curve" smooth="yes"/>
      <point x="472" y="264"/>
      <point x="470" y="317"/>
      <point x="470" y="337" type="curve" smooth="yes"/>
      <point x="470" y="353"/>
      <point x="473" y="402"/>
      <point x="473" y="411" type="curve" smooth="yes"/>
      <point x="473" y="421"/>
      <point x="466" y="428"/>
      <point x="458" y="428" type="curve" smooth="yes"/>
      <point x="449" y="428"/>
      <point x="444" y="420"/>
      <point x="439" y="405" type="curve" smooth="yes"/>
      <point x="429" y="371"/>
      <point x="419" y="352"/>
      <point x="386" y="352" type="curve" smooth="yes"/>
      <point x="241" y="352" type="line" smooth="yes"/>
      <point x="231" y="352"/>
      <point x="223" y="362"/>
      <point x="223" y="374" type="curve" smooth="yes"/>
      <point x="223" y="590" type="line" smooth="yes"/>
      <point x="223" y="609"/>
      <point x="241" y="619"/>
      <point x="262" y="619" type="curve" smooth="yes"/>
      <point x="443" y="619" type="line" smooth="yes"/>
      <point x="470" y="619"/>
      <point x="487" y="611"/>
      <point x="503" y="586" type="curve" smooth="yes"/>
      <point x="511" y="574"/>
      <point x="520" y="548"/>
      <point x="527" y="528" type="curve" smooth="yes"/>
      <point x="531" y="517"/>
      <point x="536" y="512"/>
      <point x="544" y="512" type="curve" smooth="yes"/>
      <point x="552" y="512"/>
      <point x="558" y="517"/>
      <point x="558" y="529" type="curve" smooth="yes"/>
      <point x="558" y="556"/>
      <point x="550" y="606"/>
      <point x="543" y="641" type="curve"/>
      <point x="541" y="650"/>
      <point x="531" y="653"/>
      <point x="522" y="653" type="curve" smooth="yes"/>
      <point x="517" y="653"/>
      <point x="477" y="652"/>
      <point x="427" y="651" type="curve" smooth="yes"/>
      <point x="381" y="651"/>
      <point x="325" y="650"/>
      <point x="277" y="650" type="curve" smooth="yes"/>
      <point x="200" y="650"/>
      <point x="164" y="653"/>
      <point x="82" y="653" type="curve" smooth="yes"/>
      <point x="63" y="653"/>
      <point x="50" y="649"/>
      <point x="49" y="642" type="curve" smooth="yes"/>
      <point x="49" y="633"/>
      <point x="59" y="627"/>
      <point x="84" y="624" type="curve" smooth="yes"/>
      <point x="137" y="617"/>
      <point x="155" y="606"/>
      <point x="155" y="573" type="curve" smooth="yes"/>
      <point x="155" y="89" type="line" smooth="yes"/>
      <point x="155" y="43"/>
      <point x="135" y="31"/>
      <point x="77" y="23" type="curve" smooth="yes"/>
      <point x="52" y="20"/>
      <point x="42" y="14"/>
      <point x="42" y="6" type="curve" smooth="yes"/>
      <point x="42" y="-2"/>
      <point x="55" y="-5"/>
    </contour>
  </outline>
</glyph>
<glyph name="F" format="1">
  <advance width="567"/>
  <unicode hex="0046"/>
  <outline>
    <contour>
      <point x="71" y="-5" type="curve" smooth="yes"/>
      <point x="125" y="-5"/>
      <point x="148" y="0"/>
      <point x="196" y="2" type="curve" smooth="yes"/>
      <point x="235" y="0"/>
      <point x="244" y="-5"/>
      <point x="298" y="-5" type="curve" smooth="yes"/>
      <point x="315" y="-5"/>
      <point x="328" y="-2"/>
      <point x="328" y="6" type="curve" smooth="yes"/>
      <point x="328" y="15"/>
      <point x="317" y="21"/>
      <point x="292" y="24" type="curve" smooth="yes"/>
      <point x="237" y="31"/>
      <point x="221" y="48"/>
      <point x="220" y="83" type="curve" smooth="yes"/>
      <point x="217" y="174"/>
      <point x="217" y="231"/>
      <point x="217" y="293" type="curve" smooth="yes"/>
      <point x="217" y="310"/>
      <point x="228" y="317"/>
      <point x="243" y="318" type="curve" smooth="yes"/>
      <point x="269" y="319"/>
      <point x="296" y="320"/>
      <point x="324" y="320" type="curve" smooth="yes"/>
      <point x="345" y="320"/>
      <point x="374" y="319"/>
      <point x="394" y="319" type="curve" smooth="yes"/>
      <point x="413" y="319"/>
      <point x="424" y="308"/>
      <point x="435" y="273" type="curve" smooth="yes"/>
      <point x="439" y="259"/>
      <point x="448" y="246"/>
      <point x="462" y="246" type="curve" smooth="yes"/>
      <point x="471" y="246"/>
      <point x="473" y="255"/>
      <point x="473" y="264" type="curve" smooth="yes"/>
      <point x="472" y="290"/>
      <point x="470" y="319"/>
      <point x="470" y="338" type="curve" smooth="yes"/>
      <point x="470" y="354"/>
      <point x="471" y="381"/>
      <point x="473" y="402" type="curve" smooth="yes"/>
      <point x="474" y="412"/>
      <point x="467" y="420"/>
      <point x="458" y="420" type="curve" smooth="yes"/>
      <point x="450" y="420"/>
      <point x="441" y="407"/>
      <point x="438" y="397" type="curve" smooth="yes"/>
      <point x="427" y="368"/>
      <point x="415" y="352"/>
      <point x="389" y="352" type="curve" smooth="yes"/>
      <point x="344" y="352"/>
      <point x="282" y="350"/>
      <point x="228" y="350" type="curve" smooth="yes"/>
      <point x="219" y="350"/>
      <point x="217" y="361"/>
      <point x="217" y="372" type="curve"/>
      <point x="216" y="397"/>
      <point x="216" y="429"/>
      <point x="216" y="463" type="curve" smooth="yes"/>
      <point x="216" y="498"/>
      <point x="216" y="543"/>
      <point x="217" y="569" type="curve" smooth="yes"/>
      <point x="218" y="597"/>
      <point x="222" y="619"/>
      <point x="253" y="619" type="curve" smooth="yes"/>
      <point x="423" y="619" type="line" smooth="yes"/>
      <point x="456" y="619"/>
      <point x="473" y="610"/>
      <point x="487" y="590" type="curve" smooth="yes"/>
      <point x="495" y="578"/>
      <point x="502" y="557"/>
      <point x="509" y="534" type="curve" smooth="yes"/>
      <point x="511" y="524"/>
      <point x="517" y="519"/>
      <point x="527" y="519" type="curve" smooth="yes"/>
      <point x="534" y="519"/>
      <point x="538" y="528"/>
      <point x="538" y="540" type="curve" smooth="yes"/>
      <point x="538" y="556"/>
      <point x="535" y="625"/>
      <point x="531" y="650" type="curve" smooth="yes"/>
      <point x="530" y="657"/>
      <point x="519" y="659"/>
      <point x="511" y="659" type="curve" smooth="yes"/>
      <point x="489" y="659"/>
      <point x="452" y="650"/>
      <point x="404" y="650" type="curve"/>
      <point x="359" y="650"/>
      <point x="298" y="650"/>
      <point x="253" y="650" type="curve" smooth="yes"/>
      <point x="184" y="650"/>
      <point x="149" y="653"/>
      <point x="81" y="653" type="curve" smooth="yes"/>
      <point x="62" y="653"/>
      <point x="49" y="650"/>
      <point x="48" y="643" type="curve" smooth="yes"/>
      <point x="48" y="634"/>
      <point x="59" y="627"/>
      <point x="83" y="624" type="curve" smooth="yes"/>
      <point x="136" y="617"/>
      <point x="149" y="601"/>
      <point x="149" y="558" type="curve" smooth="yes"/>
      <point x="149" y="82" type="line" smooth="yes"/>
      <point x="149" y="42"/>
      <point x="129" y="30"/>
      <point x="77" y="23" type="curve" smooth="yes"/>
      <point x="52" y="20"/>
      <point x="42" y="15"/>
      <point x="42" y="6" type="curve" smooth="yes"/>
      <point x="42" y="-2"/>
      <point x="54" y="-5"/>
    </contour>
  </outline>
</glyph>
<glyph name="G" format="1">
  <advance width="808"/>
  <unicode hex="0047"/>
  <outline>
    <contour>
      <point x="434" y="-14" type="curve" smooth="yes"/>
      <point x="574" y="-14"/>
      <point x="675" y="50"/>
      <point x="697" y="53" type="curve" smooth="yes"/>
      <point x="712" y="55"/>
      <point x="712" y="67"/>
      <point x="712" y="72" type="curve" smooth="yes"/>
      <point x="712" y="77"/>
      <point x="702" y="82"/>
      <point x="697" y="89" type="curve"/>
      <point x="694" y="95"/>
      <point x="690" y="98"/>
      <point x="690" y="105" type="curve" smooth="yes"/>
      <point x="690" y="132" type="line" smooth="yes"/>
      <point x="690" y="158"/>
      <point x="694" y="192"/>
      <point x="698" y="215" type="curve" smooth="yes"/>
      <point x="702" y="243"/>
      <point x="712" y="259"/>
      <point x="743" y="262" type="curve" smooth="yes"/>
      <point x="750" y="263"/>
      <point x="767" y="272"/>
      <point x="767" y="278" type="curve" smooth="yes"/>
      <point x="767" y="288"/>
      <point x="750" y="290"/>
      <point x="745" y="290" type="curve" smooth="yes"/>
      <point x="708" y="290"/>
      <point x="690" y="286"/>
      <point x="655" y="286" type="curve" smooth="yes"/>
      <point x="599" y="286"/>
      <point x="577" y="290"/>
      <point x="527" y="290" type="curve" smooth="yes"/>
      <point x="520" y="290"/>
      <point x="503" y="285"/>
      <point x="503" y="276" type="curve" smooth="yes"/>
      <point x="503" y="266"/>
      <point x="521" y="260"/>
      <point x="527" y="260" type="curve" smooth="yes"/>
      <point x="548" y="260"/>
      <point x="607" y="254"/>
      <point x="625" y="244" type="curve" smooth="yes"/>
      <point x="632" y="241"/>
      <point x="635" y="228"/>
      <point x="635" y="206" type="curve" smooth="yes"/>
      <point x="635" y="174"/>
      <point x="633" y="155"/>
      <point x="633" y="139" type="curve" smooth="yes"/>
      <point x="633" y="103"/>
      <point x="617" y="75"/>
      <point x="600" y="59" type="curve" smooth="yes"/>
      <point x="586" y="46"/>
      <point x="545" y="21"/>
      <point x="449" y="21" type="curve" smooth="yes"/>
      <point x="290" y="21"/>
      <point x="135" y="133"/>
      <point x="135" y="324" type="curve" smooth="yes"/>
      <point x="135" y="483"/>
      <point x="258" y="627"/>
      <point x="441" y="627" type="curve" smooth="yes"/>
      <point x="551" y="627"/>
      <point x="610" y="589"/>
      <point x="629" y="569" type="curve" smooth="yes"/>
      <point x="645" y="550"/>
      <point x="651" y="527"/>
      <point x="658" y="505" type="curve" smooth="yes"/>
      <point x="662" y="492"/>
      <point x="667" y="475"/>
      <point x="680" y="475" type="curve" smooth="yes"/>
      <point x="692" y="475"/>
      <point x="698" y="485"/>
      <point x="698" y="495" type="curve" smooth="yes"/>
      <point x="698" y="524"/>
      <point x="693" y="575"/>
      <point x="687" y="618" type="curve" smooth="yes"/>
      <point x="686" y="625"/>
      <point x="684" y="627"/>
      <point x="677" y="630" type="curve" smooth="yes"/>
      <point x="646" y="643"/>
      <point x="503" y="663"/>
      <point x="451" y="663" type="curve" smooth="yes"/>
      <point x="235" y="663"/>
      <point x="51" y="509"/>
      <point x="51" y="311" type="curve" smooth="yes"/>
      <point x="51" y="126"/>
      <point x="230" y="-14"/>
    </contour>
  </outline>
</glyph>
<glyph name="H" format="1">
  <advance width="890"/>
  <unicode hex="0048"/>
  <outline>
    <contour>
      <point x="72" y="-4" type="curve" smooth="yes"/>
      <point x="127" y="-4"/>
      <point x="139" y="-1"/>
      <point x="179" y="-1" type="curve" smooth="yes"/>
      <point x="222" y="-1"/>
      <point x="238" y="-4"/>
      <point x="291" y="-4" type="curve" smooth="yes"/>
      <point x="309" y="-4"/>
      <point x="321" y="0"/>
      <point x="321" y="7" type="curve" smooth="yes"/>
      <point x="321" y="15"/>
      <point x="311" y="18"/>
      <point x="287" y="23" type="curve" smooth="yes"/>
      <point x="238" y="28"/>
      <point x="207" y="45"/>
      <point x="207" y="77" type="curve" smooth="yes"/>
      <point x="207" y="297" type="line" smooth="yes"/>
      <point x="207" y="306"/>
      <point x="209" y="310"/>
      <point x="215" y="310" type="curve" smooth="yes"/>
      <point x="675" y="310" type="line" smooth="yes"/>
      <point x="682" y="310"/>
      <point x="682" y="304"/>
      <point x="682" y="295" type="curve" smooth="yes"/>
      <point x="682" y="76" type="line" smooth="yes"/>
      <point x="682" y="42"/>
      <point x="660" y="29"/>
      <point x="611" y="22" type="curve" smooth="yes"/>
      <point x="586" y="18"/>
      <point x="577" y="15"/>
      <point x="577" y="7" type="curve" smooth="yes"/>
      <point x="577" y="0"/>
      <point x="588" y="-4"/>
      <point x="607" y="-4" type="curve" smooth="yes"/>
      <point x="659" y="-4"/>
      <point x="671" y="-1"/>
      <point x="711" y="-1" type="curve" smooth="yes"/>
      <point x="750" y="-1"/>
      <point x="760" y="-4"/>
      <point x="814" y="-4" type="curve" smooth="yes"/>
      <point x="833" y="-4"/>
      <point x="844" y="0"/>
      <point x="844" y="7" type="curve" smooth="yes"/>
      <point x="844" y="15"/>
      <point x="834" y="18"/>
      <point x="809" y="23" type="curve" smooth="yes"/>
      <point x="757" y="29"/>
      <point x="750" y="40"/>
      <point x="750" y="74" type="curve" smooth="yes"/>
      <point x="750" y="575" type="line" smooth="yes"/>
      <point x="750" y="607"/>
      <point x="755" y="620"/>
      <point x="808" y="626" type="curve" smooth="yes"/>
      <point x="833" y="628"/>
      <point x="844" y="633"/>
      <point x="844" y="641" type="curve" smooth="yes"/>
      <point x="844" y="648"/>
      <point x="833" y="653"/>
      <point x="813" y="653" type="curve" smooth="yes"/>
      <point x="759" y="653"/>
      <point x="753" y="649"/>
      <point x="716" y="649" type="curve" smooth="yes"/>
      <point x="674" y="649"/>
      <point x="660" y="653"/>
      <point x="607" y="653" type="curve" smooth="yes"/>
      <point x="588" y="653"/>
      <point x="578" y="648"/>
      <point x="578" y="641" type="curve" smooth="yes"/>
      <point x="578" y="633"/>
      <point x="588" y="629"/>
      <point x="612" y="627" type="curve" smooth="yes"/>
      <point x="664" y="621"/>
      <point x="682" y="605"/>
      <point x="682" y="576" type="curve" smooth="yes"/>
      <point x="682" y="354" type="line" smooth="yes"/>
      <point x="682" y="345"/>
      <point x="678" y="342"/>
      <point x="672" y="342" type="curve" smooth="yes"/>
      <point x="221" y="342" type="line" smooth="yes"/>
      <point x="214" y="342"/>
      <point x="207" y="344"/>
      <point x="207" y="354" type="curve" smooth="yes"/>
      <point x="207" y="576" type="line" smooth="yes"/>
      <point x="207" y="605"/>
      <point x="230" y="621"/>
      <point x="281" y="626" type="curve" smooth="yes"/>
      <point x="306" y="628"/>
      <point x="316" y="633"/>
      <point x="316" y="641" type="curve" smooth="yes"/>
      <point x="316" y="648"/>
      <point x="306" y="653"/>
      <point x="286" y="653" type="curve" smooth="yes"/>
      <point x="233" y="653"/>
      <point x="220" y="649"/>
      <point x="179" y="649" type="curve" smooth="yes"/>
      <point x="140" y="649"/>
      <point x="130" y="653"/>
      <point x="75" y="653" type="curve" smooth="yes"/>
      <point x="55" y="653"/>
      <point x="45" y="648"/>
      <point x="45" y="641" type="curve" smooth="yes"/>
      <point x="45" y="633"/>
      <point x="55" y="629"/>
      <point x="80" y="626" type="curve" smooth="yes"/>
      <point x="133" y="619"/>
      <point x="139" y="608"/>
      <point x="139" y="575" type="curve" smooth="yes"/>
      <point x="139" y="74" type="line" smooth="yes"/>
      <point x="139" y="39"/>
      <point x="130" y="29"/>
      <point x="77" y="23" type="curve" smooth="yes"/>
      <point x="52" y="18"/>
      <point x="42" y="15"/>
      <point x="42" y="7" type="curve" smooth="yes"/>
      <point x="42" y="0"/>
      <point x="54" y="-4"/>
    </contour>
  </outline>
</glyph>
<glyph name="I" format="1">
  <advance width="344"/>
  <unicode hex="0049"/>
  <outline>
    <contour>
      <point x="52" y="-5" type="curve" smooth="yes"/>
      <point x="106" y="-5"/>
      <point x="129" y="0"/>
      <point x="178" y="0" type="curve" smooth="yes"/>
      <point x="223" y="0"/>
      <point x="239" y="-5"/>
      <point x="293" y="-5" type="curve" smooth="yes"/>
      <point x="311" y="-5"/>
      <point x="324" y="-2"/>
      <point x="324" y="6" type="curve" smooth="yes"/>
      <point x="324" y="14"/>
      <point x="313" y="18"/>
      <point x="288" y="22" type="curve" smooth="yes"/>
      <point x="235" y="29"/>
      <point x="206" y="41"/>
      <point x="206" y="76" type="curve" smooth="yes"/>
      <point x="206" y="567" type="line" smooth="yes"/>
      <point x="206" y="604"/>
      <point x="228" y="616"/>
      <point x="282" y="623" type="curve" smooth="yes"/>
      <point x="306" y="627"/>
      <point x="317" y="634"/>
      <point x="317" y="643" type="curve" smooth="yes"/>
      <point x="317" y="650"/>
      <point x="304" y="653"/>
      <point x="286" y="653" type="curve" smooth="yes"/>
      <point x="233" y="653"/>
      <point x="221" y="650"/>
      <point x="178" y="650" type="curve" smooth="yes"/>
      <point x="132" y="650"/>
      <point x="115" y="653"/>
      <point x="61" y="653" type="curve" smooth="yes"/>
      <point x="44" y="653"/>
      <point x="31" y="650"/>
      <point x="31" y="643" type="curve" smooth="yes"/>
      <point x="31" y="634"/>
      <point x="42" y="627"/>
      <point x="66" y="623" type="curve" smooth="yes"/>
      <point x="120" y="616"/>
      <point x="138" y="604"/>
      <point x="138" y="567" type="curve" smooth="yes"/>
      <point x="138" y="76" type="line" smooth="yes"/>
      <point x="138" y="41"/>
      <point x="110" y="29"/>
      <point x="57" y="22" type="curve" smooth="yes"/>
      <point x="32" y="18"/>
      <point x="21" y="14"/>
      <point x="21" y="6" type="curve" smooth="yes"/>
      <point x="21" y="-2"/>
      <point x="34" y="-5"/>
    </contour>
  </outline>
</glyph>
<glyph name="J" format="1">
  <advance width="330"/>
  <unicode hex="004A"/>
  <outline>
    <contour>
      <point x="17" y="-200" type="curve" smooth="yes"/>
      <point x="68" y="-200"/>
      <point x="103" y="-178"/>
      <point x="134" y="-144" type="curve" smooth="yes"/>
      <point x="170" y="-103"/>
      <point x="206" y="-36"/>
      <point x="206" y="50" type="curve" smooth="yes"/>
      <point x="206" y="567" type="line" smooth="yes"/>
      <point x="206" y="604"/>
      <point x="229" y="616"/>
      <point x="282" y="623" type="curve" smooth="yes"/>
      <point x="307" y="627"/>
      <point x="318" y="634"/>
      <point x="318" y="643" type="curve" smooth="yes"/>
      <point x="318" y="650"/>
      <point x="305" y="653"/>
      <point x="287" y="653" type="curve" smooth="yes"/>
      <point x="234" y="653"/>
      <point x="221" y="650"/>
      <point x="178" y="650" type="curve" smooth="yes"/>
      <point x="132" y="650"/>
      <point x="115" y="653"/>
      <point x="61" y="653" type="curve" smooth="yes"/>
      <point x="44" y="653"/>
      <point x="31" y="650"/>
      <point x="31" y="643" type="curve" smooth="yes"/>
      <point x="31" y="634"/>
      <point x="42" y="627"/>
      <point x="66" y="623" type="curve" smooth="yes"/>
      <point x="120" y="616"/>
      <point x="138" y="604"/>
      <point x="138" y="567" type="curve" smooth="yes"/>
      <point x="138" y="7" type="line" smooth="yes"/>
      <point x="138" y="-98"/>
      <point x="108" y="-163"/>
      <point x="53" y="-163" type="curve" smooth="yes"/>
      <point x="29" y="-163"/>
      <point x="13" y="-153"/>
      <point x="-4" y="-131" type="curve" smooth="yes"/>
      <point x="-19" y="-113"/>
      <point x="-33" y="-104"/>
      <point x="-52" y="-104" type="curve" smooth="yes"/>
      <point x="-70" y="-104"/>
      <point x="-92" y="-127"/>
      <point x="-92" y="-150" type="curve" smooth="yes"/>
      <point x="-92" y="-182"/>
      <point x="-59" y="-200"/>
    </contour>
  </outline>
</glyph>
<glyph name="K" format="1">
  <advance width="740"/>
  <unicode hex="004B"/>
  <outline>
    <contour>
      <point x="68" y="-5" type="curve" smooth="yes"/>
      <point x="123" y="-5"/>
      <point x="140" y="2"/>
      <point x="186" y="2" type="curve" smooth="yes"/>
      <point x="227" y="2"/>
      <point x="236" y="-5"/>
      <point x="290" y="-5" type="curve" smooth="yes"/>
      <point x="307" y="-5"/>
      <point x="319" y="-1"/>
      <point x="319" y="6" type="curve" smooth="yes"/>
      <point x="319" y="14"/>
      <point x="308" y="18"/>
      <point x="284" y="22" type="curve" smooth="yes"/>
      <point x="232" y="29"/>
      <point x="214" y="48"/>
      <point x="213" y="81" type="curve"/>
      <point x="210" y="187"/>
      <point x="209" y="238"/>
      <point x="209" y="301" type="curve" smooth="yes"/>
      <point x="209" y="308"/>
      <point x="208" y="322"/>
      <point x="215" y="322" type="curve" smooth="yes"/>
      <point x="221" y="322"/>
      <point x="233" y="314"/>
      <point x="242" y="306" type="curve"/>
      <point x="525" y="55" type="line" smooth="yes"/>
      <point x="532" y="49"/>
      <point x="536" y="44"/>
      <point x="536" y="40" type="curve" smooth="yes"/>
      <point x="535" y="33"/>
      <point x="524" y="30"/>
      <point x="501" y="27" type="curve"/>
      <point x="481" y="24"/>
      <point x="472" y="19"/>
      <point x="472" y="10" type="curve" smooth="yes"/>
      <point x="472" y="2"/>
      <point x="484" y="-1"/>
      <point x="501" y="-1" type="curve" smooth="yes"/>
      <point x="546" y="-1"/>
      <point x="557" y="0"/>
      <point x="581" y="0" type="curve" smooth="yes"/>
      <point x="636" y="0"/>
      <point x="661" y="-5"/>
      <point x="719" y="-5" type="curve" smooth="yes"/>
      <point x="736" y="-5"/>
      <point x="748" y="-2"/>
      <point x="748" y="6" type="curve" smooth="yes"/>
      <point x="748" y="15"/>
      <point x="737" y="20"/>
      <point x="710" y="24" type="curve" smooth="yes"/>
      <point x="676" y="28"/>
      <point x="650" y="36"/>
      <point x="600" y="82" type="curve" smooth="yes"/>
      <point x="298" y="349" type="line" smooth="yes"/>
      <point x="290" y="356"/>
      <point x="287" y="362"/>
      <point x="292" y="367" type="curve"/>
      <point x="378" y="444"/>
      <point x="472" y="522"/>
      <point x="560" y="582" type="curve" smooth="yes"/>
      <point x="604" y="615"/>
      <point x="630" y="622"/>
      <point x="691" y="625" type="curve" smooth="yes"/>
      <point x="721" y="628"/>
      <point x="733" y="636"/>
      <point x="733" y="644" type="curve" smooth="yes"/>
      <point x="733" y="651"/>
      <point x="722" y="655"/>
      <point x="706" y="655" type="curve" smooth="yes"/>
      <point x="692" y="655"/>
      <point x="617" y="651"/>
      <point x="557" y="651" type="curve" smooth="yes"/>
      <point x="498" y="651" type="line" smooth="yes"/>
      <point x="480" y="651"/>
      <point x="467" y="648"/>
      <point x="467" y="641" type="curve" smooth="yes"/>
      <point x="467" y="633"/>
      <point x="473" y="627"/>
      <point x="497" y="623" type="curve"/>
      <point x="522" y="622"/>
      <point x="532" y="619"/>
      <point x="532" y="610" type="curve" smooth="yes"/>
      <point x="532" y="603"/>
      <point x="523" y="594"/>
      <point x="509" y="582" type="curve" smooth="yes"/>
      <point x="248" y="365" type="line"/>
      <point x="239" y="357"/>
      <point x="224" y="347"/>
      <point x="215" y="347" type="curve" smooth="yes"/>
      <point x="209" y="347"/>
      <point x="209" y="361"/>
      <point x="209" y="366" type="curve" smooth="yes"/>
      <point x="209" y="570" type="line" smooth="yes"/>
      <point x="209" y="600"/>
      <point x="215" y="621"/>
      <point x="268" y="625" type="curve" smooth="yes"/>
      <point x="293" y="628"/>
      <point x="303" y="635"/>
      <point x="303" y="642" type="curve" smooth="yes"/>
      <point x="303" y="649"/>
      <point x="292" y="653"/>
      <point x="274" y="653" type="curve" smooth="yes"/>
      <point x="221" y="653"/>
      <point x="216" y="651"/>
      <point x="177" y="651" type="curve" smooth="yes"/>
      <point x="133" y="651"/>
      <point x="121" y="653"/>
      <point x="66" y="653" type="curve" smooth="yes"/>
      <point x="48" y="653"/>
      <point x="37" y="650"/>
      <point x="37" y="643" type="curve" smooth="yes"/>
      <point x="37" y="636"/>
      <point x="47" y="629"/>
      <point x="72" y="626" type="curve" smooth="yes"/>
      <point x="129" y="621"/>
      <point x="141" y="609"/>
      <point x="141" y="570" type="curve" smooth="yes"/>
      <point x="141" y="77" type="line" smooth="yes"/>
      <point x="141" y="39"/>
      <point x="127" y="28"/>
      <point x="74" y="22" type="curve" smooth="yes"/>
      <point x="49" y="19"/>
      <point x="38" y="14"/>
      <point x="38" y="6" type="curve" smooth="yes"/>
      <point x="38" y="-1"/>
      <point x="50" y="-5"/>
    </contour>
  </outline>
</glyph>
<glyph name="L" format="1">
  <advance width="653"/>
  <unicode hex="004C"/>
  <outline>
    <contour>
      <point x="73" y="-5" type="curve"/>
      <point x="87" y="-5"/>
      <point x="156" y="0"/>
      <point x="217" y="0" type="curve" smooth="yes"/>
      <point x="328" y="0"/>
      <point x="450" y="-5"/>
      <point x="597" y="-5" type="curve" smooth="yes"/>
      <point x="607" y="-5"/>
      <point x="610" y="3"/>
      <point x="611" y="12" type="curve" smooth="yes"/>
      <point x="617" y="55"/>
      <point x="627" y="96"/>
      <point x="639" y="146" type="curve" smooth="yes"/>
      <point x="640" y="149"/>
      <point x="641" y="153"/>
      <point x="641" y="156" type="curve" smooth="yes"/>
      <point x="641" y="164"/>
      <point x="636" y="173"/>
      <point x="625" y="173" type="curve" smooth="yes"/>
      <point x="616" y="173"/>
      <point x="607" y="159"/>
      <point x="599" y="138" type="curve" smooth="yes"/>
      <point x="583" y="100"/>
      <point x="575" y="84"/>
      <point x="555" y="64" type="curve" smooth="yes"/>
      <point x="538" y="45"/>
      <point x="510" y="31"/>
      <point x="475" y="31" type="curve" smooth="yes"/>
      <point x="296" y="31" type="line" smooth="yes"/>
      <point x="232" y="31"/>
      <point x="219" y="51"/>
      <point x="219" y="93" type="curve" smooth="yes"/>
      <point x="219" y="580" type="line" smooth="yes"/>
      <point x="219" y="614"/>
      <point x="254" y="618"/>
      <point x="309" y="625" type="curve" smooth="yes"/>
      <point x="335" y="628"/>
      <point x="346" y="635"/>
      <point x="346" y="643" type="curve" smooth="yes"/>
      <point x="346" y="650"/>
      <point x="334" y="653"/>
      <point x="317" y="653" type="curve" smooth="yes"/>
      <point x="262" y="653"/>
      <point x="241" y="650"/>
      <point x="193" y="650" type="curve" smooth="yes"/>
      <point x="148" y="650"/>
      <point x="133" y="653"/>
      <point x="79" y="653" type="curve" smooth="yes"/>
      <point x="62" y="653"/>
      <point x="50" y="650"/>
      <point x="50" y="643" type="curve" smooth="yes"/>
      <point x="50" y="635"/>
      <point x="60" y="628"/>
      <point x="85" y="625" type="curve" smooth="yes"/>
      <point x="138" y="618"/>
      <point x="151" y="615"/>
      <point x="151" y="575" type="curve" smooth="yes"/>
      <point x="151" y="77" type="line" smooth="yes"/>
      <point x="151" y="42"/>
      <point x="131" y="30"/>
      <point x="70" y="23" type="curve" smooth="yes"/>
      <point x="59" y="21"/>
      <point x="42" y="17"/>
      <point x="42" y="6" type="curve" smooth="yes"/>
      <point x="42" y="0"/>
      <point x="53" y="-5"/>
    </contour>
  </outline>
</glyph>
<glyph name="M" format="1">
  <advance width="995"/>
  <unicode hex="004D"/>
  <outline>
    <contour>
      <point x="55" y="-5" type="curve" smooth="yes"/>
      <point x="113" y="-5"/>
      <point x="114" y="0"/>
      <point x="153" y="0" type="curve" smooth="yes"/>
      <point x="191" y="0"/>
      <point x="195" y="-5"/>
      <point x="251" y="-5" type="curve" smooth="yes"/>
      <point x="269" y="-5"/>
      <point x="282" y="-2"/>
      <point x="282" y="6" type="curve" smooth="yes"/>
      <point x="282" y="15"/>
      <point x="271" y="20"/>
      <point x="247" y="24" type="curve" smooth="yes"/>
      <point x="194" y="31"/>
      <point x="172" y="53"/>
      <point x="172" y="96" type="curve" smooth="yes"/>
      <point x="173" y="233"/>
      <point x="192" y="380"/>
      <point x="208" y="514" type="curve" smooth="yes"/>
      <point x="208" y="521"/>
      <point x="218" y="521"/>
      <point x="221" y="514" type="curve" smooth="yes"/>
      <point x="304" y="333"/>
      <point x="382" y="158"/>
      <point x="443" y="-4" type="curve" smooth="yes"/>
      <point x="446" y="-13"/>
      <point x="459" y="-12"/>
      <point x="463" y="-5" type="curve" smooth="yes"/>
      <point x="730" y="492" type="line" smooth="yes"/>
      <point x="737" y="505"/>
      <point x="746" y="506"/>
      <point x="747" y="492" type="curve"/>
      <point x="755" y="360"/>
      <point x="762" y="244"/>
      <point x="762" y="72" type="curve" smooth="yes"/>
      <point x="762" y="40"/>
      <point x="749" y="28"/>
      <point x="706" y="24" type="curve" smooth="yes"/>
      <point x="681" y="21"/>
      <point x="671" y="15"/>
      <point x="671" y="6" type="curve" smooth="yes"/>
      <point x="671" y="-1"/>
      <point x="683" y="-5"/>
      <point x="700" y="-5" type="curve" smooth="yes"/>
      <point x="755" y="-5"/>
      <point x="765" y="0"/>
      <point x="807" y="0" type="curve" smooth="yes"/>
      <point x="853" y="0"/>
      <point x="870" y="-5"/>
      <point x="925" y="-5" type="curve" smooth="yes"/>
      <point x="942" y="-5"/>
      <point x="954" y="-1"/>
      <point x="954" y="6" type="curve" smooth="yes"/>
      <point x="954" y="15"/>
      <point x="944" y="21"/>
      <point x="919" y="24" type="curve" smooth="yes"/>
      <point x="865" y="30"/>
      <point x="839" y="44"/>
      <point x="837" y="72" type="curve" smooth="yes"/>
      <point x="830" y="251"/>
      <point x="816" y="384"/>
      <point x="816" y="569" type="curve" smooth="yes"/>
      <point x="816" y="593"/>
      <point x="825" y="607"/>
      <point x="843" y="612" type="curve" smooth="yes"/>
      <point x="863" y="617"/>
      <point x="889" y="624"/>
      <point x="905" y="629" type="curve"/>
      <point x="927" y="636"/>
      <point x="934" y="640"/>
      <point x="934" y="647" type="curve" smooth="yes"/>
      <point x="934" y="655"/>
      <point x="918" y="656"/>
      <point x="911" y="656" type="curve" smooth="yes"/>
      <point x="886" y="656"/>
      <point x="832" y="648"/>
      <point x="788" y="648" type="curve" smooth="yes"/>
      <point x="750" y="648" type="line" smooth="yes"/>
      <point x="745" y="648"/>
      <point x="741" y="643"/>
      <point x="739" y="635" type="curve" smooth="yes"/>
      <point x="734" y="614"/>
      <point x="724" y="565"/>
      <point x="717" y="543" type="curve"/>
      <point x="492" y="116" type="line" smooth="yes"/>
      <point x="486" y="106"/>
      <point x="476" y="109"/>
      <point x="472" y="119" type="curve" smooth="yes"/>
      <point x="284" y="559" type="line" smooth="yes"/>
      <point x="274" y="582"/>
      <point x="267" y="608"/>
      <point x="260" y="631" type="curve" smooth="yes"/>
      <point x="256" y="641"/>
      <point x="249" y="647"/>
      <point x="239" y="647" type="curve" smooth="yes"/>
      <point x="211" y="647"/>
      <point x="112" y="655"/>
      <point x="85" y="655" type="curve" smooth="yes"/>
      <point x="64" y="655"/>
      <point x="49" y="653"/>
      <point x="49" y="644" type="curve" smooth="yes"/>
      <point x="49" y="637"/>
      <point x="59" y="632"/>
      <point x="73" y="630" type="curve" smooth="yes"/>
      <point x="110" y="625"/>
      <point x="133" y="621"/>
      <point x="150" y="609" type="curve" smooth="yes"/>
      <point x="162" y="600"/>
      <point x="166" y="589"/>
      <point x="166" y="572" type="curve" smooth="yes"/>
      <point x="167" y="561"/>
      <point x="167" y="547"/>
      <point x="167" y="533" type="curve" smooth="yes"/>
      <point x="167" y="434"/>
      <point x="152" y="287"/>
      <point x="129" y="94" type="curve" smooth="yes"/>
      <point x="123" y="46"/>
      <point x="104" y="29"/>
      <point x="60" y="23" type="curve" smooth="yes"/>
      <point x="35" y="19"/>
      <point x="24" y="15"/>
      <point x="24" y="6" type="curve" smooth="yes"/>
      <point x="24" y="-2"/>
      <point x="37" y="-5"/>
    </contour>
  </outline>
</glyph>
<glyph name="N" format="1">
  <advance width="881"/>
  <unicode hex="004E"/>
  <outline>
    <contour>
      <point x="747" y="-17" type="curve" smooth="yes"/>
      <point x="758" y="-17"/>
      <point x="770" y="-13"/>
      <point x="770" y="8" type="curve" smooth="yes"/>
      <point x="770" y="21"/>
      <point x="764" y="57"/>
      <point x="764" y="105" type="curve" smooth="yes"/>
      <point x="764" y="288"/>
      <point x="766" y="480"/>
      <point x="768" y="556" type="curve" smooth="yes"/>
      <point x="771" y="601"/>
      <point x="789" y="615"/>
      <point x="835" y="623" type="curve" smooth="yes"/>
      <point x="859" y="627"/>
      <point x="870" y="633"/>
      <point x="870" y="641" type="curve" smooth="yes"/>
      <point x="870" y="649"/>
      <point x="858" y="652"/>
      <point x="842" y="652" type="curve" smooth="yes"/>
      <point x="784" y="652"/>
      <point x="778" y="647"/>
      <point x="741" y="647" type="curve" smooth="yes"/>
      <point x="702" y="647"/>
      <point x="693" y="651"/>
      <point x="654" y="651" type="curve" smooth="yes"/>
      <point x="638" y="651"/>
      <point x="624" y="648"/>
      <point x="624" y="640" type="curve" smooth="yes"/>
      <point x="624" y="632"/>
      <point x="638" y="627"/>
      <point x="664" y="623" type="curve" smooth="yes"/>
      <point x="712" y="616"/>
      <point x="731" y="595"/>
      <point x="731" y="556" type="curve" smooth="yes"/>
      <point x="731" y="411"/>
      <point x="730" y="200"/>
      <point x="729" y="120" type="curve"/>
      <point x="728" y="105"/>
      <point x="723" y="99"/>
      <point x="718" y="99" type="curve" smooth="yes"/>
      <point x="709" y="99"/>
      <point x="695" y="113"/>
      <point x="689" y="119" type="curve" smooth="yes"/>
      <point x="667" y="143"/>
      <point x="247" y="609"/>
      <point x="226" y="636" type="curve"/>
      <point x="218" y="645"/>
      <point x="212" y="653"/>
      <point x="199" y="653" type="curve" smooth="yes"/>
      <point x="119" y="653"/>
      <point x="121" y="656"/>
      <point x="38" y="658" type="curve" smooth="yes"/>
      <point x="31" y="658"/>
      <point x="14" y="656"/>
      <point x="14" y="647" type="curve" smooth="yes"/>
      <point x="14" y="638"/>
      <point x="33" y="630"/>
      <point x="49" y="627" type="curve" smooth="yes"/>
      <point x="110" y="617"/>
      <point x="148" y="596"/>
      <point x="148" y="536" type="curve" smooth="yes"/>
      <point x="148" y="344"/>
      <point x="139" y="190"/>
      <point x="133" y="97" type="curve" smooth="yes"/>
      <point x="129" y="50"/>
      <point x="112" y="31"/>
      <point x="69" y="23" type="curve" smooth="yes"/>
      <point x="45" y="19"/>
      <point x="35" y="14"/>
      <point x="35" y="6" type="curve" smooth="yes"/>
      <point x="35" y="-2"/>
      <point x="46" y="-5"/>
      <point x="62" y="-5" type="curve" smooth="yes"/>
      <point x="117" y="-5"/>
      <point x="118" y="0"/>
      <point x="154" y="0" type="curve" smooth="yes"/>
      <point x="191" y="0"/>
      <point x="194" y="-5"/>
      <point x="249" y="-5" type="curve" smooth="yes"/>
      <point x="265" y="-5"/>
      <point x="277" y="-2"/>
      <point x="277" y="6" type="curve" smooth="yes"/>
      <point x="277" y="14"/>
      <point x="267" y="19"/>
      <point x="242" y="22" type="curve" smooth="yes"/>
      <point x="186" y="31"/>
      <point x="173" y="56"/>
      <point x="173" y="96" type="curve" smooth="yes"/>
      <point x="173" y="234"/>
      <point x="182" y="430"/>
      <point x="181" y="525" type="curve" smooth="yes"/>
      <point x="181" y="533"/>
      <point x="184" y="546"/>
      <point x="192" y="546" type="curve" smooth="yes"/>
      <point x="198" y="546"/>
      <point x="205" y="542"/>
      <point x="216" y="530" type="curve" smooth="yes"/>
      <point x="242" y="502"/>
      <point x="634" y="71"/>
      <point x="653" y="46" type="curve" smooth="yes"/>
      <point x="688" y="2"/>
      <point x="733" y="-17"/>
    </contour>
  </outline>
</glyph>
<glyph name="O" format="1">
  <advance width="832"/>
  <unicode hex="004F"/>
  <outline>
    <contour>
      <point x="411" y="-14" type="curve" smooth="yes"/>
      <point x="654" y="-14"/>
      <point x="781" y="154"/>
      <point x="781" y="329" type="curve" smooth="yes"/>
      <point x="781" y="531"/>
      <point x="611" y="664"/>
      <point x="421" y="664" type="curve" smooth="yes"/>
      <point x="179" y="664"/>
      <point x="51" y="497"/>
      <point x="51" y="321" type="curve" smooth="yes"/>
      <point x="51" y="119"/>
      <point x="222" y="-14"/>
    </contour>
    <contour>
      <point x="428" y="21" type="curve" smooth="yes"/>
      <point x="239" y="21"/>
      <point x="132" y="173"/>
      <point x="132" y="365" type="curve" smooth="yes"/>
      <point x="132" y="522"/>
      <point x="227" y="627"/>
      <point x="402" y="627" type="curve" smooth="yes"/>
      <point x="596" y="627"/>
      <point x="700" y="474"/>
      <point x="700" y="286" type="curve" smooth="yes"/>
      <point x="700" y="129"/>
      <point x="605" y="21"/>
    </contour>
  </outline>
</glyph>
<glyph name="P" format="1">
  <advance width="592"/>
  <unicode hex="0050"/>
  <outline>
    <contour>
      <point x="55" y="-5" type="curve" smooth="yes"/>
      <point x="111" y="-5"/>
      <point x="134" y="3"/>
      <point x="183" y="3" type="curve" smooth="yes"/>
      <point x="221" y="3"/>
      <point x="230" y="-5"/>
      <point x="286" y="-5" type="curve" smooth="yes"/>
      <point x="303" y="-5"/>
      <point x="316" y="-1"/>
      <point x="316" y="6" type="curve" smooth="yes"/>
      <point x="316" y="14"/>
      <point x="305" y="19"/>
      <point x="281" y="23" type="curve" smooth="yes"/>
      <point x="219" y="29"/>
      <point x="206" y="46"/>
      <point x="206" y="110" type="curve" smooth="yes"/>
      <point x="206" y="587" type="line" smooth="yes"/>
      <point x="206" y="617"/>
      <point x="238" y="629"/>
      <point x="285" y="629" type="curve" smooth="yes"/>
      <point x="402" y="629"/>
      <point x="491" y="584"/>
      <point x="491" y="471" type="curve" smooth="yes"/>
      <point x="491" y="353"/>
      <point x="436" y="285"/>
      <point x="322" y="285" type="curve" smooth="yes"/>
      <point x="305" y="285"/>
      <point x="282" y="286"/>
      <point x="275" y="286" type="curve" smooth="yes"/>
      <point x="266" y="286"/>
      <point x="257" y="278"/>
      <point x="257" y="273" type="curve" smooth="yes"/>
      <point x="257" y="265"/>
      <point x="278" y="254"/>
      <point x="310" y="254" type="curve" smooth="yes"/>
      <point x="484" y="254"/>
      <point x="564" y="357"/>
      <point x="564" y="480" type="curve" smooth="yes"/>
      <point x="564" y="592"/>
      <point x="453" y="658"/>
      <point x="287" y="658" type="curve" smooth="yes"/>
      <point x="256" y="658"/>
      <point x="209" y="652"/>
      <point x="165" y="652" type="curve" smooth="yes"/>
      <point x="126" y="652"/>
      <point x="123" y="653"/>
      <point x="69" y="653" type="curve" smooth="yes"/>
      <point x="51" y="653"/>
      <point x="39" y="649"/>
      <point x="39" y="642" type="curve" smooth="yes"/>
      <point x="39" y="634"/>
      <point x="50" y="628"/>
      <point x="74" y="625" type="curve" smooth="yes"/>
      <point x="130" y="617"/>
      <point x="138" y="600"/>
      <point x="138" y="543" type="curve" smooth="yes"/>
      <point x="138" y="102" type="line" smooth="yes"/>
      <point x="138" y="40"/>
      <point x="122" y="27"/>
      <point x="60" y="22" type="curve" smooth="yes"/>
      <point x="36" y="19"/>
      <point x="26" y="14"/>
      <point x="26" y="6" type="curve" smooth="yes"/>
      <point x="26" y="-1"/>
      <point x="38" y="-5"/>
    </contour>
  </outline>
</glyph>
<glyph name="Q" format="1">
  <advance width="832"/>
  <unicode hex="0051"/>
  <outline>
    <contour>
      <point x="832" y="-248" type="curve" smooth="yes"/>
      <point x="873" y="-248"/>
      <point x="920" y="-238"/>
      <point x="963" y="-214" type="curve" smooth="yes"/>
      <point x="980" y="-205"/>
      <point x="983" y="-199"/>
      <point x="983" y="-187" type="curve" smooth="yes"/>
      <point x="983" y="-181"/>
      <point x="976" y="-177"/>
      <point x="970" y="-177" type="curve" smooth="yes"/>
      <point x="962" y="-177"/>
      <point x="954" y="-179"/>
      <point x="946" y="-181" type="curve"/>
      <point x="932" y="-187"/>
      <point x="903" y="-191"/>
      <point x="873" y="-190" type="curve" smooth="yes"/>
      <point x="790" y="-190"/>
      <point x="719" y="-174"/>
      <point x="648" y="-129" type="curve" smooth="yes"/>
      <point x="592" y="-94"/>
      <point x="550" y="-61"/>
      <point x="505" y="-20" type="curve"/>
      <point x="502" y="-17"/>
      <point x="501" y="-14"/>
      <point x="501" y="-11" type="curve" smooth="yes"/>
      <point x="501" y="-9"/>
      <point x="502" y="-6"/>
      <point x="510" y="-4" type="curve" smooth="yes"/>
      <point x="689" y="34"/>
      <point x="781" y="179"/>
      <point x="781" y="329" type="curve" smooth="yes"/>
      <point x="781" y="531"/>
      <point x="611" y="664"/>
      <point x="421" y="664" type="curve" smooth="yes"/>
      <point x="179" y="664"/>
      <point x="51" y="497"/>
      <point x="51" y="321" type="curve" smooth="yes"/>
      <point x="51" y="158"/>
      <point x="155" y="52"/>
      <point x="283" y="7" type="curve"/>
      <point x="325" y="-7"/>
      <point x="372" y="-23"/>
      <point x="423" y="-59" type="curve" smooth="yes"/>
      <point x="504" y="-113"/>
      <point x="545" y="-141"/>
      <point x="602" y="-176" type="curve" smooth="yes"/>
      <point x="671" y="-221"/>
      <point x="735" y="-248"/>
    </contour>
    <contour>
      <point x="428" y="21" type="curve" smooth="yes"/>
      <point x="239" y="21"/>
      <point x="132" y="173"/>
      <point x="132" y="365" type="curve" smooth="yes"/>
      <point x="132" y="522"/>
      <point x="227" y="627"/>
      <point x="402" y="627" type="curve" smooth="yes"/>
      <point x="596" y="627"/>
      <point x="700" y="474"/>
      <point x="700" y="286" type="curve" smooth="yes"/>
      <point x="700" y="129"/>
      <point x="605" y="21"/>
    </contour>
  </outline>
</glyph>
<glyph name="R" format="1">
  <advance width="793"/>
  <unicode hex="0052"/>
  <outline>
    <contour>
      <point x="713" y="-21" type="curve" smooth="yes"/>
      <point x="740" y="-21"/>
      <point x="802" y="-17"/>
      <point x="802" y="8" type="curve" smooth="yes"/>
      <point x="802" y="14"/>
      <point x="796" y="16"/>
      <point x="784" y="16" type="curve" smooth="yes"/>
      <point x="736" y="16"/>
      <point x="705" y="22"/>
      <point x="667" y="48" type="curve" smooth="yes"/>
      <point x="542" y="138"/>
      <point x="482" y="224"/>
      <point x="409" y="314" type="curve" smooth="yes"/>
      <point x="404" y="320"/>
      <point x="403" y="325"/>
      <point x="409" y="327" type="curve"/>
      <point x="474" y="355"/>
      <point x="545" y="403"/>
      <point x="545" y="493" type="curve" smooth="yes"/>
      <point x="545" y="602"/>
      <point x="461" y="657"/>
      <point x="305" y="657" type="curve" smooth="yes"/>
      <point x="243" y="657"/>
      <point x="222" y="652"/>
      <point x="182" y="652" type="curve" smooth="yes"/>
      <point x="139" y="652"/>
      <point x="131" y="654"/>
      <point x="72" y="654" type="curve" smooth="yes"/>
      <point x="54" y="654"/>
      <point x="42" y="650"/>
      <point x="42" y="643" type="curve" smooth="yes"/>
      <point x="42" y="634"/>
      <point x="52" y="629"/>
      <point x="76" y="626" type="curve" smooth="yes"/>
      <point x="133" y="619"/>
      <point x="141" y="609"/>
      <point x="141" y="545" type="curve" smooth="yes"/>
      <point x="141" y="91" type="line" smooth="yes"/>
      <point x="141" y="42"/>
      <point x="129" y="30"/>
      <point x="68" y="23" type="curve" smooth="yes"/>
      <point x="44" y="19"/>
      <point x="34" y="15"/>
      <point x="34" y="6" type="curve" smooth="yes"/>
      <point x="34" y="-1"/>
      <point x="46" y="-5"/>
      <point x="64" y="-5" type="curve" smooth="yes"/>
      <point x="116" y="-5"/>
      <point x="138" y="3"/>
      <point x="183" y="3" type="curve" smooth="yes"/>
      <point x="221" y="3"/>
      <point x="240" y="-5"/>
      <point x="287" y="-5" type="curve" smooth="yes"/>
      <point x="304" y="-5"/>
      <point x="316" y="-1"/>
      <point x="316" y="6" type="curve" smooth="yes"/>
      <point x="316" y="15"/>
      <point x="306" y="19"/>
      <point x="282" y="23" type="curve" smooth="yes"/>
      <point x="227" y="29"/>
      <point x="208" y="50"/>
      <point x="208" y="94" type="curve" smooth="yes"/>
      <point x="208" y="283" type="line" smooth="yes"/>
      <point x="208" y="295"/>
      <point x="214" y="304"/>
      <point x="229" y="303" type="curve" smooth="yes"/>
      <point x="268" y="300"/>
      <point x="305" y="296"/>
      <point x="339" y="282" type="curve" smooth="yes"/>
      <point x="362" y="272"/>
      <point x="376" y="261"/>
      <point x="388" y="243" type="curve" smooth="yes"/>
      <point x="462" y="135"/>
      <point x="499" y="94"/>
      <point x="560" y="32" type="curve" smooth="yes"/>
      <point x="599" y="-9"/>
      <point x="650" y="-21"/>
    </contour>
    <contour>
      <point x="276" y="331" type="curve" smooth="yes"/>
      <point x="234" y="331"/>
      <point x="208" y="333"/>
      <point x="208" y="365" type="curve" smooth="yes"/>
      <point x="208" y="444"/>
      <point x="209" y="498"/>
      <point x="211" y="531" type="curve" smooth="yes"/>
      <point x="214" y="599"/>
      <point x="225" y="622"/>
      <point x="280" y="622" type="curve" smooth="yes"/>
      <point x="441" y="622"/>
      <point x="469" y="557"/>
      <point x="469" y="476" type="curve" smooth="yes"/>
      <point x="469" y="392"/>
      <point x="411" y="331"/>
    </contour>
  </outline>
</glyph>
<glyph name="S" format="1">
  <advance width="508"/>
  <unicode hex="0053"/>
  <outline>
    <contour>
      <point x="225" y="-16" type="curve" smooth="yes"/>
      <point x="369" y="-16"/>
      <point x="465" y="60"/>
      <point x="465" y="176" type="curve" smooth="yes"/>
      <point x="465" y="272"/>
      <point x="392" y="318"/>
      <point x="296" y="365" type="curve" smooth="yes"/>
      <point x="204" y="411"/>
      <point x="139" y="452"/>
      <point x="139" y="509" type="curve" smooth="yes"/>
      <point x="139" y="588"/>
      <point x="193" y="629"/>
      <point x="269" y="629" type="curve" smooth="yes"/>
      <point x="335" y="629"/>
      <point x="382" y="602"/>
      <point x="414" y="516" type="curve" smooth="yes"/>
      <point x="418" y="505"/>
      <point x="430" y="501"/>
      <point x="441" y="501" type="curve" smooth="yes"/>
      <point x="448" y="501"/>
      <point x="457" y="503"/>
      <point x="457" y="514" type="curve" smooth="yes"/>
      <point x="457" y="545"/>
      <point x="443" y="587"/>
      <point x="434" y="616" type="curve" smooth="yes"/>
      <point x="431" y="627"/>
      <point x="422" y="638"/>
      <point x="411" y="642" type="curve" smooth="yes"/>
      <point x="387" y="651"/>
      <point x="348" y="664"/>
      <point x="296" y="664" type="curve" smooth="yes"/>
      <point x="139" y="664"/>
      <point x="68" y="584"/>
      <point x="68" y="486" type="curve" smooth="yes"/>
      <point x="68" y="397"/>
      <point x="153" y="350"/>
      <point x="255" y="298" type="curve"/>
      <point x="345" y="252"/>
      <point x="390" y="224"/>
      <point x="390" y="148" type="curve" smooth="yes"/>
      <point x="390" y="72"/>
      <point x="335" y="18"/>
      <point x="252" y="18" type="curve" smooth="yes"/>
      <point x="174" y="18"/>
      <point x="112" y="49"/>
      <point x="83" y="160" type="curve" smooth="yes"/>
      <point x="80" y="168"/>
      <point x="72" y="173"/>
      <point x="65" y="173" type="curve" smooth="yes"/>
      <point x="55" y="173"/>
      <point x="45" y="166"/>
      <point x="45" y="157" type="curve" smooth="yes"/>
      <point x="46" y="129"/>
      <point x="49" y="79"/>
      <point x="56" y="52" type="curve" smooth="yes"/>
      <point x="59" y="44"/>
      <point x="65" y="37"/>
      <point x="71" y="32" type="curve"/>
      <point x="111" y="1"/>
      <point x="164" y="-16"/>
    </contour>
  </outline>
</glyph>
<glyph name="T" format="1">
  <advance width="738"/>
  <unicode hex="0054"/>
  <outline>
    <contour>
      <point x="247" y="-5" type="curve" smooth="yes"/>
      <point x="301" y="-5"/>
      <point x="324" y="-2"/>
      <point x="374" y="-2" type="curve" smooth="yes"/>
      <point x="420" y="-2"/>
      <point x="438" y="-5"/>
      <point x="492" y="-5" type="curve" smooth="yes"/>
      <point x="509" y="-5"/>
      <point x="522" y="-2"/>
      <point x="522" y="6" type="curve" smooth="yes"/>
      <point x="522" y="14"/>
      <point x="511" y="19"/>
      <point x="483" y="22" type="curve" smooth="yes"/>
      <point x="431" y="29"/>
      <point x="402" y="43"/>
      <point x="402" y="85" type="curve" smooth="yes"/>
      <point x="402" y="513" type="line" smooth="yes"/>
      <point x="402" y="605"/>
      <point x="409" y="611"/>
      <point x="453" y="611" type="curve" smooth="yes"/>
      <point x="589" y="611" type="line" smooth="yes"/>
      <point x="652" y="611"/>
      <point x="674" y="590"/>
      <point x="679" y="557" type="curve"/>
      <point x="685" y="527"/>
      <point x="690" y="509"/>
      <point x="702" y="509" type="curve" smooth="yes"/>
      <point x="715" y="509"/>
      <point x="722" y="530"/>
      <point x="722" y="544" type="curve" smooth="yes"/>
      <point x="722" y="557" type="line" smooth="yes"/>
      <point x="722" y="586"/>
      <point x="726" y="582"/>
      <point x="732" y="623" type="curve" smooth="yes"/>
      <point x="733" y="629"/>
      <point x="737" y="646"/>
      <point x="737" y="654" type="curve" smooth="yes"/>
      <point x="737" y="664"/>
      <point x="733" y="677"/>
      <point x="728" y="677" type="curve" smooth="yes"/>
      <point x="708" y="677"/>
      <point x="699" y="666"/>
      <point x="679" y="657" type="curve" smooth="yes"/>
      <point x="658" y="648"/>
      <point x="632" y="642"/>
      <point x="587" y="642" type="curve" smooth="yes"/>
      <point x="179" y="642" type="line" smooth="yes"/>
      <point x="153" y="642"/>
      <point x="123" y="648"/>
      <point x="114" y="662" type="curve" smooth="yes"/>
      <point x="106" y="673"/>
      <point x="90" y="694"/>
      <point x="83" y="694" type="curve" smooth="yes"/>
      <point x="76" y="694"/>
      <point x="65" y="691"/>
      <point x="62" y="669" type="curve" smooth="yes"/>
      <point x="56" y="623"/>
      <point x="50" y="595"/>
      <point x="30" y="553" type="curve" smooth="yes"/>
      <point x="27" y="547"/>
      <point x="25" y="538"/>
      <point x="25" y="532" type="curve" smooth="yes"/>
      <point x="25" y="524"/>
      <point x="31" y="518"/>
      <point x="36" y="518" type="curve" smooth="yes"/>
      <point x="53" y="518"/>
      <point x="73" y="543"/>
      <point x="83" y="565" type="curve" smooth="yes"/>
      <point x="98" y="595"/>
      <point x="128" y="611"/>
      <point x="158" y="611" type="curve" smooth="yes"/>
      <point x="256" y="611" type="line" smooth="yes"/>
      <point x="284" y="611"/>
      <point x="300" y="610"/>
      <point x="316" y="605" type="curve" smooth="yes"/>
      <point x="329" y="601"/>
      <point x="334" y="581"/>
      <point x="334" y="509" type="curve" smooth="yes"/>
      <point x="334" y="84" type="line" smooth="yes"/>
      <point x="334" y="42"/>
      <point x="305" y="28"/>
      <point x="255" y="22" type="curve" smooth="yes"/>
      <point x="228" y="18"/>
      <point x="218" y="14"/>
      <point x="218" y="5" type="curve" smooth="yes"/>
      <point x="218" y="-2"/>
      <point x="230" y="-5"/>
    </contour>
  </outline>
</glyph>
<glyph name="U" format="1">
  <advance width="812"/>
  <unicode hex="0055"/>
  <outline>
    <contour>
      <point x="406" y="-14" type="curve" smooth="yes"/>
      <point x="567" y="-14"/>
      <point x="689" y="95"/>
      <point x="694" y="252" type="curve" smooth="yes"/>
      <point x="698" y="342"/>
      <point x="698" y="424"/>
      <point x="706" y="558" type="curve" smooth="yes"/>
      <point x="708" y="600"/>
      <point x="722" y="615"/>
      <point x="763" y="623" type="curve" smooth="yes"/>
      <point x="790" y="629"/>
      <point x="801" y="634"/>
      <point x="801" y="642" type="curve" smooth="yes"/>
      <point x="801" y="649"/>
      <point x="788" y="652"/>
      <point x="771" y="652" type="curve" smooth="yes"/>
      <point x="744" y="652"/>
      <point x="717" y="649"/>
      <point x="683" y="649" type="curve" smooth="yes"/>
      <point x="651" y="649"/>
      <point x="634" y="650"/>
      <point x="600" y="651" type="curve" smooth="yes"/>
      <point x="583" y="651"/>
      <point x="571" y="649"/>
      <point x="571" y="641" type="curve" smooth="yes"/>
      <point x="571" y="633"/>
      <point x="591" y="627"/>
      <point x="609" y="622" type="curve" smooth="yes"/>
      <point x="644" y="614"/>
      <point x="659" y="585"/>
      <point x="660" y="530" type="curve" smooth="yes"/>
      <point x="663" y="429"/>
      <point x="664" y="341"/>
      <point x="664" y="296" type="curve" smooth="yes"/>
      <point x="664" y="146"/>
      <point x="593" y="43"/>
      <point x="429" y="43" type="curve" smooth="yes"/>
      <point x="283" y="43"/>
      <point x="180" y="112"/>
      <point x="180" y="269" type="curve" smooth="yes"/>
      <point x="180" y="560" type="line" smooth="yes"/>
      <point x="180" y="602"/>
      <point x="200" y="618"/>
      <point x="232" y="623" type="curve" smooth="yes"/>
      <point x="255" y="629"/>
      <point x="267" y="634"/>
      <point x="267" y="642" type="curve" smooth="yes"/>
      <point x="267" y="649"/>
      <point x="255" y="652"/>
      <point x="238" y="652" type="curve" smooth="yes"/>
      <point x="212" y="652"/>
      <point x="185" y="649"/>
      <point x="152" y="649" type="curve" smooth="yes"/>
      <point x="113" y="649"/>
      <point x="86" y="652"/>
      <point x="52" y="652" type="curve" smooth="yes"/>
      <point x="35" y="652"/>
      <point x="23" y="650"/>
      <point x="23" y="643" type="curve" smooth="yes"/>
      <point x="23" y="635"/>
      <point x="34" y="629"/>
      <point x="58" y="623" type="curve" smooth="yes"/>
      <point x="95" y="617"/>
      <point x="112" y="605"/>
      <point x="112" y="555" type="curve" smooth="yes"/>
      <point x="112" y="240" type="line" smooth="yes"/>
      <point x="112" y="87"/>
      <point x="210" y="-14"/>
    </contour>
  </outline>
</glyph>
<glyph name="V" format="1">
  <advance width="721"/>
  <unicode hex="0056"/>
  <outline>
    <contour>
      <point x="346" y="-12" type="curve" smooth="yes"/>
      <point x="350" y="-12"/>
      <point x="356" y="-9"/>
      <point x="358" y="-5" type="curve" smooth="yes"/>
      <point x="371" y="19"/>
      <point x="386" y="65"/>
      <point x="392" y="79" type="curve" smooth="yes"/>
      <point x="604" y="553" type="line" smooth="yes"/>
      <point x="622" y="594"/>
      <point x="643" y="620"/>
      <point x="700" y="627" type="curve" smooth="yes"/>
      <point x="725" y="630"/>
      <point x="735" y="635"/>
      <point x="735" y="642" type="curve" smooth="yes"/>
      <point x="735" y="649"/>
      <point x="724" y="652"/>
      <point x="707" y="652" type="curve" smooth="yes"/>
      <point x="681" y="652"/>
      <point x="633" y="649"/>
      <point x="595" y="649" type="curve" smooth="yes"/>
      <point x="558" y="649"/>
      <point x="523" y="650"/>
      <point x="498" y="650" type="curve" smooth="yes"/>
      <point x="481" y="650"/>
      <point x="469" y="649"/>
      <point x="469" y="641" type="curve" smooth="yes"/>
      <point x="469" y="635"/>
      <point x="481" y="629"/>
      <point x="513" y="626" type="curve" smooth="yes"/>
      <point x="571" y="620"/>
      <point x="590" y="604"/>
      <point x="555" y="524" type="curve" smooth="yes"/>
      <point x="376" y="125" type="line" smooth="yes"/>
      <point x="372" y="115"/>
      <point x="366" y="119"/>
      <point x="364" y="124" type="curve" smooth="yes"/>
      <point x="190" y="541" type="line" smooth="yes"/>
      <point x="187" y="550"/>
      <point x="178" y="566"/>
      <point x="178" y="589" type="curve" smooth="yes"/>
      <point x="178" y="611"/>
      <point x="206" y="623"/>
      <point x="241" y="626" type="curve" smooth="yes"/>
      <point x="269" y="628"/>
      <point x="279" y="635"/>
      <point x="279" y="642" type="curve" smooth="yes"/>
      <point x="279" y="649"/>
      <point x="267" y="653"/>
      <point x="250" y="653" type="curve" smooth="yes"/>
      <point x="229" y="653"/>
      <point x="192" y="650"/>
      <point x="151" y="650" type="curve" smooth="yes"/>
      <point x="105" y="650"/>
      <point x="61" y="653"/>
      <point x="29" y="653" type="curve" smooth="yes"/>
      <point x="12" y="653"/>
      <point x="0" y="651"/>
      <point x="0" y="644" type="curve" smooth="yes"/>
      <point x="0" y="637"/>
      <point x="13" y="632"/>
      <point x="39" y="626" type="curve" smooth="yes"/>
      <point x="76" y="618"/>
      <point x="96" y="587"/>
      <point x="110" y="552" type="curve" smooth="yes"/>
      <point x="310" y="67" type="line" smooth="yes"/>
      <point x="317" y="46"/>
      <point x="326" y="9"/>
      <point x="332" y="-5" type="curve" smooth="yes"/>
      <point x="335" y="-10"/>
      <point x="341" y="-12"/>
    </contour>
  </outline>
</glyph>
<glyph name="W" format="1">
  <advance width="1028"/>
  <unicode hex="0057"/>
  <outline>
    <contour>
      <point x="374" y="-16" type="curve" smooth="yes"/>
      <point x="384" y="-16"/>
      <point x="393" y="0"/>
      <point x="400" y="15" type="curve" smooth="yes"/>
      <point x="448" y="126"/>
      <point x="481" y="196"/>
      <point x="530" y="308" type="curve" smooth="yes"/>
      <point x="536" y="321"/>
      <point x="538" y="323"/>
      <point x="542" y="314" type="curve"/>
      <point x="595" y="197"/>
      <point x="621" y="126"/>
      <point x="677" y="7" type="curve" smooth="yes"/>
      <point x="681" y="-3"/>
      <point x="692" y="-12"/>
      <point x="698" y="-12" type="curve" smooth="yes"/>
      <point x="707" y="-12"/>
      <point x="717" y="3"/>
      <point x="720" y="11" type="curve" smooth="yes"/>
      <point x="916" y="554" type="line" smooth="yes"/>
      <point x="932" y="594"/>
      <point x="953" y="621"/>
      <point x="999" y="627" type="curve" smooth="yes"/>
      <point x="1024" y="631"/>
      <point x="1033" y="636"/>
      <point x="1033" y="644" type="curve" smooth="yes"/>
      <point x="1033" y="651"/>
      <point x="1020" y="653"/>
      <point x="1001" y="653" type="curve" smooth="yes"/>
      <point x="973" y="653"/>
      <point x="949" y="651"/>
      <point x="912" y="651" type="curve" smooth="yes"/>
      <point x="887" y="651"/>
      <point x="871" y="651"/>
      <point x="845" y="651" type="curve" smooth="yes"/>
      <point x="827" y="651"/>
      <point x="816" y="649"/>
      <point x="816" y="642" type="curve" smooth="yes"/>
      <point x="816" y="634"/>
      <point x="833" y="629"/>
      <point x="846" y="626" type="curve" smooth="yes"/>
      <point x="874" y="621"/>
      <point x="882" y="612"/>
      <point x="883" y="589" type="curve" smooth="yes"/>
      <point x="883" y="581"/>
      <point x="881" y="570"/>
      <point x="877" y="559" type="curve" smooth="yes"/>
      <point x="818" y="376"/>
      <point x="754" y="208"/>
      <point x="718" y="118" type="curve"/>
      <point x="714" y="109"/>
      <point x="709" y="105"/>
      <point x="706" y="112" type="curve" smooth="yes"/>
      <point x="585" y="389" type="line" smooth="yes"/>
      <point x="581" y="396"/>
      <point x="587" y="417"/>
      <point x="592" y="427" type="curve" smooth="yes"/>
      <point x="611" y="470"/>
      <point x="649" y="551"/>
      <point x="660" y="570" type="curve" smooth="yes"/>
      <point x="682" y="609"/>
      <point x="693" y="621"/>
      <point x="735" y="627" type="curve" smooth="yes"/>
      <point x="760" y="630"/>
      <point x="772" y="636"/>
      <point x="772" y="644" type="curve" smooth="yes"/>
      <point x="772" y="651"/>
      <point x="759" y="653"/>
      <point x="741" y="653" type="curve" smooth="yes"/>
      <point x="715" y="653"/>
      <point x="699" y="650"/>
      <point x="673" y="650" type="curve" smooth="yes"/>
      <point x="652" y="650"/>
      <point x="647" y="652"/>
      <point x="614" y="652" type="curve" smooth="yes"/>
      <point x="595" y="652"/>
      <point x="582" y="651"/>
      <point x="582" y="641" type="curve" smooth="yes"/>
      <point x="582" y="627"/>
      <point x="630" y="631"/>
      <point x="630" y="604" type="curve" smooth="yes"/>
      <point x="630" y="600"/>
      <point x="628" y="591"/>
      <point x="626" y="586" type="curve" smooth="yes"/>
      <point x="618" y="568"/>
      <point x="590" y="500"/>
      <point x="571" y="459" type="curve" smooth="yes"/>
      <point x="562" y="441"/>
      <point x="558" y="443"/>
      <point x="550" y="459" type="curve" smooth="yes"/>
      <point x="541" y="478"/>
      <point x="498" y="567"/>
      <point x="486" y="600" type="curve" smooth="yes"/>
      <point x="485" y="603"/>
      <point x="484" y="607"/>
      <point x="484" y="609" type="curve" smooth="yes"/>
      <point x="484" y="631"/>
      <point x="534" y="631"/>
      <point x="534" y="642" type="curve" smooth="yes"/>
      <point x="534" y="649"/>
      <point x="519" y="652"/>
      <point x="497" y="652" type="curve" smooth="yes"/>
      <point x="483" y="652"/>
      <point x="455" y="650"/>
      <point x="424" y="650" type="curve" smooth="yes"/>
      <point x="389" y="650"/>
      <point x="365" y="653"/>
      <point x="331" y="653" type="curve" smooth="yes"/>
      <point x="314" y="653"/>
      <point x="303" y="651"/>
      <point x="303" y="644" type="curve" smooth="yes"/>
      <point x="303" y="636"/>
      <point x="314" y="629"/>
      <point x="338" y="625" type="curve" smooth="yes"/>
      <point x="387" y="620"/>
      <point x="412" y="602"/>
      <point x="428" y="569" type="curve" smooth="yes"/>
      <point x="508" y="392" type="line" smooth="yes"/>
      <point x="513" y="379"/>
      <point x="517" y="371"/>
      <point x="517" y="363" type="curve" smooth="yes"/>
      <point x="517" y="357"/>
      <point x="515" y="349"/>
      <point x="510" y="340" type="curve" smooth="yes"/>
      <point x="411" y="124" type="line" smooth="yes"/>
      <point x="406" y="112"/>
      <point x="402" y="109"/>
      <point x="394" y="125" type="curve" smooth="yes"/>
      <point x="315" y="283"/>
      <point x="267" y="376"/>
      <point x="187" y="563" type="curve" smooth="yes"/>
      <point x="183" y="574"/>
      <point x="178" y="589"/>
      <point x="178" y="602" type="curve" smooth="yes"/>
      <point x="178" y="612"/>
      <point x="183" y="622"/>
      <point x="202" y="624" type="curve"/>
      <point x="233" y="630"/>
      <point x="247" y="634"/>
      <point x="247" y="642" type="curve" smooth="yes"/>
      <point x="247" y="650"/>
      <point x="234" y="652"/>
      <point x="215" y="652" type="curve" smooth="yes"/>
      <point x="195" y="652"/>
      <point x="158" y="650"/>
      <point x="119" y="650" type="curve" smooth="yes"/>
      <point x="84" y="650"/>
      <point x="62" y="653"/>
      <point x="26" y="653" type="curve" smooth="yes"/>
      <point x="11" y="653"/>
      <point x="0" y="651"/>
      <point x="0" y="644" type="curve" smooth="yes"/>
      <point x="0" y="636"/>
      <point x="11" y="631"/>
      <point x="36" y="625" type="curve" smooth="yes"/>
      <point x="68" y="618"/>
      <point x="89" y="608"/>
      <point x="103" y="582" type="curve"/>
      <point x="356" y="12" type="line" smooth="yes"/>
      <point x="362" y="-2"/>
      <point x="370" y="-16"/>
    </contour>
  </outline>
</glyph>
<glyph name="X" format="1">
  <advance width="783"/>
  <unicode hex="0058"/>
  <outline>
    <contour>
      <point x="27" y="-4" type="curve" smooth="yes"/>
      <point x="64" y="-4"/>
      <point x="119" y="0"/>
      <point x="169" y="0" type="curve" smooth="yes"/>
      <point x="205" y="0"/>
      <point x="239" y="0"/>
      <point x="257" y="0" type="curve" smooth="yes"/>
      <point x="274" y="0"/>
      <point x="286" y="3"/>
      <point x="286" y="11" type="curve" smooth="yes"/>
      <point x="286" y="19"/>
      <point x="276" y="22"/>
      <point x="255" y="28" type="curve" smooth="yes"/>
      <point x="219" y="34"/>
      <point x="200" y="40"/>
      <point x="200" y="55" type="curve" smooth="yes"/>
      <point x="200" y="63"/>
      <point x="206" y="75"/>
      <point x="218" y="90" type="curve" smooth="yes"/>
      <point x="374" y="275" type="line" smooth="yes"/>
      <point x="382" y="284"/>
      <point x="387" y="284"/>
      <point x="399" y="270" type="curve" smooth="yes"/>
      <point x="536" y="105" type="line"/>
      <point x="546" y="93"/>
      <point x="549" y="82"/>
      <point x="549" y="72" type="curve" smooth="yes"/>
      <point x="549" y="50"/>
      <point x="534" y="35"/>
      <point x="501" y="29" type="curve" smooth="yes"/>
      <point x="486" y="25"/>
      <point x="465" y="21"/>
      <point x="465" y="13" type="curve" smooth="yes"/>
      <point x="465" y="5"/>
      <point x="478" y="1"/>
      <point x="496" y="1" type="curve" smooth="yes"/>
      <point x="521" y="1"/>
      <point x="552" y="2"/>
      <point x="594" y="2" type="curve" smooth="yes"/>
      <point x="643" y="2"/>
      <point x="715" y="-4"/>
      <point x="744" y="-4" type="curve" smooth="yes"/>
      <point x="762" y="-4"/>
      <point x="774" y="-1"/>
      <point x="774" y="6" type="curve" smooth="yes"/>
      <point x="774" y="14"/>
      <point x="763" y="19"/>
      <point x="734" y="24" type="curve" smooth="yes"/>
      <point x="700" y="30"/>
      <point x="653" y="65"/>
      <point x="619" y="108" type="curve" smooth="yes"/>
      <point x="440" y="331" type="line"/>
      <point x="432" y="346"/>
      <point x="437" y="349"/>
      <point x="455" y="371" type="curve" smooth="yes"/>
      <point x="588" y="532" type="line" smooth="yes"/>
      <point x="637" y="591"/>
      <point x="689" y="619"/>
      <point x="734" y="625" type="curve" smooth="yes"/>
      <point x="762" y="630"/>
      <point x="773" y="635"/>
      <point x="773" y="643" type="curve" smooth="yes"/>
      <point x="773" y="650"/>
      <point x="760" y="654"/>
      <point x="740" y="654" type="curve" smooth="yes"/>
      <point x="708" y="654"/>
      <point x="654" y="650"/>
      <point x="609" y="650" type="curve" smooth="yes"/>
      <point x="578" y="650"/>
      <point x="544" y="651"/>
      <point x="518" y="651" type="curve" smooth="yes"/>
      <point x="499" y="651"/>
      <point x="485" y="647"/>
      <point x="485" y="640" type="curve" smooth="yes"/>
      <point x="485" y="631"/>
      <point x="504" y="624"/>
      <point x="521" y="623" type="curve" smooth="yes"/>
      <point x="561" y="621"/>
      <point x="580" y="608"/>
      <point x="580" y="592" type="curve" smooth="yes"/>
      <point x="580" y="581"/>
      <point x="570" y="567"/>
      <point x="559" y="551" type="curve" smooth="yes"/>
      <point x="426" y="388" type="line" smooth="yes"/>
      <point x="414" y="373"/>
      <point x="409" y="370"/>
      <point x="393" y="391" type="curve" smooth="yes"/>
      <point x="265" y="544" type="line"/>
      <point x="244" y="570"/>
      <point x="236" y="585"/>
      <point x="236" y="595" type="curve" smooth="yes"/>
      <point x="236" y="613"/>
      <point x="261" y="621"/>
      <point x="290" y="625" type="curve" smooth="yes"/>
      <point x="310" y="629"/>
      <point x="323" y="633"/>
      <point x="323" y="641" type="curve" smooth="yes"/>
      <point x="323" y="648"/>
      <point x="311" y="653"/>
      <point x="295" y="653" type="curve" smooth="yes"/>
      <point x="276" y="653"/>
      <point x="240" y="652"/>
      <point x="202" y="652" type="curve" smooth="yes"/>
      <point x="150" y="652"/>
      <point x="85" y="655"/>
      <point x="51" y="655" type="curve" smooth="yes"/>
      <point x="34" y="655"/>
      <point x="21" y="653"/>
      <point x="21" y="645" type="curve" smooth="yes"/>
      <point x="21" y="638"/>
      <point x="33" y="632"/>
      <point x="61" y="627" type="curve" smooth="yes"/>
      <point x="96" y="620"/>
      <point x="132" y="598"/>
      <point x="183" y="536" type="curve" smooth="yes"/>
      <point x="341" y="344" type="line" smooth="yes"/>
      <point x="363" y="318"/>
      <point x="352" y="302"/>
      <point x="335" y="283" type="curve"/>
      <point x="194" y="120" type="line" smooth="yes"/>
      <point x="148" y="68"/>
      <point x="69" y="34"/>
      <point x="38" y="27" type="curve" smooth="yes"/>
      <point x="7" y="21"/>
      <point x="-6" y="15"/>
      <point x="-6" y="7" type="curve" smooth="yes"/>
      <point x="-6" y="0"/>
      <point x="8" y="-4"/>
    </contour>
  </outline>
</glyph>
<glyph name="Y" format="1">
  <advance width="623"/>
  <unicode hex="0059"/>
  <outline>
    <contour>
      <point x="205" y="-5" type="curve" smooth="yes"/>
      <point x="258" y="-5"/>
      <point x="282" y="-2"/>
      <point x="331" y="-2" type="curve" smooth="yes"/>
      <point x="377" y="-2"/>
      <point x="393" y="-5"/>
      <point x="447" y="-5" type="curve" smooth="yes"/>
      <point x="464" y="-5"/>
      <point x="477" y="-2"/>
      <point x="477" y="5" type="curve" smooth="yes"/>
      <point x="477" y="13"/>
      <point x="466" y="17"/>
      <point x="442" y="20" type="curve" smooth="yes"/>
      <point x="390" y="26"/>
      <point x="359" y="46"/>
      <point x="359" y="83" type="curve" smooth="yes"/>
      <point x="359" y="259" type="line" smooth="yes"/>
      <point x="359" y="298"/>
      <point x="358" y="306"/>
      <point x="387" y="349" type="curve" smooth="yes"/>
      <point x="439" y="424"/>
      <point x="461" y="459"/>
      <point x="520" y="543" type="curve" smooth="yes"/>
      <point x="555" y="594"/>
      <point x="577" y="616"/>
      <point x="611" y="623" type="curve" smooth="yes"/>
      <point x="638" y="629"/>
      <point x="666" y="634"/>
      <point x="666" y="641" type="curve" smooth="yes"/>
      <point x="666" y="649"/>
      <point x="654" y="653"/>
      <point x="634" y="653" type="curve" smooth="yes"/>
      <point x="609" y="653"/>
      <point x="569" y="651"/>
      <point x="525" y="651" type="curve" smooth="yes"/>
      <point x="493" y="651"/>
      <point x="471" y="652"/>
      <point x="438" y="652" type="curve" smooth="yes"/>
      <point x="420" y="652"/>
      <point x="407" y="649"/>
      <point x="407" y="642" type="curve" smooth="yes"/>
      <point x="407" y="634"/>
      <point x="427" y="626"/>
      <point x="443" y="624" type="curve" smooth="yes"/>
      <point x="475" y="622"/>
      <point x="496" y="612"/>
      <point x="496" y="589" type="curve" smooth="yes"/>
      <point x="496" y="579"/>
      <point x="491" y="565"/>
      <point x="480" y="548" type="curve" smooth="yes"/>
      <point x="443" y="488"/>
      <point x="413" y="438"/>
      <point x="380" y="393" type="curve" smooth="yes"/>
      <point x="361" y="367"/>
      <point x="351" y="349"/>
      <point x="342" y="349" type="curve" smooth="yes"/>
      <point x="335" y="349"/>
      <point x="326" y="361"/>
      <point x="311" y="387" type="curve" smooth="yes"/>
      <point x="196" y="573" type="line" smooth="yes"/>
      <point x="187" y="587"/>
      <point x="181" y="597"/>
      <point x="181" y="605" type="curve" smooth="yes"/>
      <point x="181" y="618"/>
      <point x="200" y="621"/>
      <point x="226" y="624" type="curve" smooth="yes"/>
      <point x="251" y="629"/>
      <point x="263" y="634"/>
      <point x="263" y="642" type="curve" smooth="yes"/>
      <point x="263" y="648"/>
      <point x="250" y="651"/>
      <point x="232" y="651" type="curve" smooth="yes"/>
      <point x="210" y="651"/>
      <point x="182" y="650"/>
      <point x="149" y="650" type="curve" smooth="yes"/>
      <point x="100" y="650"/>
      <point x="63" y="652"/>
      <point x="31" y="652" type="curve" smooth="yes"/>
      <point x="13" y="652"/>
      <point x="0" y="649"/>
      <point x="0" y="642" type="curve" smooth="yes"/>
      <point x="0" y="634"/>
      <point x="12" y="631"/>
      <point x="39" y="624" type="curve" smooth="yes"/>
      <point x="72" y="615"/>
      <point x="104" y="575"/>
      <point x="119" y="553" type="curve" smooth="yes"/>
      <point x="264" y="336" type="line"/>
      <point x="270" y="326"/>
      <point x="291" y="289"/>
      <point x="291" y="264" type="curve" smooth="yes"/>
      <point x="291" y="83" type="line" smooth="yes"/>
      <point x="291" y="44"/>
      <point x="262" y="26"/>
      <point x="209" y="20" type="curve" smooth="yes"/>
      <point x="185" y="17"/>
      <point x="174" y="13"/>
      <point x="174" y="5" type="curve" smooth="yes"/>
      <point x="174" y="-2"/>
      <point x="187" y="-5"/>
    </contour>
  </outline>
</glyph>
<glyph name="Z" format="1">
  <advance width="681"/>
  <unicode hex="005A"/>
  <outline>
    <contour>
      <point x="602" y="-5" type="curve" smooth="yes"/>
      <point x="613" y="-5"/>
      <point x="617" y="4"/>
      <point x="622" y="12" type="curve" smooth="yes"/>
      <point x="634" y="36"/>
      <point x="664" y="147"/>
      <point x="664" y="158" type="curve" smooth="yes"/>
      <point x="664" y="170"/>
      <point x="660" y="175"/>
      <point x="651" y="175" type="curve" smooth="yes"/>
      <point x="637" y="175"/>
      <point x="624" y="158"/>
      <point x="618" y="145" type="curve" smooth="yes"/>
      <point x="592" y="77"/>
      <point x="550" y="41"/>
      <point x="488" y="36" type="curve" smooth="yes"/>
      <point x="432" y="33"/>
      <point x="373" y="31"/>
      <point x="319" y="31" type="curve" smooth="yes"/>
      <point x="267" y="31"/>
      <point x="210" y="34"/>
      <point x="179" y="36" type="curve"/>
      <point x="167" y="38"/>
      <point x="162" y="46"/>
      <point x="162" y="54" type="curve" smooth="yes"/>
      <point x="162" y="58"/>
      <point x="163" y="63"/>
      <point x="165" y="66" type="curve" smooth="yes"/>
      <point x="310" y="247"/>
      <point x="421" y="372"/>
      <point x="573" y="550" type="curve" smooth="yes"/>
      <point x="643" y="631" type="line" smooth="yes"/>
      <point x="648" y="636"/>
      <point x="638" y="649"/>
      <point x="631" y="649" type="curve" smooth="yes"/>
      <point x="547" y="647"/>
      <point x="464" y="646"/>
      <point x="370" y="646" type="curve" smooth="yes"/>
      <point x="319" y="646"/>
      <point x="265" y="646"/>
      <point x="228" y="646" type="curve" smooth="yes"/>
      <point x="190" y="646"/>
      <point x="146" y="656"/>
      <point x="131" y="662" type="curve" smooth="yes"/>
      <point x="119" y="667"/>
      <point x="102" y="676"/>
      <point x="96" y="676" type="curve" smooth="yes"/>
      <point x="90" y="676"/>
      <point x="80" y="674"/>
      <point x="79" y="659" type="curve" smooth="yes"/>
      <point x="76" y="617"/>
      <point x="57" y="564"/>
      <point x="51" y="545" type="curve"/>
      <point x="47" y="535"/>
      <point x="42" y="519"/>
      <point x="42" y="510" type="curve" smooth="yes"/>
      <point x="43" y="503"/>
      <point x="49" y="498"/>
      <point x="58" y="499" type="curve" smooth="yes"/>
      <point x="77" y="500"/>
      <point x="86" y="524"/>
      <point x="92" y="539" type="curve" smooth="yes"/>
      <point x="110" y="580"/>
      <point x="146" y="607"/>
      <point x="200" y="612" type="curve" smooth="yes"/>
      <point x="227" y="613"/>
      <point x="269" y="613"/>
      <point x="312" y="613" type="curve" smooth="yes"/>
      <point x="373" y="613"/>
      <point x="459" y="613"/>
      <point x="500" y="611" type="curve"/>
      <point x="518" y="610"/>
      <point x="523" y="607"/>
      <point x="523" y="603" type="curve" smooth="yes"/>
      <point x="523" y="600"/>
      <point x="520" y="598"/>
      <point x="518" y="595" type="curve" smooth="yes"/>
      <point x="371" y="412"/>
      <point x="251" y="283"/>
      <point x="99" y="104" type="curve" smooth="yes"/>
      <point x="72" y="73"/>
      <point x="32" y="21"/>
      <point x="32" y="11" type="curve"/>
      <point x="32" y="11"/>
      <point x="33" y="-3"/>
      <point x="40" y="-3" type="curve" smooth="yes"/>
      <point x="126" y="-3" type="line" smooth="yes"/>
      <point x="169" y="-3"/>
      <point x="216" y="-2"/>
      <point x="261" y="-2" type="curve" smooth="yes"/>
      <point x="361" y="-2"/>
      <point x="473" y="-5"/>
    </contour>
  </outline>
</glyph>
<glyph name="bracketleft" format="1">
  <advance width="346"/>
  <unicode hex="005B"/>
  <outline>
    <contour>
      <point x="143" y="-200" type="curve" smooth="yes"/>
      <point x="300" y="-200" type="line" smooth="yes"/>
      <point x="312" y="-200"/>
      <point x="326" y="-197"/>
      <point x="326" y="-185" type="curve" smooth="yes"/>
      <point x="326" y="-175"/>
      <point x="311" y="-169"/>
      <point x="297" y="-169" type="curve" smooth="yes"/>
      <point x="199" y="-165" type="line" smooth="yes"/>
      <point x="183" y="-164"/>
      <point x="172" y="-153"/>
      <point x="172" y="-119" type="curve" smooth="yes"/>
      <point x="172" y="627" type="line" smooth="yes"/>
      <point x="172" y="658"/>
      <point x="181" y="668"/>
      <point x="199" y="669" type="curve" smooth="yes"/>
      <point x="297" y="672" type="line" smooth="yes"/>
      <point x="311" y="672"/>
      <point x="326" y="677"/>
      <point x="326" y="688" type="curve" smooth="yes"/>
      <point x="326" y="698"/>
      <point x="316" y="701"/>
      <point x="306" y="701" type="curve" smooth="yes"/>
      <point x="148" y="702" type="line" smooth="yes"/>
      <point x="116" y="702"/>
      <point x="110" y="702"/>
      <point x="110" y="668" type="curve" smooth="yes"/>
      <point x="110" y="-173" type="line" smooth="yes"/>
      <point x="110" y="-199"/>
      <point x="117" y="-200"/>
    </contour>
  </outline>
</glyph>
<glyph name="backslash" format="1">
  <advance width="451"/>
  <unicode hex="005C"/>
  <outline>
    <contour>
      <point x="416" y="-62" type="curve" smooth="yes"/>
      <point x="426" y="-62"/>
      <point x="431" y="-57"/>
      <point x="428" y="-52" type="curve" smooth="yes"/>
      <point x="68" y="652" type="line" smooth="yes"/>
      <point x="63" y="663"/>
      <point x="53" y="664"/>
      <point x="41" y="664" type="curve" smooth="yes"/>
      <point x="32" y="664"/>
      <point x="28" y="659"/>
      <point x="31" y="652" type="curve" smooth="yes"/>
      <point x="392" y="-52" type="line" smooth="yes"/>
      <point x="396" y="-61"/>
      <point x="406" y="-62"/>
    </contour>
  </outline>
</glyph>
<glyph name="underscore" format="1">
  <advance width="564"/>
  <unicode hex="005F"/>
  <outline>
    <contour>
      <point x="10" y="-176" type="curve" smooth="yes"/>
      <point x="541" y="-176" type="line" smooth="yes"/>
      <point x="553" y="-176"/>
      <point x="564" y="-158"/>
      <point x="564" y="-148" type="curve" smooth="yes"/>
      <point x="564" y="-144"/>
      <point x="558" y="-139"/>
      <point x="554" y="-139" type="curve" smooth="yes"/>
      <point x="18" y="-139" type="line" smooth="yes"/>
      <point x="4" y="-139"/>
      <point x="0" y="-161"/>
      <point x="0" y="-167" type="curve" smooth="yes"/>
      <point x="0" y="-171"/>
      <point x="5" y="-176"/>
    </contour>
  </outline>
</glyph>
<glyph name="grave" format="1">
  <advance width="215"/>
  <unicode hex="0060"/>
  <outline>
    <contour>
      <point x="184" y="432" type="curve" smooth="yes"/>
      <point x="191" y="432"/>
      <point x="192" y="433"/>
      <point x="190" y="445" type="curve" smooth="yes"/>
      <point x="189" y="451"/>
      <point x="186" y="460"/>
      <point x="180" y="471" type="curve" smooth="yes"/>
      <point x="161" y="505"/>
      <point x="118" y="574"/>
      <point x="94" y="607" type="curve" smooth="yes"/>
      <point x="84" y="621"/>
      <point x="75" y="628"/>
      <point x="62" y="628" type="curve" smooth="yes"/>
      <point x="41" y="628"/>
      <point x="23" y="620"/>
      <point x="25" y="606" type="curve" smooth="yes"/>
      <point x="25" y="599"/>
      <point x="30" y="592"/>
      <point x="36" y="583" type="curve" smooth="yes"/>
      <point x="66" y="543"/>
      <point x="122" y="485"/>
      <point x="156" y="450" type="curve" smooth="yes"/>
      <point x="166" y="439"/>
      <point x="179" y="432"/>
    </contour>
  </outline>
</glyph>
<glyph name="a" format="1">
  <advance width="427"/>
  <unicode hex="0061"/>
  <outline>
    <contour>
      <point x="131" y="-14" type="curve" smooth="yes"/>
      <point x="178" y="-14"/>
      <point x="228" y="7"/>
      <point x="269" y="48" type="curve"/>
      <point x="273" y="48" type="line"/>
      <point x="286" y="7"/>
      <point x="315" y="-14"/>
      <point x="346" y="-14" type="curve" smooth="yes"/>
      <point x="368" y="-14"/>
      <point x="393" y="2"/>
      <point x="417" y="28" type="curve" smooth="yes"/>
      <point x="422" y="32"/>
      <point x="426" y="40"/>
      <point x="426" y="45" type="curve" smooth="yes"/>
      <point x="426" y="50"/>
      <point x="422" y="55"/>
      <point x="415" y="55" type="curve" smooth="yes"/>
      <point x="412" y="55"/>
      <point x="409" y="52"/>
      <point x="403" y="46" type="curve" smooth="yes"/>
      <point x="394" y="36"/>
      <point x="381" y="30"/>
      <point x="364" y="30" type="curve" smooth="yes"/>
      <point x="337" y="30"/>
      <point x="322" y="48"/>
      <point x="323" y="78" type="curve" smooth="yes"/>
      <point x="329" y="306" type="line" smooth="yes"/>
      <point x="330" y="356"/>
      <point x="293" y="394"/>
      <point x="243" y="394" type="curve" smooth="yes"/>
      <point x="201" y="394"/>
      <point x="136" y="366"/>
      <point x="88" y="325" type="curve" smooth="yes"/>
      <point x="61" y="303"/>
      <point x="45" y="277"/>
      <point x="45" y="256" type="curve" smooth="yes"/>
      <point x="45" y="251"/>
      <point x="49" y="247"/>
      <point x="55" y="247" type="curve" smooth="yes"/>
      <point x="73" y="247"/>
      <point x="113" y="272"/>
      <point x="113" y="282" type="curve" smooth="yes"/>
      <point x="113" y="287"/>
      <point x="112" y="295"/>
      <point x="112" y="298" type="curve" smooth="yes"/>
      <point x="112" y="315"/>
      <point x="116" y="327"/>
      <point x="127" y="335" type="curve" smooth="yes"/>
      <point x="142" y="345"/>
      <point x="166" y="349"/>
      <point x="194" y="349" type="curve" smooth="yes"/>
      <point x="241" y="349"/>
      <point x="269" y="322"/>
      <point x="268" y="287" type="curve" smooth="yes"/>
      <point x="266" y="234" type="line" smooth="yes"/>
      <point x="264" y="207"/>
      <point x="264" y="205"/>
      <point x="236" y="195" type="curve" smooth="yes"/>
      <point x="118" y="153" type="line" smooth="yes"/>
      <point x="65" y="134"/>
      <point x="41" y="111"/>
      <point x="41" y="70" type="curve" smooth="yes"/>
      <point x="41" y="32"/>
      <point x="91" y="-14"/>
    </contour>
    <contour>
      <point x="172" y="31" type="curve" smooth="yes"/>
      <point x="138" y="31"/>
      <point x="109" y="53"/>
      <point x="109" y="87" type="curve" smooth="yes"/>
      <point x="109" y="112"/>
      <point x="133" y="138"/>
      <point x="229" y="166" type="curve" smooth="yes"/>
      <point x="243" y="170"/>
      <point x="251" y="170"/>
      <point x="255" y="170" type="curve" smooth="yes"/>
      <point x="265" y="170"/>
      <point x="267" y="164"/>
      <point x="266" y="150" type="curve" smooth="yes"/>
      <point x="264" y="95" type="line" smooth="yes"/>
      <point x="263" y="71"/>
      <point x="256" y="62"/>
      <point x="247" y="55" type="curve" smooth="yes"/>
      <point x="228" y="40"/>
      <point x="204" y="31"/>
    </contour>
  </outline>
</glyph>
<glyph name="b" format="1">
  <advance width="554"/>
  <unicode hex="0062"/>
  <outline>
    <contour>
      <point x="272" y="-14" type="curve" smooth="yes"/>
      <point x="416" y="-14"/>
      <point x="514" y="76"/>
      <point x="514" y="206" type="curve" smooth="yes"/>
      <point x="514" y="312"/>
      <point x="428" y="394"/>
      <point x="317" y="394" type="curve" smooth="yes"/>
      <point x="269" y="394"/>
      <point x="202" y="369"/>
      <point x="147" y="336" type="curve"/>
      <point x="140" y="337"/>
      <point x="138" y="343"/>
      <point x="138" y="368" type="curve" smooth="yes"/>
      <point x="138" y="593" type="line" smooth="yes"/>
      <point x="138" y="649"/>
      <point x="141" y="693"/>
      <point x="141" y="698" type="curve" smooth="yes"/>
      <point x="141" y="702"/>
      <point x="138" y="705"/>
      <point x="136" y="705" type="curve" smooth="yes"/>
      <point x="134" y="705"/>
      <point x="131" y="704"/>
      <point x="127" y="702" type="curve" smooth="yes"/>
      <point x="113" y="695"/>
      <point x="56" y="675"/>
      <point x="31" y="670" type="curve" smooth="yes"/>
      <point x="25" y="668"/>
      <point x="18" y="665"/>
      <point x="18" y="660" type="curve" smooth="yes"/>
      <point x="18" y="655"/>
      <point x="25" y="649"/>
      <point x="32" y="648" type="curve" smooth="yes"/>
      <point x="70" y="637"/>
      <point x="79" y="630"/>
      <point x="79" y="591" type="curve" smooth="yes"/>
      <point x="79" y="81" type="line" smooth="yes"/>
      <point x="79" y="56"/>
      <point x="71" y="21"/>
      <point x="71" y="9" type="curve" smooth="yes"/>
      <point x="71" y="2"/>
      <point x="76" y="-3"/>
      <point x="80" y="-3" type="curve" smooth="yes"/>
      <point x="82" y="-3"/>
      <point x="84" y="-1"/>
      <point x="87" y="2" type="curve" smooth="yes"/>
      <point x="91" y="8"/>
      <point x="98" y="15"/>
      <point x="107" y="15" type="curve" smooth="yes"/>
      <point x="115" y="15"/>
      <point x="146" y="7"/>
      <point x="178" y="-1" type="curve" smooth="yes"/>
      <point x="206" y="-8"/>
      <point x="240" y="-14"/>
    </contour>
    <contour>
      <point x="303" y="14" type="curve" smooth="yes"/>
      <point x="216" y="14"/>
      <point x="138" y="55"/>
      <point x="138" y="124" type="curve" smooth="yes"/>
      <point x="138" y="306" type="line"/>
      <point x="173" y="332"/>
      <point x="221" y="349"/>
      <point x="285" y="349" type="curve" smooth="yes"/>
      <point x="399" y="349"/>
      <point x="450" y="257"/>
      <point x="450" y="182" type="curve" smooth="yes"/>
      <point x="450" y="86"/>
      <point x="394" y="14"/>
    </contour>
  </outline>
</glyph>
<glyph name="c" format="1">
  <advance width="447"/>
  <unicode hex="0063"/>
  <outline>
    <contour>
      <point x="235" y="-15" type="curve" smooth="yes"/>
      <point x="302" y="-15"/>
      <point x="355" y="8"/>
      <point x="390" y="49" type="curve" smooth="yes"/>
      <point x="401" y="62"/>
      <point x="409" y="79"/>
      <point x="409" y="88" type="curve" smooth="yes"/>
      <point x="409" y="94"/>
      <point x="406" y="97"/>
      <point x="401" y="97" type="curve" smooth="yes"/>
      <point x="399" y="97"/>
      <point x="395" y="95"/>
      <point x="392" y="92" type="curve" smooth="yes"/>
      <point x="353" y="59"/>
      <point x="323" y="46"/>
      <point x="276" y="46" type="curve" smooth="yes"/>
      <point x="178" y="46"/>
      <point x="98" y="118"/>
      <point x="98" y="199" type="curve" smooth="yes"/>
      <point x="98" y="298"/>
      <point x="151" y="364"/>
      <point x="227" y="364" type="curve" smooth="yes"/>
      <point x="256" y="364"/>
      <point x="300" y="336"/>
      <point x="332" y="310" type="curve" smooth="yes"/>
      <point x="346" y="301"/>
      <point x="356" y="294"/>
      <point x="366" y="294" type="curve" smooth="yes"/>
      <point x="383" y="294"/>
      <point x="411" y="318"/>
      <point x="411" y="337" type="curve" smooth="yes"/>
      <point x="411" y="347"/>
      <point x="405" y="354"/>
      <point x="396" y="360" type="curve" smooth="yes"/>
      <point x="361" y="383"/>
      <point x="316" y="394"/>
      <point x="269" y="394" type="curve" smooth="yes"/>
      <point x="135" y="394"/>
      <point x="40" y="296"/>
      <point x="40" y="171" type="curve" smooth="yes"/>
      <point x="40" y="65"/>
      <point x="124" y="-15"/>
    </contour>
  </outline>
</glyph>
<glyph name="d" format="1">
  <advance width="550"/>
  <unicode hex="0064"/>
  <outline>
    <contour>
      <point x="410" y="-19" type="curve" smooth="yes"/>
      <point x="414" y="-19"/>
      <point x="417" y="-18"/>
      <point x="428" y="-12" type="curve" smooth="yes"/>
      <point x="468" y="7"/>
      <point x="500" y="17"/>
      <point x="531" y="20" type="curve" smooth="yes"/>
      <point x="540" y="21"/>
      <point x="548" y="29"/>
      <point x="548" y="38" type="curve" smooth="yes"/>
      <point x="548" y="45"/>
      <point x="541" y="48"/>
      <point x="528" y="47" type="curve" smooth="yes"/>
      <point x="510" y="46"/>
      <point x="493" y="45"/>
      <point x="486" y="45" type="curve" smooth="yes"/>
      <point x="471" y="45"/>
      <point x="465" y="63"/>
      <point x="465" y="96" type="curve" smooth="yes"/>
      <point x="465" y="562" type="line" smooth="yes"/>
      <point x="465" y="652"/>
      <point x="472" y="686"/>
      <point x="471" y="698" type="curve" smooth="yes"/>
      <point x="470" y="702"/>
      <point x="468" y="704"/>
      <point x="465" y="704" type="curve" smooth="yes"/>
      <point x="462" y="704"/>
      <point x="457" y="703"/>
      <point x="453" y="701" type="curve" smooth="yes"/>
      <point x="432" y="693"/>
      <point x="403" y="684"/>
      <point x="353" y="670" type="curve" smooth="yes"/>
      <point x="345" y="668"/>
      <point x="342" y="664"/>
      <point x="342" y="659" type="curve" smooth="yes"/>
      <point x="342" y="655"/>
      <point x="346" y="649"/>
      <point x="353" y="648" type="curve" smooth="yes"/>
      <point x="391" y="641"/>
      <point x="405" y="634"/>
      <point x="405" y="592" type="curve" smooth="yes"/>
      <point x="405" y="403" type="line" smooth="yes"/>
      <point x="405" y="383"/>
      <point x="401" y="377"/>
      <point x="397" y="377" type="curve" smooth="yes"/>
      <point x="394" y="377"/>
      <point x="389" y="377"/>
      <point x="382" y="380" type="curve" smooth="yes"/>
      <point x="364" y="387"/>
      <point x="329" y="394"/>
      <point x="296" y="394" type="curve" smooth="yes"/>
      <point x="138" y="394"/>
      <point x="40" y="296"/>
      <point x="40" y="180" type="curve" smooth="yes"/>
      <point x="40" y="84"/>
      <point x="122" y="-14"/>
      <point x="253" y="-14" type="curve" smooth="yes"/>
      <point x="329" y="-14"/>
      <point x="381" y="28"/>
      <point x="404" y="58" type="curve"/>
      <point x="404" y="50" type="line" smooth="yes"/>
      <point x="404" y="33"/>
      <point x="398" y="4"/>
      <point x="398" y="-9" type="curve" smooth="yes"/>
      <point x="398" y="-12"/>
      <point x="406" y="-19"/>
    </contour>
    <contour>
      <point x="287" y="30" type="curve" smooth="yes"/>
      <point x="233" y="30"/>
      <point x="102" y="53"/>
      <point x="102" y="201" type="curve" smooth="yes"/>
      <point x="102" y="330"/>
      <point x="197" y="365"/>
      <point x="254" y="365" type="curve" smooth="yes"/>
      <point x="369" y="365"/>
      <point x="406" y="329"/>
      <point x="405" y="272" type="curve" smooth="yes"/>
      <point x="404" y="78" type="line"/>
      <point x="373" y="50"/>
      <point x="330" y="30"/>
    </contour>
  </outline>
</glyph>
<glyph name="e" format="1">
  <advance width="430"/>
  <unicode hex="0065"/>
  <outline>
    <contour>
      <point x="235" y="-15" type="curve" smooth="yes"/>
      <point x="292" y="-15"/>
      <point x="347" y="9"/>
      <point x="381" y="48" type="curve" smooth="yes"/>
      <point x="395" y="62"/>
      <point x="404" y="77"/>
      <point x="404" y="92" type="curve" smooth="yes"/>
      <point x="404" y="98"/>
      <point x="402" y="102"/>
      <point x="396" y="102" type="curve" smooth="yes"/>
      <point x="392" y="102"/>
      <point x="390" y="101"/>
      <point x="382" y="91" type="curve" smooth="yes"/>
      <point x="355" y="62"/>
      <point x="315" y="46"/>
      <point x="267" y="46" type="curve" smooth="yes"/>
      <point x="164" y="46"/>
      <point x="88" y="117"/>
      <point x="88" y="206" type="curve" smooth="yes"/>
      <point x="88" y="232"/>
      <point x="95" y="239"/>
      <point x="117" y="239" type="curve" smooth="yes"/>
      <point x="363" y="239" type="line" smooth="yes"/>
      <point x="387" y="239"/>
      <point x="397" y="249"/>
      <point x="397" y="270" type="curve" smooth="yes"/>
      <point x="397" y="344"/>
      <point x="335" y="394"/>
      <point x="246" y="394" type="curve" smooth="yes"/>
      <point x="128" y="394"/>
      <point x="34" y="306"/>
      <point x="34" y="193" type="curve" smooth="yes"/>
      <point x="34" y="68"/>
      <point x="114" y="-15"/>
    </contour>
    <contour>
      <point x="122" y="264" type="line" smooth="yes"/>
      <point x="112" y="264"/>
      <point x="107" y="267"/>
      <point x="107" y="274" type="curve" smooth="yes"/>
      <point x="107" y="317"/>
      <point x="174" y="367"/>
      <point x="231" y="367" type="curve" smooth="yes"/>
      <point x="292" y="367"/>
      <point x="339" y="333"/>
      <point x="339" y="292" type="curve" smooth="yes"/>
      <point x="339" y="277"/>
      <point x="336" y="270"/>
      <point x="329" y="269" type="curve" smooth="yes"/>
      <point x="301" y="265"/>
      <point x="276" y="264"/>
      <point x="236" y="264" type="curve" smooth="yes"/>
    </contour>
  </outline>
</glyph>
<glyph name="f" format="1">
  <advance width="344"/>
  <unicode hex="0066"/>
  <outline>
    <contour>
      <point x="48" y="-4" type="curve" smooth="yes"/>
      <point x="89" y="-4"/>
      <point x="94" y="2"/>
      <point x="130" y="2" type="curve" smooth="yes"/>
      <point x="166" y="2"/>
      <point x="191" y="-4"/>
      <point x="232" y="-4" type="curve" smooth="yes"/>
      <point x="244" y="-4"/>
      <point x="253" y="-2"/>
      <point x="253" y="5" type="curve" smooth="yes"/>
      <point x="253" y="15"/>
      <point x="242" y="18"/>
      <point x="227" y="20" type="curve" smooth="yes"/>
      <point x="175" y="27"/>
      <point x="157" y="33"/>
      <point x="157" y="60" type="curve" smooth="yes"/>
      <point x="157" y="335" type="line" smooth="yes"/>
      <point x="157" y="339"/>
      <point x="161" y="343"/>
      <point x="179" y="343" type="curve" smooth="yes"/>
      <point x="294" y="343" type="line" smooth="yes"/>
      <point x="302" y="343"/>
      <point x="308" y="344"/>
      <point x="311" y="349" type="curve" smooth="yes"/>
      <point x="315" y="354"/>
      <point x="320" y="367"/>
      <point x="320" y="372" type="curve" smooth="yes"/>
      <point x="320" y="376"/>
      <point x="313" y="380"/>
      <point x="306" y="380" type="curve" smooth="yes"/>
      <point x="170" y="380" type="line" smooth="yes"/>
      <point x="163" y="380"/>
      <point x="157" y="381"/>
      <point x="157" y="391" type="curve" smooth="yes"/>
      <point x="157" y="493" type="line" smooth="yes"/>
      <point x="157" y="607"/>
      <point x="215" y="669"/>
      <point x="280" y="669" type="curve" smooth="yes"/>
      <point x="328" y="669"/>
      <point x="353" y="652"/>
      <point x="378" y="625" type="curve" smooth="yes"/>
      <point x="391" y="613"/>
      <point x="405" y="602"/>
      <point x="419" y="602" type="curve" smooth="yes"/>
      <point x="440" y="602"/>
      <point x="460" y="615"/>
      <point x="460" y="640" type="curve" smooth="yes"/>
      <point x="460" y="678"/>
      <point x="419" y="706"/>
      <point x="339" y="706" type="curve" smooth="yes"/>
      <point x="235" y="706"/>
      <point x="98" y="646"/>
      <point x="98" y="416" type="curve" smooth="yes"/>
      <point x="98" y="386" type="line"/>
      <point x="75" y="380"/>
      <point x="60" y="372"/>
      <point x="37" y="364" type="curve" smooth="yes"/>
      <point x="33" y="361"/>
      <point x="27" y="358"/>
      <point x="27" y="355" type="curve" smooth="yes"/>
      <point x="27" y="351"/>
      <point x="38" y="343"/>
      <point x="43" y="343" type="curve" smooth="yes"/>
      <point x="67" y="342"/>
      <point x="83" y="342"/>
      <point x="98" y="342" type="curve"/>
      <point x="98" y="60" type="line" smooth="yes"/>
      <point x="98" y="33"/>
      <point x="83" y="27"/>
      <point x="53" y="20" type="curve" smooth="yes"/>
      <point x="38" y="18"/>
      <point x="27" y="15"/>
      <point x="27" y="5" type="curve" smooth="yes"/>
      <point x="27" y="-2"/>
      <point x="36" y="-4"/>
    </contour>
  </outline>
</glyph>
<glyph name="g" format="1">
  <advance width="463"/>
  <unicode hex="0067"/>
  <outline>
    <contour>
      <point x="205" y="-290" type="curve" smooth="yes"/>
      <point x="324" y="-290"/>
      <point x="448" y="-183"/>
      <point x="447" y="-77" type="curve" smooth="yes"/>
      <point x="446" y="-17"/>
      <point x="382" y="16"/>
      <point x="248" y="23" type="curve" smooth="yes"/>
      <point x="157" y="28"/>
      <point x="99" y="43"/>
      <point x="101" y="73" type="curve" smooth="yes"/>
      <point x="101" y="87"/>
      <point x="129" y="109"/>
      <point x="160" y="121" type="curve"/>
      <point x="135" y="140" type="line"/>
      <point x="123" y="124"/>
      <point x="121" y="122"/>
      <point x="69" y="86" type="curve" smooth="yes"/>
      <point x="51" y="72"/>
      <point x="42" y="61"/>
      <point x="42" y="47" type="curve" smooth="yes"/>
      <point x="42" y="-7"/>
      <point x="85" y="-28"/>
      <point x="222" y="-38" type="curve" smooth="yes"/>
      <point x="349" y="-46"/>
      <point x="393" y="-62"/>
      <point x="394" y="-111" type="curve" smooth="yes"/>
      <point x="395" y="-157"/>
      <point x="371" y="-199"/>
      <point x="335" y="-225" type="curve" smooth="yes"/>
      <point x="307" y="-244"/>
      <point x="268" y="-254"/>
      <point x="219" y="-254" type="curve" smooth="yes"/>
      <point x="140" y="-254"/>
      <point x="77" y="-214"/>
      <point x="77" y="-158" type="curve" smooth="yes"/>
      <point x="77" y="-104"/>
      <point x="104" y="-69"/>
      <point x="170" y="-27" type="curve"/>
      <point x="143" y="-19" type="line"/>
      <point x="107" y="-47"/>
      <point x="69" y="-75"/>
      <point x="49" y="-92" type="curve" smooth="yes"/>
      <point x="23" y="-111"/>
      <point x="12" y="-134"/>
      <point x="12" y="-170" type="curve" smooth="yes"/>
      <point x="12" y="-244"/>
      <point x="87" y="-290"/>
    </contour>
    <contour>
      <point x="221" y="134" type="curve" smooth="yes"/>
      <point x="155" y="134"/>
      <point x="103" y="183"/>
      <point x="103" y="257" type="curve" smooth="yes"/>
      <point x="103" y="322"/>
      <point x="154" y="369"/>
      <point x="212" y="369" type="curve" smooth="yes"/>
      <point x="277" y="369"/>
      <point x="329" y="326"/>
      <point x="329" y="263" type="curve" smooth="yes"/>
      <point x="329" y="186"/>
      <point x="283" y="134"/>
    </contour>
    <contour>
      <point x="214" y="105" type="curve" smooth="yes"/>
      <point x="305" y="105"/>
      <point x="384" y="184"/>
      <point x="384" y="276" type="curve" smooth="yes"/>
      <point x="384" y="288"/>
      <point x="387" y="311"/>
      <point x="390" y="322" type="curve" smooth="yes"/>
      <point x="392" y="329"/>
      <point x="403" y="333"/>
      <point x="422" y="333" type="curve" smooth="yes"/>
      <point x="451" y="333" type="line" smooth="yes"/>
      <point x="453" y="333"/>
      <point x="456" y="335"/>
      <point x="460" y="338" type="curve" smooth="yes"/>
      <point x="466" y="343"/>
      <point x="470" y="349"/>
      <point x="470" y="355" type="curve" smooth="yes"/>
      <point x="470" y="363"/>
      <point x="464" y="369"/>
      <point x="456" y="369" type="curve" smooth="yes"/>
      <point x="446" y="369"/>
      <point x="415" y="367"/>
      <point x="398" y="367" type="curve" smooth="yes"/>
      <point x="377" y="367"/>
      <point x="360" y="368"/>
      <point x="326" y="376" type="curve" smooth="yes"/>
      <point x="297" y="384"/>
      <point x="269" y="396"/>
      <point x="227" y="396" type="curve" smooth="yes"/>
      <point x="130" y="396"/>
      <point x="42" y="335"/>
      <point x="42" y="248" type="curve" smooth="yes"/>
      <point x="42" y="171"/>
      <point x="128" y="105"/>
    </contour>
  </outline>
</glyph>
<glyph name="h" format="1">
  <advance width="562"/>
  <unicode hex="0068"/>
  <outline>
    <contour>
      <point x="42" y="-3" type="curve" smooth="yes"/>
      <point x="81" y="-3"/>
      <point x="86" y="1"/>
      <point x="120" y="1" type="curve" smooth="yes"/>
      <point x="154" y="1"/>
      <point x="156" y="-3"/>
      <point x="196" y="-3" type="curve" smooth="yes"/>
      <point x="211" y="-3"/>
      <point x="216" y="0"/>
      <point x="216" y="7" type="curve" smooth="yes"/>
      <point x="216" y="14"/>
      <point x="208" y="18"/>
      <point x="193" y="21" type="curve" smooth="yes"/>
      <point x="172" y="27"/>
      <point x="150" y="31"/>
      <point x="150" y="52" type="curve" smooth="yes"/>
      <point x="150" y="258" type="line" smooth="yes"/>
      <point x="150" y="291"/>
      <point x="157" y="303"/>
      <point x="177" y="318" type="curve" smooth="yes"/>
      <point x="204" y="333"/>
      <point x="252" y="342"/>
      <point x="293" y="342" type="curve" smooth="yes"/>
      <point x="354" y="342"/>
      <point x="409" y="304"/>
      <point x="409" y="250" type="curve" smooth="yes"/>
      <point x="409" y="52" type="line" smooth="yes"/>
      <point x="409" y="32"/>
      <point x="387" y="27"/>
      <point x="366" y="21" type="curve" smooth="yes"/>
      <point x="350" y="18"/>
      <point x="342" y="14"/>
      <point x="342" y="6" type="curve" smooth="yes"/>
      <point x="342" y="-1"/>
      <point x="350" y="-3"/>
      <point x="362" y="-3" type="curve" smooth="yes"/>
      <point x="401" y="-3"/>
      <point x="406" y="1"/>
      <point x="439" y="1" type="curve" smooth="yes"/>
      <point x="473" y="1"/>
      <point x="477" y="-3"/>
      <point x="516" y="-3" type="curve" smooth="yes"/>
      <point x="528" y="-3"/>
      <point x="536" y="-1"/>
      <point x="536" y="6" type="curve" smooth="yes"/>
      <point x="536" y="15"/>
      <point x="526" y="18"/>
      <point x="512" y="21" type="curve" smooth="yes"/>
      <point x="492" y="27"/>
      <point x="469" y="32"/>
      <point x="469" y="52" type="curve" smooth="yes"/>
      <point x="469" y="258" type="line" smooth="yes"/>
      <point x="469" y="336"/>
      <point x="412" y="394"/>
      <point x="337" y="394" type="curve" smooth="yes"/>
      <point x="254" y="394"/>
      <point x="180" y="342"/>
      <point x="143" y="321" type="curve"/>
      <point x="161" y="325" type="line"/>
      <point x="153" y="338"/>
      <point x="150" y="342"/>
      <point x="150" y="368" type="curve" smooth="yes"/>
      <point x="150" y="562" type="line" smooth="yes"/>
      <point x="150" y="669"/>
      <point x="159" y="686"/>
      <point x="159" y="698" type="curve" smooth="yes"/>
      <point x="159" y="702"/>
      <point x="156" y="705"/>
      <point x="152" y="705" type="curve" smooth="yes"/>
      <point x="150" y="705"/>
      <point x="148" y="704"/>
      <point x="146" y="703" type="curve"/>
      <point x="116" y="689"/>
      <point x="69" y="675"/>
      <point x="46" y="670" type="curve" smooth="yes"/>
      <point x="36" y="669"/>
      <point x="34" y="665"/>
      <point x="34" y="659" type="curve" smooth="yes"/>
      <point x="34" y="653"/>
      <point x="38" y="648"/>
      <point x="46" y="647" type="curve" smooth="yes"/>
      <point x="80" y="643"/>
      <point x="91" y="625"/>
      <point x="91" y="603" type="curve" smooth="yes"/>
      <point x="91" y="52" type="line" smooth="yes"/>
      <point x="91" y="31"/>
      <point x="67" y="26"/>
      <point x="46" y="21" type="curve" smooth="yes"/>
      <point x="28" y="18"/>
      <point x="21" y="15"/>
      <point x="21" y="7" type="curve" smooth="yes"/>
      <point x="21" y="0"/>
      <point x="30" y="-3"/>
    </contour>
  </outline>
</glyph>
<glyph name="i" format="1">
  <advance width="246"/>
  <unicode hex="0069"/>
  <outline>
    <contour>
      <point x="47" y="-3" type="curve" smooth="yes"/>
      <point x="85" y="-3"/>
      <point x="92" y="2"/>
      <point x="126" y="2" type="curve" smooth="yes"/>
      <point x="160" y="3"/>
      <point x="168" y="-3"/>
      <point x="205" y="-3" type="curve" smooth="yes"/>
      <point x="218" y="-3"/>
      <point x="225" y="1"/>
      <point x="225" y="7" type="curve" smooth="yes"/>
      <point x="225" y="15"/>
      <point x="213" y="19"/>
      <point x="201" y="22" type="curve" smooth="yes"/>
      <point x="174" y="28"/>
      <point x="156" y="34"/>
      <point x="156" y="56" type="curve" smooth="yes"/>
      <point x="156" y="276" type="line" smooth="yes"/>
      <point x="156" y="320"/>
      <point x="165" y="389"/>
      <point x="165" y="406" type="curve" smooth="yes"/>
      <point x="165" y="411"/>
      <point x="162" y="415"/>
      <point x="157" y="415" type="curve" smooth="yes"/>
      <point x="152" y="415"/>
      <point x="145" y="411"/>
      <point x="141" y="406" type="curve" smooth="yes"/>
      <point x="124" y="390"/>
      <point x="100" y="368"/>
      <point x="49" y="355" type="curve" smooth="yes"/>
      <point x="43" y="354"/>
      <point x="39" y="350"/>
      <point x="39" y="345" type="curve" smooth="yes"/>
      <point x="39" y="339"/>
      <point x="43" y="335"/>
      <point x="51" y="333" type="curve" smooth="yes"/>
      <point x="85" y="328"/>
      <point x="96" y="303"/>
      <point x="96" y="268" type="curve" smooth="yes"/>
      <point x="96" y="56" type="line" smooth="yes"/>
      <point x="96" y="33"/>
      <point x="79" y="28"/>
      <point x="51" y="22" type="curve" smooth="yes"/>
      <point x="39" y="19"/>
      <point x="27" y="16"/>
      <point x="27" y="7" type="curve" smooth="yes"/>
      <point x="27" y="1"/>
      <point x="35" y="-3"/>
    </contour>
    <contour>
      <point x="125" y="503" type="curve" smooth="yes"/>
      <point x="152" y="503"/>
      <point x="172" y="523"/>
      <point x="172" y="549" type="curve" smooth="yes"/>
      <point x="172" y="576"/>
      <point x="152" y="596"/>
      <point x="125" y="596" type="curve" smooth="yes"/>
      <point x="99" y="596"/>
      <point x="79" y="576"/>
      <point x="79" y="549" type="curve" smooth="yes"/>
      <point x="79" y="523"/>
      <point x="99" y="503"/>
    </contour>
  </outline>
</glyph>
<glyph name="j" format="1">
  <advance width="223"/>
  <unicode hex="006A"/>
  <outline>
    <contour>
      <point x="-2" y="-287" type="curve" smooth="yes"/>
      <point x="38" y="-287"/>
      <point x="97" y="-220"/>
      <point x="121" y="-152" type="curve" smooth="yes"/>
      <point x="147" y="-72"/>
      <point x="148" y="29"/>
      <point x="148" y="91" type="curve" smooth="yes"/>
      <point x="148" y="256" type="line" smooth="yes"/>
      <point x="148" y="301"/>
      <point x="151" y="369"/>
      <point x="155" y="410" type="curve"/>
      <point x="155" y="413"/>
      <point x="152" y="415"/>
      <point x="148" y="415" type="curve" smooth="yes"/>
      <point x="147" y="415"/>
      <point x="142" y="410"/>
      <point x="136" y="406" type="curve" smooth="yes"/>
      <point x="120" y="393"/>
      <point x="96" y="368"/>
      <point x="42" y="355" type="curve" smooth="yes"/>
      <point x="36" y="354"/>
      <point x="33" y="348"/>
      <point x="33" y="345" type="curve" smooth="yes"/>
      <point x="33" y="339"/>
      <point x="36" y="335"/>
      <point x="43" y="334" type="curve" smooth="yes"/>
      <point x="78" y="329"/>
      <point x="89" y="304"/>
      <point x="89" y="273" type="curve" smooth="yes"/>
      <point x="89" y="48" type="line" smooth="yes"/>
      <point x="89" y="-20"/>
      <point x="86" y="-153"/>
      <point x="57" y="-213" type="curve" smooth="yes"/>
      <point x="38" y="-252"/>
      <point x="15" y="-232"/>
      <point x="-13" y="-239" type="curve" smooth="yes"/>
      <point x="-20" y="-241"/>
      <point x="-34" y="-254"/>
      <point x="-34" y="-268" type="curve" smooth="yes"/>
      <point x="-34" y="-281"/>
      <point x="-14" y="-287"/>
    </contour>
    <contour>
      <point x="112" y="503" type="curve" smooth="yes"/>
      <point x="139" y="503"/>
      <point x="159" y="523"/>
      <point x="159" y="549" type="curve" smooth="yes"/>
      <point x="159" y="576"/>
      <point x="139" y="596"/>
      <point x="112" y="596" type="curve" smooth="yes"/>
      <point x="86" y="596"/>
      <point x="67" y="576"/>
      <point x="67" y="549" type="curve" smooth="yes"/>
      <point x="67" y="523"/>
      <point x="86" y="503"/>
    </contour>
  </outline>
</glyph>
<glyph name="k" format="1">
  <advance width="515"/>
  <unicode hex="006B"/>
  <outline>
    <contour>
      <point x="46" y="-3" type="curve" smooth="yes"/>
      <point x="85" y="-3"/>
      <point x="88" y="3"/>
      <point x="123" y="3" type="curve" smooth="yes"/>
      <point x="157" y="3"/>
      <point x="153" y="-3"/>
      <point x="192" y="-3" type="curve" smooth="yes"/>
      <point x="197" y="-3"/>
      <point x="217" y="-2"/>
      <point x="217" y="8" type="curve" smooth="yes"/>
      <point x="217" y="17"/>
      <point x="204" y="19"/>
      <point x="190" y="22" type="curve" smooth="yes"/>
      <point x="165" y="27"/>
      <point x="151" y="34"/>
      <point x="151" y="64" type="curve" smooth="yes"/>
      <point x="150" y="98"/>
      <point x="150" y="119"/>
      <point x="150" y="137" type="curve" smooth="yes"/>
      <point x="150" y="160"/>
      <point x="150" y="170"/>
      <point x="151" y="188" type="curve"/>
      <point x="151" y="193"/>
      <point x="154" y="195"/>
      <point x="157" y="195" type="curve" smooth="yes"/>
      <point x="162" y="195"/>
      <point x="164" y="193"/>
      <point x="169" y="188" type="curve" smooth="yes"/>
      <point x="342" y="50" type="line"/>
      <point x="347" y="45"/>
      <point x="351" y="41"/>
      <point x="351" y="37" type="curve" smooth="yes"/>
      <point x="351" y="28"/>
      <point x="336" y="24"/>
      <point x="307" y="22" type="curve" smooth="yes"/>
      <point x="297" y="20"/>
      <point x="288" y="16"/>
      <point x="288" y="9" type="curve" smooth="yes"/>
      <point x="288" y="5"/>
      <point x="293" y="1"/>
      <point x="308" y="1" type="curve" smooth="yes"/>
      <point x="381" y="1"/>
      <point x="448" y="-3"/>
      <point x="503" y="-3" type="curve" smooth="yes"/>
      <point x="516" y="-3"/>
      <point x="525" y="-1"/>
      <point x="525" y="7" type="curve" smooth="yes"/>
      <point x="525" y="15"/>
      <point x="513" y="19"/>
      <point x="499" y="21" type="curve" smooth="yes"/>
      <point x="471" y="26"/>
      <point x="445" y="40"/>
      <point x="411" y="68" type="curve" smooth="yes"/>
      <point x="380" y="91"/>
      <point x="289" y="159"/>
      <point x="226" y="210" type="curve" smooth="yes"/>
      <point x="224" y="212"/>
      <point x="223" y="215"/>
      <point x="223" y="217" type="curve" smooth="yes"/>
      <point x="223" y="220"/>
      <point x="225" y="223"/>
      <point x="229" y="226" type="curve" smooth="yes"/>
      <point x="282" y="268"/>
      <point x="371" y="322"/>
      <point x="392" y="334" type="curve" smooth="yes"/>
      <point x="414" y="348"/>
      <point x="435" y="357"/>
      <point x="462" y="363" type="curve" smooth="yes"/>
      <point x="478" y="367"/>
      <point x="490" y="372"/>
      <point x="490" y="379" type="curve" smooth="yes"/>
      <point x="490" y="385"/>
      <point x="484" y="387"/>
      <point x="474" y="387" type="curve" smooth="yes"/>
      <point x="452" y="387"/>
      <point x="409" y="380"/>
      <point x="375" y="380" type="curve" smooth="yes"/>
      <point x="319" y="380" type="line" smooth="yes"/>
      <point x="303" y="380"/>
      <point x="294" y="376"/>
      <point x="294" y="370" type="curve" smooth="yes"/>
      <point x="294" y="365"/>
      <point x="298" y="362"/>
      <point x="308" y="361" type="curve" smooth="yes"/>
      <point x="332" y="360"/>
      <point x="344" y="355"/>
      <point x="344" y="345" type="curve" smooth="yes"/>
      <point x="344" y="342"/>
      <point x="342" y="338"/>
      <point x="335" y="333" type="curve" smooth="yes"/>
      <point x="305" y="307"/>
      <point x="260" y="274"/>
      <point x="200" y="233" type="curve" smooth="yes"/>
      <point x="182" y="221"/>
      <point x="167" y="214"/>
      <point x="157" y="214" type="curve" smooth="yes"/>
      <point x="153" y="214"/>
      <point x="151" y="217"/>
      <point x="151" y="223" type="curve" smooth="yes"/>
      <point x="151" y="562" type="line" smooth="yes"/>
      <point x="151" y="647"/>
      <point x="161" y="682"/>
      <point x="161" y="696" type="curve" smooth="yes"/>
      <point x="161" y="702"/>
      <point x="160" y="705"/>
      <point x="155" y="705" type="curve" smooth="yes"/>
      <point x="152" y="705"/>
      <point x="146" y="703"/>
      <point x="141" y="700" type="curve" smooth="yes"/>
      <point x="115" y="686"/>
      <point x="80" y="678"/>
      <point x="48" y="671" type="curve" smooth="yes"/>
      <point x="40" y="669"/>
      <point x="35" y="666"/>
      <point x="34" y="659" type="curve" smooth="yes"/>
      <point x="34" y="652"/>
      <point x="37" y="649"/>
      <point x="46" y="647" type="curve" smooth="yes"/>
      <point x="88" y="642"/>
      <point x="91" y="629"/>
      <point x="91" y="585" type="curve" smooth="yes"/>
      <point x="91" y="61" type="line" smooth="yes"/>
      <point x="91" y="34"/>
      <point x="74" y="27"/>
      <point x="46" y="22" type="curve" smooth="yes"/>
      <point x="34" y="19"/>
      <point x="21" y="17"/>
      <point x="21" y="7" type="curve" smooth="yes"/>
      <point x="21" y="-1"/>
      <point x="30" y="-3"/>
    </contour>
  </outline>
</glyph>
<glyph name="l" format="1">
  <advance width="240"/>
  <unicode hex="006C"/>
  <outline>
    <contour>
      <point x="40" y="-3" type="curve" smooth="yes"/>
      <point x="77" y="-3"/>
      <point x="87" y="2"/>
      <point x="120" y="2" type="curve" smooth="yes"/>
      <point x="154" y="2"/>
      <point x="163" y="-3"/>
      <point x="200" y="-3" type="curve" smooth="yes"/>
      <point x="206" y="-3"/>
      <point x="219" y="-2"/>
      <point x="219" y="6" type="curve" smooth="yes"/>
      <point x="219" y="15"/>
      <point x="207" y="19"/>
      <point x="196" y="22" type="curve" smooth="yes"/>
      <point x="173" y="27"/>
      <point x="150" y="31"/>
      <point x="150" y="58" type="curve" smooth="yes"/>
      <point x="150" y="562" type="line" smooth="yes"/>
      <point x="150" y="652"/>
      <point x="157" y="686"/>
      <point x="157" y="698" type="curve" smooth="yes"/>
      <point x="157" y="701"/>
      <point x="154" y="705"/>
      <point x="150" y="705" type="curve" smooth="yes"/>
      <point x="147" y="705"/>
      <point x="144" y="703"/>
      <point x="141" y="701" type="curve" smooth="yes"/>
      <point x="115" y="681"/>
      <point x="89" y="670"/>
      <point x="45" y="663" type="curve" smooth="yes"/>
      <point x="36" y="662"/>
      <point x="33" y="657"/>
      <point x="33" y="652" type="curve" smooth="yes"/>
      <point x="33" y="646"/>
      <point x="37" y="643"/>
      <point x="49" y="640" type="curve" smooth="yes"/>
      <point x="79" y="633"/>
      <point x="91" y="615"/>
      <point x="91" y="581" type="curve" smooth="yes"/>
      <point x="91" y="57" type="line" smooth="yes"/>
      <point x="91" y="31"/>
      <point x="64" y="26"/>
      <point x="44" y="22" type="curve" smooth="yes"/>
      <point x="33" y="18"/>
      <point x="21" y="15"/>
      <point x="21" y="6" type="curve" smooth="yes"/>
      <point x="21" y="-2"/>
      <point x="34" y="-3"/>
    </contour>
  </outline>
</glyph>
<glyph name="m" format="1">
  <advance width="838"/>
  <unicode hex="006D"/>
  <outline>
    <contour>
      <point x="48" y="-3" type="curve" smooth="yes"/>
      <point x="87" y="-3"/>
      <point x="92" y="2"/>
      <point x="126" y="2" type="curve" smooth="yes"/>
      <point x="160" y="2"/>
      <point x="165" y="-3"/>
      <point x="205" y="-3" type="curve" smooth="yes"/>
      <point x="216" y="-3"/>
      <point x="225" y="0"/>
      <point x="225" y="7" type="curve" smooth="yes"/>
      <point x="225" y="15"/>
      <point x="213" y="19"/>
      <point x="200" y="21" type="curve" smooth="yes"/>
      <point x="179" y="25"/>
      <point x="156" y="28"/>
      <point x="156" y="52" type="curve" smooth="yes"/>
      <point x="156" y="245" type="line" smooth="yes"/>
      <point x="156" y="283"/>
      <point x="164" y="304"/>
      <point x="188" y="318" type="curve" smooth="yes"/>
      <point x="219" y="339"/>
      <point x="253" y="348"/>
      <point x="294" y="348" type="curve" smooth="yes"/>
      <point x="346" y="348"/>
      <point x="390" y="299"/>
      <point x="390" y="250" type="curve" smooth="yes"/>
      <point x="390" y="52" type="line" smooth="yes"/>
      <point x="390" y="28"/>
      <point x="365" y="25"/>
      <point x="344" y="21" type="curve" smooth="yes"/>
      <point x="332" y="18"/>
      <point x="320" y="16"/>
      <point x="320" y="7" type="curve" smooth="yes"/>
      <point x="320" y="0"/>
      <point x="329" y="-3"/>
      <point x="340" y="-3" type="curve" smooth="yes"/>
      <point x="379" y="-3"/>
      <point x="387" y="2"/>
      <point x="421" y="2" type="curve" smooth="yes"/>
      <point x="455" y="2"/>
      <point x="462" y="-3"/>
      <point x="501" y="-3" type="curve" smooth="yes"/>
      <point x="514" y="-3"/>
      <point x="521" y="0"/>
      <point x="521" y="7" type="curve" smooth="yes"/>
      <point x="521" y="15"/>
      <point x="511" y="18"/>
      <point x="497" y="21" type="curve" smooth="yes"/>
      <point x="476" y="25"/>
      <point x="450" y="28"/>
      <point x="450" y="52" type="curve" smooth="yes"/>
      <point x="450" y="245" type="line" smooth="yes"/>
      <point x="450" y="283"/>
      <point x="461" y="304"/>
      <point x="483" y="318" type="curve" smooth="yes"/>
      <point x="513" y="339"/>
      <point x="547" y="348"/>
      <point x="588" y="348" type="curve" smooth="yes"/>
      <point x="639" y="348"/>
      <point x="683" y="299"/>
      <point x="683" y="250" type="curve" smooth="yes"/>
      <point x="683" y="52" type="line" smooth="yes"/>
      <point x="683" y="30"/>
      <point x="660" y="25"/>
      <point x="638" y="21" type="curve" smooth="yes"/>
      <point x="624" y="18"/>
      <point x="614" y="16"/>
      <point x="614" y="7" type="curve" smooth="yes"/>
      <point x="614" y="0"/>
      <point x="622" y="-3"/>
      <point x="634" y="-3" type="curve" smooth="yes"/>
      <point x="673" y="-3"/>
      <point x="680" y="2"/>
      <point x="715" y="2" type="curve" smooth="yes"/>
      <point x="749" y="2"/>
      <point x="753" y="-3"/>
      <point x="792" y="-3" type="curve" smooth="yes"/>
      <point x="807" y="-3"/>
      <point x="812" y="0"/>
      <point x="812" y="7" type="curve" smooth="yes"/>
      <point x="812" y="15"/>
      <point x="802" y="18"/>
      <point x="788" y="21" type="curve" smooth="yes"/>
      <point x="767" y="26"/>
      <point x="743" y="30"/>
      <point x="743" y="52" type="curve" smooth="yes"/>
      <point x="743" y="255" type="line" smooth="yes"/>
      <point x="743" y="325"/>
      <point x="704" y="394"/>
      <point x="632" y="394" type="curve" smooth="yes"/>
      <point x="560" y="394"/>
      <point x="499" y="363"/>
      <point x="451" y="325" type="curve"/>
      <point x="448" y="325" type="line"/>
      <point x="424" y="376"/>
      <point x="390" y="394"/>
      <point x="337" y="394" type="curve" smooth="yes"/>
      <point x="251" y="394"/>
      <point x="196" y="356"/>
      <point x="163" y="327" type="curve"/>
      <point x="161" y="327" type="line"/>
      <point x="160" y="328"/>
      <point x="159" y="333"/>
      <point x="159" y="339" type="curve" smooth="yes"/>
      <point x="159" y="358"/>
      <point x="164" y="392"/>
      <point x="164" y="401" type="curve" smooth="yes"/>
      <point x="164" y="406"/>
      <point x="161" y="410"/>
      <point x="158" y="410" type="curve" smooth="yes"/>
      <point x="154" y="410"/>
      <point x="150" y="407"/>
      <point x="146" y="403" type="curve" smooth="yes"/>
      <point x="124" y="379"/>
      <point x="101" y="364"/>
      <point x="57" y="354" type="curve" smooth="yes"/>
      <point x="50" y="352"/>
      <point x="46" y="348"/>
      <point x="46" y="343" type="curve" smooth="yes"/>
      <point x="46" y="336"/>
      <point x="50" y="333"/>
      <point x="58" y="331" type="curve" smooth="yes"/>
      <point x="88" y="326"/>
      <point x="96" y="306"/>
      <point x="96" y="266" type="curve" smooth="yes"/>
      <point x="96" y="52" type="line" smooth="yes"/>
      <point x="96" y="28"/>
      <point x="72" y="25"/>
      <point x="52" y="21" type="curve" smooth="yes"/>
      <point x="38" y="18"/>
      <point x="27" y="15"/>
      <point x="27" y="7" type="curve" smooth="yes"/>
      <point x="27" y="-1"/>
      <point x="37" y="-3"/>
    </contour>
  </outline>
</glyph>
<glyph name="n" format="1">
  <advance width="575"/>
  <unicode hex="006E"/>
  <outline>
    <contour>
      <point x="47" y="-3" type="curve" smooth="yes"/>
      <point x="86" y="-3"/>
      <point x="92" y="1"/>
      <point x="126" y="1" type="curve" smooth="yes"/>
      <point x="160" y="1"/>
      <point x="166" y="-3"/>
      <point x="205" y="-3" type="curve" smooth="yes"/>
      <point x="218" y="-3"/>
      <point x="225" y="0"/>
      <point x="225" y="7" type="curve" smooth="yes"/>
      <point x="225" y="13"/>
      <point x="218" y="17"/>
      <point x="201" y="20" type="curve" smooth="yes"/>
      <point x="180" y="24"/>
      <point x="156" y="29"/>
      <point x="156" y="48" type="curve" smooth="yes"/>
      <point x="156" y="280" type="line" smooth="yes"/>
      <point x="156" y="288"/>
      <point x="160" y="299"/>
      <point x="166" y="305" type="curve" smooth="yes"/>
      <point x="198" y="332"/>
      <point x="246" y="348"/>
      <point x="306" y="348" type="curve" smooth="yes"/>
      <point x="374" y="348"/>
      <point x="420" y="309"/>
      <point x="420" y="247" type="curve" smooth="yes"/>
      <point x="420" y="48" type="line" smooth="yes"/>
      <point x="420" y="29"/>
      <point x="396" y="25"/>
      <point x="375" y="20" type="curve" smooth="yes"/>
      <point x="363" y="17"/>
      <point x="351" y="13"/>
      <point x="351" y="5" type="curve" smooth="yes"/>
      <point x="351" y="-2"/>
      <point x="363" y="-3"/>
      <point x="371" y="-3" type="curve" smooth="yes"/>
      <point x="410" y="-3"/>
      <point x="416" y="1"/>
      <point x="451" y="1" type="curve" smooth="yes"/>
      <point x="485" y="1"/>
      <point x="490" y="-3"/>
      <point x="529" y="-3" type="curve" smooth="yes"/>
      <point x="538" y="-3"/>
      <point x="549" y="-2"/>
      <point x="549" y="5" type="curve" smooth="yes"/>
      <point x="549" y="14"/>
      <point x="537" y="17"/>
      <point x="525" y="20" type="curve" smooth="yes"/>
      <point x="504" y="25"/>
      <point x="480" y="29"/>
      <point x="480" y="48" type="curve" smooth="yes"/>
      <point x="480" y="250" type="line" smooth="yes"/>
      <point x="480" y="330"/>
      <point x="424" y="393"/>
      <point x="348" y="393" type="curve" smooth="yes"/>
      <point x="275" y="393"/>
      <point x="215" y="372"/>
      <point x="161" y="329" type="curve"/>
      <point x="160" y="333"/>
      <point x="159" y="341"/>
      <point x="159" y="349" type="curve" smooth="yes"/>
      <point x="159" y="367"/>
      <point x="164" y="392"/>
      <point x="164" y="401" type="curve" smooth="yes"/>
      <point x="164" y="406"/>
      <point x="161" y="409"/>
      <point x="158" y="409" type="curve" smooth="yes"/>
      <point x="155" y="409"/>
      <point x="153" y="407"/>
      <point x="149" y="405" type="curve" smooth="yes"/>
      <point x="124" y="384"/>
      <point x="97" y="367"/>
      <point x="56" y="356" type="curve" smooth="yes"/>
      <point x="49" y="354"/>
      <point x="45" y="351"/>
      <point x="45" y="345" type="curve" smooth="yes"/>
      <point x="45" y="338"/>
      <point x="49" y="335"/>
      <point x="57" y="333" type="curve" smooth="yes"/>
      <point x="89" y="325"/>
      <point x="96" y="294"/>
      <point x="96" y="259" type="curve" smooth="yes"/>
      <point x="96" y="48" type="line" smooth="yes"/>
      <point x="96" y="29"/>
      <point x="72" y="24"/>
      <point x="51" y="20" type="curve" smooth="yes"/>
      <point x="35" y="17"/>
      <point x="27" y="15"/>
      <point x="27" y="7" type="curve" smooth="yes"/>
      <point x="27" y="0"/>
      <point x="35" y="-3"/>
    </contour>
  </outline>
</glyph>
<glyph name="o" format="1">
  <advance width="534"/>
  <unicode hex="006F"/>
  <outline>
    <contour>
      <point x="252" y="-14" type="curve" smooth="yes"/>
      <point x="397" y="-14"/>
      <point x="494" y="71"/>
      <point x="494" y="202" type="curve" smooth="yes"/>
      <point x="494" y="308"/>
      <point x="395" y="394"/>
      <point x="274" y="394" type="curve" smooth="yes"/>
      <point x="148" y="394"/>
      <point x="40" y="296"/>
      <point x="40" y="178" type="curve" smooth="yes"/>
      <point x="40" y="68"/>
      <point x="130" y="-14"/>
    </contour>
    <contour>
      <point x="276" y="15" type="curve" smooth="yes"/>
      <point x="182" y="15"/>
      <point x="109" y="98"/>
      <point x="109" y="199" type="curve" smooth="yes"/>
      <point x="109" y="310"/>
      <point x="156" y="364"/>
      <point x="254" y="364" type="curve" smooth="yes"/>
      <point x="349" y="364"/>
      <point x="425" y="280"/>
      <point x="425" y="180" type="curve" smooth="yes"/>
      <point x="425" y="64"/>
      <point x="380" y="15"/>
    </contour>
  </outline>
</glyph>
<glyph name="p" format="1">
  <advance width="563"/>
  <unicode hex="0070"/>
  <outline>
    <contour>
      <point x="43" y="-285" type="curve" smooth="yes"/>
      <point x="81" y="-285"/>
      <point x="87" y="-281"/>
      <point x="122" y="-281" type="curve" smooth="yes"/>
      <point x="157" y="-281"/>
      <point x="173" y="-285"/>
      <point x="212" y="-285" type="curve" smooth="yes"/>
      <point x="223" y="-285"/>
      <point x="233" y="-282"/>
      <point x="233" y="-274" type="curve" smooth="yes"/>
      <point x="233" y="-268"/>
      <point x="223" y="-264"/>
      <point x="209" y="-261" type="curve" smooth="yes"/>
      <point x="188" y="-258"/>
      <point x="151" y="-254"/>
      <point x="151" y="-232" type="curve" smooth="yes"/>
      <point x="151" y="-32" type="line" smooth="yes"/>
      <point x="151" y="-26"/>
      <point x="152" y="20"/>
      <point x="156" y="20" type="curve"/>
      <point x="178" y="1"/>
      <point x="237" y="-14"/>
      <point x="269" y="-14" type="curve" smooth="yes"/>
      <point x="417" y="-14"/>
      <point x="524" y="97"/>
      <point x="524" y="214" type="curve" smooth="yes"/>
      <point x="524" y="303"/>
      <point x="455" y="393"/>
      <point x="338" y="393" type="curve" smooth="yes"/>
      <point x="267" y="393"/>
      <point x="175" y="348"/>
      <point x="154" y="329" type="curve"/>
      <point x="153" y="328"/>
      <point x="153" y="332"/>
      <point x="153" y="336" type="curve" smooth="yes"/>
      <point x="153" y="356"/>
      <point x="158" y="385"/>
      <point x="158" y="397" type="curve" smooth="yes"/>
      <point x="158" y="401"/>
      <point x="155" y="406"/>
      <point x="152" y="406" type="curve" smooth="yes"/>
      <point x="151" y="406"/>
      <point x="151" y="405"/>
      <point x="150" y="404" type="curve"/>
      <point x="120" y="392"/>
      <point x="87" y="379"/>
      <point x="45" y="368" type="curve" smooth="yes"/>
      <point x="39" y="366"/>
      <point x="35" y="362"/>
      <point x="35" y="356" type="curve" smooth="yes"/>
      <point x="35" y="350"/>
      <point x="40" y="345"/>
      <point x="47" y="344" type="curve" smooth="yes"/>
      <point x="82" y="339"/>
      <point x="92" y="310"/>
      <point x="92" y="285" type="curve" smooth="yes"/>
      <point x="92" y="-232" type="line" smooth="yes"/>
      <point x="92" y="-251"/>
      <point x="68" y="-257"/>
      <point x="46" y="-261" type="curve" smooth="yes"/>
      <point x="33" y="-264"/>
      <point x="22" y="-268"/>
      <point x="22" y="-274" type="curve" smooth="yes"/>
      <point x="22" y="-282"/>
      <point x="33" y="-285"/>
    </contour>
    <contour>
      <point x="297" y="15" type="curve" smooth="yes"/>
      <point x="206" y="15"/>
      <point x="151" y="57"/>
      <point x="151" y="156" type="curve" smooth="yes"/>
      <point x="151" y="178"/>
      <point x="154" y="244"/>
      <point x="154" y="297" type="curve" smooth="yes"/>
      <point x="154" y="312"/>
      <point x="225" y="349"/>
      <point x="289" y="349" type="curve" smooth="yes"/>
      <point x="381" y="349"/>
      <point x="456" y="303"/>
      <point x="456" y="181" type="curve" smooth="yes"/>
      <point x="456" y="65"/>
      <point x="379" y="15"/>
    </contour>
  </outline>
</glyph>
<glyph name="q" format="1">
  <advance width="566"/>
  <unicode hex="0071"/>
  <outline>
    <contour>
      <point x="380" y="-285" type="curve" smooth="yes"/>
      <point x="419" y="-285"/>
      <point x="425" y="-280"/>
      <point x="460" y="-280" type="curve" smooth="yes"/>
      <point x="495" y="-280"/>
      <point x="507" y="-285"/>
      <point x="547" y="-285" type="curve" smooth="yes"/>
      <point x="555" y="-285"/>
      <point x="566" y="-284"/>
      <point x="566" y="-276" type="curve" smooth="yes"/>
      <point x="566" y="-269"/>
      <point x="555" y="-265"/>
      <point x="542" y="-262" type="curve" smooth="yes"/>
      <point x="521" y="-256"/>
      <point x="489" y="-255"/>
      <point x="489" y="-231" type="curve" smooth="yes"/>
      <point x="489" y="281" type="line" smooth="yes"/>
      <point x="489" y="334"/>
      <point x="503" y="379"/>
      <point x="503" y="392" type="curve" smooth="yes"/>
      <point x="503" y="396"/>
      <point x="493" y="400"/>
      <point x="485" y="400" type="curve" smooth="yes"/>
      <point x="481" y="400"/>
      <point x="477" y="398"/>
      <point x="474" y="393" type="curve" smooth="yes"/>
      <point x="469" y="382"/>
      <point x="462" y="371"/>
      <point x="448" y="371" type="curve" smooth="yes"/>
      <point x="433" y="371"/>
      <point x="380" y="393"/>
      <point x="309" y="393" type="curve" smooth="yes"/>
      <point x="149" y="393"/>
      <point x="40" y="305"/>
      <point x="40" y="171" type="curve" smooth="yes"/>
      <point x="40" y="52"/>
      <point x="145" y="-14"/>
      <point x="268" y="-14" type="curve" smooth="yes"/>
      <point x="328" y="-14"/>
      <point x="393" y="24"/>
      <point x="412" y="39" type="curve" smooth="yes"/>
      <point x="416" y="42"/>
      <point x="419" y="41"/>
      <point x="423" y="41" type="curve" smooth="yes"/>
      <point x="427" y="41"/>
      <point x="430" y="34"/>
      <point x="430" y="12" type="curve" smooth="yes"/>
      <point x="430" y="-231" type="line" smooth="yes"/>
      <point x="430" y="-251"/>
      <point x="408" y="-255"/>
      <point x="385" y="-261" type="curve" smooth="yes"/>
      <point x="372" y="-265"/>
      <point x="360" y="-268"/>
      <point x="360" y="-277" type="curve" smooth="yes"/>
      <point x="360" y="-284"/>
      <point x="372" y="-285"/>
    </contour>
    <contour>
      <point x="300" y="34" type="curve" smooth="yes"/>
      <point x="221" y="34"/>
      <point x="109" y="62"/>
      <point x="109" y="193" type="curve" smooth="yes"/>
      <point x="109" y="300"/>
      <point x="193" y="359"/>
      <point x="282" y="359" type="curve" smooth="yes"/>
      <point x="387" y="359"/>
      <point x="426" y="322"/>
      <point x="429" y="259" type="curve" smooth="yes"/>
      <point x="431" y="233"/>
      <point x="431" y="107"/>
      <point x="431" y="73" type="curve"/>
      <point x="410" y="55"/>
      <point x="354" y="34"/>
    </contour>
  </outline>
</glyph>
